<svg width="1363" height="163" viewBox="0 0 1363 163" fill="none" xmlns="http://www.w3.org/2000/svg">
<path d="M0 15C0 6.71573 6.71573 0 15 0H37V163H15C6.71573 163 0 156.284 0 148V15Z" fill="#D62828"/>
<rect width="1097" height="163" transform="translate(37)" fill="#F0F0F0"/>
<path d="M101.906 53.9219L94.3945 51.2383V48.0859L104.602 52.375V54.6367L101.906 53.9219ZM94.3945 56.1719L101.918 53.4297L104.602 52.7852V55.0352L94.3945 59.3242V56.1719ZM122.789 55.3398H126.293C126.223 56.4883 125.906 57.5078 125.344 58.3984C124.789 59.2891 124.012 59.9844 123.012 60.4844C122.02 60.9844 120.824 61.2344 119.426 61.2344C118.332 61.2344 117.352 61.0469 116.484 60.6719C115.617 60.2891 114.875 59.7422 114.258 59.0312C113.648 58.3203 113.184 57.4609 112.863 56.4531C112.543 55.4453 112.383 54.3164 112.383 53.0664V51.8828C112.383 50.6328 112.547 49.5039 112.875 48.4961C113.211 47.4805 113.688 46.6172 114.305 45.9062C114.93 45.1953 115.676 44.6484 116.543 44.2656C117.41 43.8828 118.379 43.6914 119.449 43.6914C120.871 43.6914 122.07 43.9492 123.047 44.4648C124.031 44.9805 124.793 45.6914 125.332 46.5977C125.879 47.5039 126.207 48.5352 126.316 49.6914H122.801C122.762 49.0039 122.625 48.4219 122.391 47.9453C122.156 47.4609 121.801 47.0977 121.324 46.8555C120.855 46.6055 120.23 46.4805 119.449 46.4805C118.863 46.4805 118.352 46.5898 117.914 46.8086C117.477 47.0273 117.109 47.3594 116.812 47.8047C116.516 48.25 116.293 48.8125 116.145 49.4922C116.004 50.1641 115.934 50.9531 115.934 51.8594V53.0664C115.934 53.9492 116 54.7266 116.133 55.3984C116.266 56.0625 116.469 56.625 116.742 57.0859C117.023 57.5391 117.383 57.8828 117.82 58.1172C118.266 58.3438 118.801 58.457 119.426 58.457C120.16 58.457 120.766 58.3398 121.242 58.1055C121.719 57.8711 122.082 57.5234 122.332 57.0625C122.59 56.6016 122.742 56.0273 122.789 55.3398ZM127.852 54.7891V54.543C127.852 53.6133 127.984 52.7578 128.25 51.9766C128.516 51.1875 128.902 50.5039 129.41 49.9258C129.918 49.3477 130.543 48.8984 131.285 48.5781C132.027 48.25 132.879 48.0859 133.84 48.0859C134.801 48.0859 135.656 48.25 136.406 48.5781C137.156 48.8984 137.785 49.3477 138.293 49.9258C138.809 50.5039 139.199 51.1875 139.465 51.9766C139.73 52.7578 139.863 53.6133 139.863 54.543V54.7891C139.863 55.7109 139.73 56.5664 139.465 57.3555C139.199 58.1367 138.809 58.8203 138.293 59.4062C137.785 59.9844 137.16 60.4336 136.418 60.7539C135.676 61.0742 134.824 61.2344 133.863 61.2344C132.902 61.2344 132.047 61.0742 131.297 60.7539C130.555 60.4336 129.926 59.9844 129.41 59.4062C128.902 58.8203 128.516 58.1367 128.25 57.3555C127.984 56.5664 127.852 55.7109 127.852 54.7891ZM131.227 54.543V54.7891C131.227 55.3203 131.273 55.8164 131.367 56.2773C131.461 56.7383 131.609 57.1445 131.812 57.4961C132.023 57.8398 132.297 58.1094 132.633 58.3047C132.969 58.5 133.379 58.5977 133.863 58.5977C134.332 58.5977 134.734 58.5 135.07 58.3047C135.406 58.1094 135.676 57.8398 135.879 57.4961C136.082 57.1445 136.23 56.7383 136.324 56.2773C136.426 55.8164 136.477 55.3203 136.477 54.7891V54.543C136.477 54.0273 136.426 53.543 136.324 53.0898C136.23 52.6289 136.078 52.2227 135.867 51.8711C135.664 51.5117 135.395 51.2305 135.059 51.0273C134.723 50.8242 134.316 50.7227 133.84 50.7227C133.363 50.7227 132.957 50.8242 132.621 51.0273C132.293 51.2305 132.023 51.5117 131.812 51.8711C131.609 52.2227 131.461 52.6289 131.367 53.0898C131.273 53.543 131.227 54.0273 131.227 54.543ZM146.238 61H142.84V47.1953C142.84 46.2344 143.027 45.4258 143.402 44.7695C143.785 44.1055 144.32 43.6055 145.008 43.2695C145.703 42.9258 146.527 42.7539 147.48 42.7539C147.793 42.7539 148.094 42.7773 148.383 42.8242C148.672 42.8633 148.953 42.9141 149.227 42.9766L149.191 45.5195C149.043 45.4805 148.887 45.4531 148.723 45.4375C148.559 45.4219 148.367 45.4141 148.148 45.4141C147.742 45.4141 147.395 45.4844 147.105 45.625C146.824 45.7578 146.609 45.957 146.461 46.2227C146.312 46.4883 146.238 46.8125 146.238 47.1953V61ZM148.77 48.3203V50.7109H140.953V48.3203H148.77ZM154.84 61H151.441V47.1953C151.441 46.2344 151.629 45.4258 152.004 44.7695C152.387 44.1055 152.922 43.6055 153.609 43.2695C154.305 42.9258 155.129 42.7539 156.082 42.7539C156.395 42.7539 156.695 42.7773 156.984 42.8242C157.273 42.8633 157.555 42.9141 157.828 42.9766L157.793 45.5195C157.645 45.4805 157.488 45.4531 157.324 45.4375C157.16 45.4219 156.969 45.4141 156.75 45.4141C156.344 45.4141 155.996 45.4844 155.707 45.625C155.426 45.7578 155.211 45.957 155.062 46.2227C154.914 46.4883 154.84 46.8125 154.84 47.1953V61ZM157.371 48.3203V50.7109H149.555V48.3203H157.371ZM164.695 61.2344C163.711 61.2344 162.828 61.0781 162.047 60.7656C161.266 60.4453 160.602 60.0039 160.055 59.4414C159.516 58.8789 159.102 58.2266 158.812 57.4844C158.523 56.7344 158.379 55.9375 158.379 55.0938V54.625C158.379 53.6641 158.516 52.7852 158.789 51.9883C159.062 51.1914 159.453 50.5 159.961 49.9141C160.477 49.3281 161.102 48.8789 161.836 48.5664C162.57 48.2461 163.398 48.0859 164.32 48.0859C165.219 48.0859 166.016 48.2344 166.711 48.5312C167.406 48.8281 167.988 49.25 168.457 49.7969C168.934 50.3438 169.293 51 169.535 51.7656C169.777 52.5234 169.898 53.3672 169.898 54.2969V55.7031H159.82V53.4531H166.582V53.1953C166.582 52.7266 166.496 52.3086 166.324 51.9414C166.16 51.5664 165.91 51.2695 165.574 51.0508C165.238 50.832 164.809 50.7227 164.285 50.7227C163.84 50.7227 163.457 50.8203 163.137 51.0156C162.816 51.2109 162.555 51.4844 162.352 51.8359C162.156 52.1875 162.008 52.6016 161.906 53.0781C161.812 53.5469 161.766 54.0625 161.766 54.625V55.0938C161.766 55.6016 161.836 56.0703 161.977 56.5C162.125 56.9297 162.332 57.3008 162.598 57.6133C162.871 57.9258 163.199 58.168 163.582 58.3398C163.973 58.5117 164.414 58.5977 164.906 58.5977C165.516 58.5977 166.082 58.4805 166.605 58.2461C167.137 58.0039 167.594 57.6406 167.977 57.1562L169.617 58.9375C169.352 59.3203 168.988 59.6875 168.527 60.0391C168.074 60.3906 167.527 60.6797 166.887 60.9062C166.246 61.125 165.516 61.2344 164.695 61.2344ZM177.656 61.2344C176.672 61.2344 175.789 61.0781 175.008 60.7656C174.227 60.4453 173.562 60.0039 173.016 59.4414C172.477 58.8789 172.062 58.2266 171.773 57.4844C171.484 56.7344 171.34 55.9375 171.34 55.0938V54.625C171.34 53.6641 171.477 52.7852 171.75 51.9883C172.023 51.1914 172.414 50.5 172.922 49.9141C173.438 49.3281 174.062 48.8789 174.797 48.5664C175.531 48.2461 176.359 48.0859 177.281 48.0859C178.18 48.0859 178.977 48.2344 179.672 48.5312C180.367 48.8281 180.949 49.25 181.418 49.7969C181.895 50.3438 182.254 51 182.496 51.7656C182.738 52.5234 182.859 53.3672 182.859 54.2969V55.7031H172.781V53.4531H179.543V53.1953C179.543 52.7266 179.457 52.3086 179.285 51.9414C179.121 51.5664 178.871 51.2695 178.535 51.0508C178.199 50.832 177.77 50.7227 177.246 50.7227C176.801 50.7227 176.418 50.8203 176.098 51.0156C175.777 51.2109 175.516 51.4844 175.312 51.8359C175.117 52.1875 174.969 52.6016 174.867 53.0781C174.773 53.5469 174.727 54.0625 174.727 54.625V55.0938C174.727 55.6016 174.797 56.0703 174.938 56.5C175.086 56.9297 175.293 57.3008 175.559 57.6133C175.832 57.9258 176.16 58.168 176.543 58.3398C176.934 58.5117 177.375 58.5977 177.867 58.5977C178.477 58.5977 179.043 58.4805 179.566 58.2461C180.098 58.0039 180.555 57.6406 180.938 57.1562L182.578 58.9375C182.312 59.3203 181.949 59.6875 181.488 60.0391C181.035 60.3906 180.488 60.6797 179.848 60.9062C179.207 61.125 178.477 61.2344 177.656 61.2344ZM202.418 58.2578V61H193.336V58.2578H202.418ZM194.484 43.9375V61H190.969V43.9375H194.484ZM201.234 50.8867V53.5586H193.336V50.8867H201.234ZM202.406 43.9375V46.6914H193.336V43.9375H202.406ZM206.977 48.3203L209.074 52.1758L211.23 48.3203H214.828L211.242 54.5195L214.992 61H211.383L209.098 56.9219L206.812 61H203.203L206.953 54.5195L203.367 48.3203H206.977ZM224.062 53.9219L216.551 51.2383V48.0859L226.758 52.375V54.6367L224.062 53.9219ZM216.551 56.1719L224.074 53.4297L226.758 52.7852V55.0352L216.551 59.3242V56.1719ZM237.398 43.9375L240.961 51.7188L244.523 43.9375H248.355L242.742 54.7891V61H239.18V54.7891L233.555 43.9375H237.398ZM254.766 61.2344C253.781 61.2344 252.898 61.0781 252.117 60.7656C251.336 60.4453 250.672 60.0039 250.125 59.4414C249.586 58.8789 249.172 58.2266 248.883 57.4844C248.594 56.7344 248.449 55.9375 248.449 55.0938V54.625C248.449 53.6641 248.586 52.7852 248.859 51.9883C249.133 51.1914 249.523 50.5 250.031 49.9141C250.547 49.3281 251.172 48.8789 251.906 48.5664C252.641 48.2461 253.469 48.0859 254.391 48.0859C255.289 48.0859 256.086 48.2344 256.781 48.5312C257.477 48.8281 258.059 49.25 258.527 49.7969C259.004 50.3438 259.363 51 259.605 51.7656C259.848 52.5234 259.969 53.3672 259.969 54.2969V55.7031H249.891V53.4531H256.652V53.1953C256.652 52.7266 256.566 52.3086 256.395 51.9414C256.23 51.5664 255.98 51.2695 255.645 51.0508C255.309 50.832 254.879 50.7227 254.355 50.7227C253.91 50.7227 253.527 50.8203 253.207 51.0156C252.887 51.2109 252.625 51.4844 252.422 51.8359C252.227 52.1875 252.078 52.6016 251.977 53.0781C251.883 53.5469 251.836 54.0625 251.836 54.625V55.0938C251.836 55.6016 251.906 56.0703 252.047 56.5C252.195 56.9297 252.402 57.3008 252.668 57.6133C252.941 57.9258 253.27 58.168 253.652 58.3398C254.043 58.5117 254.484 58.5977 254.977 58.5977C255.586 58.5977 256.152 58.4805 256.676 58.2461C257.207 58.0039 257.664 57.6406 258.047 57.1562L259.688 58.9375C259.422 59.3203 259.059 59.6875 258.598 60.0391C258.145 60.3906 257.598 60.6797 256.957 60.9062C256.316 61.125 255.586 61.2344 254.766 61.2344ZM265.453 43V61H262.066V43H265.453ZM271.617 50.7578V65.875H268.242V48.3203H271.371L271.617 50.7578ZM279.645 54.5195V54.7656C279.645 55.6875 279.535 56.543 279.316 57.332C279.105 58.1211 278.793 58.8086 278.379 59.3945C277.965 59.9727 277.449 60.4258 276.832 60.7539C276.223 61.0742 275.52 61.2344 274.723 61.2344C273.949 61.2344 273.277 61.0781 272.707 60.7656C272.137 60.4531 271.656 60.0156 271.266 59.4531C270.883 58.8828 270.574 58.2227 270.34 57.4727C270.105 56.7227 269.926 55.918 269.801 55.0586V54.4141C269.926 53.4922 270.105 52.6484 270.34 51.8828C270.574 51.1094 270.883 50.4414 271.266 49.8789C271.656 49.3086 272.133 48.8672 272.695 48.5547C273.266 48.2422 273.934 48.0859 274.699 48.0859C275.504 48.0859 276.211 48.2383 276.82 48.543C277.438 48.8477 277.953 49.2852 278.367 49.8555C278.789 50.4258 279.105 51.1055 279.316 51.8945C279.535 52.6836 279.645 53.5586 279.645 54.5195ZM276.258 54.7656V54.5195C276.258 53.9805 276.211 53.4844 276.117 53.0312C276.031 52.5703 275.891 52.168 275.695 51.8242C275.508 51.4805 275.258 51.2148 274.945 51.0273C274.641 50.832 274.27 50.7344 273.832 50.7344C273.371 50.7344 272.977 50.8086 272.648 50.957C272.328 51.1055 272.066 51.3203 271.863 51.6016C271.66 51.8828 271.508 52.2188 271.406 52.6094C271.305 53 271.242 53.4414 271.219 53.9336V55.5625C271.258 56.1406 271.367 56.6602 271.547 57.1211C271.727 57.5742 272.004 57.9336 272.379 58.1992C272.754 58.4648 273.246 58.5977 273.855 58.5977C274.301 58.5977 274.676 58.5 274.98 58.3047C275.285 58.1016 275.531 57.8242 275.719 57.4727C275.914 57.1211 276.051 56.7148 276.129 56.2539C276.215 55.793 276.258 55.2969 276.258 54.7656ZM287.93 43.9375H294.293C295.598 43.9375 296.719 44.1328 297.656 44.5234C298.602 44.9141 299.328 45.4922 299.836 46.2578C300.344 47.0234 300.598 47.9648 300.598 49.082C300.598 49.9961 300.441 50.7812 300.129 51.4375C299.824 52.0859 299.391 52.6289 298.828 53.0664C298.273 53.4961 297.621 53.8398 296.871 54.0977L295.758 54.6836H290.227L290.203 51.9414H294.316C294.934 51.9414 295.445 51.832 295.852 51.6133C296.258 51.3945 296.562 51.0898 296.766 50.6992C296.977 50.3086 297.082 49.8555 297.082 49.3398C297.082 48.793 296.98 48.3203 296.777 47.9219C296.574 47.5234 296.266 47.2188 295.852 47.0078C295.438 46.7969 294.918 46.6914 294.293 46.6914H291.445V61H287.93V43.9375ZM297.469 61L293.578 53.3945L297.293 53.3711L301.23 60.8359V61H297.469ZM308.93 61.2344C307.945 61.2344 307.062 61.0781 306.281 60.7656C305.5 60.4453 304.836 60.0039 304.289 59.4414C303.75 58.8789 303.336 58.2266 303.047 57.4844C302.758 56.7344 302.613 55.9375 302.613 55.0938V54.625C302.613 53.6641 302.75 52.7852 303.023 51.9883C303.297 51.1914 303.688 50.5 304.195 49.9141C304.711 49.3281 305.336 48.8789 306.07 48.5664C306.805 48.2461 307.633 48.0859 308.555 48.0859C309.453 48.0859 310.25 48.2344 310.945 48.5312C311.641 48.8281 312.223 49.25 312.691 49.7969C313.168 50.3438 313.527 51 313.77 51.7656C314.012 52.5234 314.133 53.3672 314.133 54.2969V55.7031H304.055V53.4531H310.816V53.1953C310.816 52.7266 310.73 52.3086 310.559 51.9414C310.395 51.5664 310.145 51.2695 309.809 51.0508C309.473 50.832 309.043 50.7227 308.52 50.7227C308.074 50.7227 307.691 50.8203 307.371 51.0156C307.051 51.2109 306.789 51.4844 306.586 51.8359C306.391 52.1875 306.242 52.6016 306.141 53.0781C306.047 53.5469 306 54.0625 306 54.625V55.0938C306 55.6016 306.07 56.0703 306.211 56.5C306.359 56.9297 306.566 57.3008 306.832 57.6133C307.105 57.9258 307.434 58.168 307.816 58.3398C308.207 58.5117 308.648 58.5977 309.141 58.5977C309.75 58.5977 310.316 58.4805 310.84 58.2461C311.371 58.0039 311.828 57.6406 312.211 57.1562L313.852 58.9375C313.586 59.3203 313.223 59.6875 312.762 60.0391C312.309 60.3906 311.762 60.6797 311.121 60.9062C310.48 61.125 309.75 61.2344 308.93 61.2344ZM322.91 57.4961C322.91 57.2539 322.84 57.0352 322.699 56.8398C322.559 56.6445 322.297 56.4648 321.914 56.3008C321.539 56.1289 320.996 55.9727 320.285 55.832C319.645 55.6914 319.047 55.5156 318.492 55.3047C317.945 55.0859 317.469 54.8242 317.062 54.5195C316.664 54.2148 316.352 53.8555 316.125 53.4414C315.898 53.0195 315.785 52.5391 315.785 52C315.785 51.4688 315.898 50.9688 316.125 50.5C316.359 50.0312 316.691 49.6172 317.121 49.2578C317.559 48.8906 318.09 48.6055 318.715 48.4023C319.348 48.1914 320.059 48.0859 320.848 48.0859C321.949 48.0859 322.895 48.2617 323.684 48.6133C324.48 48.9648 325.09 49.4492 325.512 50.0664C325.941 50.6758 326.156 51.3711 326.156 52.1523H322.781C322.781 51.8242 322.711 51.5312 322.57 51.2734C322.438 51.0078 322.227 50.8008 321.938 50.6523C321.656 50.4961 321.289 50.418 320.836 50.418C320.461 50.418 320.137 50.4844 319.863 50.6172C319.59 50.7422 319.379 50.9141 319.23 51.1328C319.09 51.3438 319.02 51.5781 319.02 51.8359C319.02 52.0312 319.059 52.207 319.137 52.3633C319.223 52.5117 319.359 52.6484 319.547 52.7734C319.734 52.8984 319.977 53.0156 320.273 53.125C320.578 53.2266 320.953 53.3203 321.398 53.4062C322.312 53.5938 323.129 53.8398 323.848 54.1445C324.566 54.4414 325.137 54.8477 325.559 55.3633C325.98 55.8711 326.191 56.5391 326.191 57.3672C326.191 57.9297 326.066 58.4453 325.816 58.9141C325.566 59.3828 325.207 59.793 324.738 60.1445C324.27 60.4883 323.707 60.7578 323.051 60.9531C322.402 61.1406 321.672 61.2344 320.859 61.2344C319.68 61.2344 318.68 61.0234 317.859 60.6016C317.047 60.1797 316.43 59.6445 316.008 58.9961C315.594 58.3398 315.387 57.668 315.387 56.9805H318.586C318.602 57.4414 318.719 57.8125 318.938 58.0938C319.164 58.375 319.449 58.5781 319.793 58.7031C320.145 58.8281 320.523 58.8906 320.93 58.8906C321.367 58.8906 321.73 58.832 322.02 58.7148C322.309 58.5898 322.527 58.4258 322.676 58.2227C322.832 58.0117 322.91 57.7695 322.91 57.4961ZM334.594 48.3203V50.7109H327.211V48.3203H334.594ZM329.039 45.1914H332.414V57.1797C332.414 57.5469 332.461 57.8281 332.555 58.0234C332.656 58.2188 332.805 58.3555 333 58.4336C333.195 58.5039 333.441 58.5391 333.738 58.5391C333.949 58.5391 334.137 58.5312 334.301 58.5156C334.473 58.4922 334.617 58.4688 334.734 58.4453L334.746 60.9297C334.457 61.0234 334.145 61.0977 333.809 61.1523C333.473 61.207 333.102 61.2344 332.695 61.2344C331.953 61.2344 331.305 61.1133 330.75 60.8711C330.203 60.6211 329.781 60.2227 329.484 59.6758C329.188 59.1289 329.039 58.4102 329.039 57.5195V45.1914ZM343.359 58.1406V52.4922C343.359 52.0859 343.293 51.7383 343.16 51.4492C343.027 51.1523 342.82 50.9219 342.539 50.7578C342.266 50.5938 341.91 50.5117 341.473 50.5117C341.098 50.5117 340.773 50.5781 340.5 50.7109C340.227 50.8359 340.016 51.0195 339.867 51.2617C339.719 51.4961 339.645 51.7734 339.645 52.0938H336.27C336.27 51.5547 336.395 51.043 336.645 50.5586C336.895 50.0742 337.258 49.6484 337.734 49.2812C338.211 48.9062 338.777 48.6133 339.434 48.4023C340.098 48.1914 340.84 48.0859 341.66 48.0859C342.645 48.0859 343.52 48.25 344.285 48.5781C345.051 48.9062 345.652 49.3984 346.09 50.0547C346.535 50.7109 346.758 51.5312 346.758 52.5156V57.9414C346.758 58.6367 346.801 59.207 346.887 59.6523C346.973 60.0898 347.098 60.4727 347.262 60.8008V61H343.852C343.688 60.6562 343.562 60.2266 343.477 59.7109C343.398 59.1875 343.359 58.6641 343.359 58.1406ZM343.805 53.2773L343.828 55.1875H341.941C341.496 55.1875 341.109 55.2383 340.781 55.3398C340.453 55.4414 340.184 55.5859 339.973 55.7734C339.762 55.9531 339.605 56.1641 339.504 56.4062C339.41 56.6484 339.363 56.9141 339.363 57.2031C339.363 57.4922 339.43 57.7539 339.562 57.9883C339.695 58.2148 339.887 58.3945 340.137 58.5273C340.387 58.6523 340.68 58.7148 341.016 58.7148C341.523 58.7148 341.965 58.6133 342.34 58.4102C342.715 58.207 343.004 57.957 343.207 57.6602C343.418 57.3633 343.527 57.082 343.535 56.8164L344.426 58.2461C344.301 58.5664 344.129 58.8984 343.91 59.2422C343.699 59.5859 343.43 59.9102 343.102 60.2148C342.773 60.5117 342.379 60.7578 341.918 60.9531C341.457 61.1406 340.91 61.2344 340.277 61.2344C339.473 61.2344 338.742 61.0742 338.086 60.7539C337.438 60.4258 336.922 59.9766 336.539 59.4062C336.164 58.8281 335.977 58.1719 335.977 57.4375C335.977 56.7734 336.102 56.1836 336.352 55.668C336.602 55.1523 336.969 54.7188 337.453 54.3672C337.945 54.0078 338.559 53.7383 339.293 53.5586C340.027 53.3711 340.879 53.2773 341.848 53.2773H343.805ZM356.859 57.9648V48.3203H360.234V61H357.059L356.859 57.9648ZM357.234 55.3633L358.23 55.3398C358.23 56.1836 358.133 56.9688 357.938 57.6953C357.742 58.4141 357.449 59.0391 357.059 59.5703C356.668 60.0938 356.176 60.5039 355.582 60.8008C354.988 61.0898 354.289 61.2344 353.484 61.2344C352.867 61.2344 352.297 61.1484 351.773 60.9766C351.258 60.7969 350.812 60.5195 350.438 60.1445C350.07 59.7617 349.781 59.2734 349.57 58.6797C349.367 58.0781 349.266 57.3555 349.266 56.5117V48.3203H352.641V56.5352C352.641 56.9102 352.684 57.2266 352.77 57.4844C352.863 57.7422 352.992 57.9531 353.156 58.1172C353.32 58.2812 353.512 58.3984 353.73 58.4688C353.957 58.5391 354.207 58.5742 354.48 58.5742C355.176 58.5742 355.723 58.4336 356.121 58.1523C356.527 57.8711 356.812 57.4883 356.977 57.0039C357.148 56.5117 357.234 55.9648 357.234 55.3633ZM366.188 51.0859V61H362.812V48.3203H365.988L366.188 51.0859ZM370.008 48.2383L369.949 51.3672C369.785 51.3438 369.586 51.3242 369.352 51.3086C369.125 51.2852 368.918 51.2734 368.73 51.2734C368.254 51.2734 367.84 51.3359 367.488 51.4609C367.145 51.5781 366.855 51.7539 366.621 51.9883C366.395 52.2227 366.223 52.5078 366.105 52.8438C365.996 53.1797 365.934 53.5625 365.918 53.9922L365.238 53.7812C365.238 52.9609 365.32 52.207 365.484 51.5195C365.648 50.8242 365.887 50.2188 366.199 49.7031C366.52 49.1875 366.91 48.7891 367.371 48.5078C367.832 48.2266 368.359 48.0859 368.953 48.0859C369.141 48.0859 369.332 48.1016 369.527 48.1328C369.723 48.1562 369.883 48.1914 370.008 48.2383ZM378.047 58.1406V52.4922C378.047 52.0859 377.98 51.7383 377.848 51.4492C377.715 51.1523 377.508 50.9219 377.227 50.7578C376.953 50.5938 376.598 50.5117 376.16 50.5117C375.785 50.5117 375.461 50.5781 375.188 50.7109C374.914 50.8359 374.703 51.0195 374.555 51.2617C374.406 51.4961 374.332 51.7734 374.332 52.0938H370.957C370.957 51.5547 371.082 51.043 371.332 50.5586C371.582 50.0742 371.945 49.6484 372.422 49.2812C372.898 48.9062 373.465 48.6133 374.121 48.4023C374.785 48.1914 375.527 48.0859 376.348 48.0859C377.332 48.0859 378.207 48.25 378.973 48.5781C379.738 48.9062 380.34 49.3984 380.777 50.0547C381.223 50.7109 381.445 51.5312 381.445 52.5156V57.9414C381.445 58.6367 381.488 59.207 381.574 59.6523C381.66 60.0898 381.785 60.4727 381.949 60.8008V61H378.539C378.375 60.6562 378.25 60.2266 378.164 59.7109C378.086 59.1875 378.047 58.6641 378.047 58.1406ZM378.492 53.2773L378.516 55.1875H376.629C376.184 55.1875 375.797 55.2383 375.469 55.3398C375.141 55.4414 374.871 55.5859 374.66 55.7734C374.449 55.9531 374.293 56.1641 374.191 56.4062C374.098 56.6484 374.051 56.9141 374.051 57.2031C374.051 57.4922 374.117 57.7539 374.25 57.9883C374.383 58.2148 374.574 58.3945 374.824 58.5273C375.074 58.6523 375.367 58.7148 375.703 58.7148C376.211 58.7148 376.652 58.6133 377.027 58.4102C377.402 58.207 377.691 57.957 377.895 57.6602C378.105 57.3633 378.215 57.082 378.223 56.8164L379.113 58.2461C378.988 58.5664 378.816 58.8984 378.598 59.2422C378.387 59.5859 378.117 59.9102 377.789 60.2148C377.461 60.5117 377.066 60.7578 376.605 60.9531C376.145 61.1406 375.598 61.2344 374.965 61.2344C374.16 61.2344 373.43 61.0742 372.773 60.7539C372.125 60.4258 371.609 59.9766 371.227 59.4062C370.852 58.8281 370.664 58.1719 370.664 57.4375C370.664 56.7734 370.789 56.1836 371.039 55.668C371.289 55.1523 371.656 54.7188 372.141 54.3672C372.633 54.0078 373.246 53.7383 373.98 53.5586C374.715 53.3711 375.566 53.2773 376.535 53.2773H378.492ZM387.352 51.0273V61H383.977V48.3203H387.141L387.352 51.0273ZM386.859 54.2148H385.945C385.945 53.2773 386.066 52.4336 386.309 51.6836C386.551 50.9258 386.891 50.2812 387.328 49.75C387.766 49.2109 388.285 48.8008 388.887 48.5195C389.496 48.2305 390.176 48.0859 390.926 48.0859C391.52 48.0859 392.062 48.1719 392.555 48.3438C393.047 48.5156 393.469 48.7891 393.82 49.1641C394.18 49.5391 394.453 50.0352 394.641 50.6523C394.836 51.2695 394.934 52.0234 394.934 52.9141V61H391.535V52.9023C391.535 52.3398 391.457 51.9023 391.301 51.5898C391.145 51.2773 390.914 51.0586 390.609 50.9336C390.312 50.8008 389.945 50.7344 389.508 50.7344C389.055 50.7344 388.66 50.8242 388.324 51.0039C387.996 51.1836 387.723 51.4336 387.504 51.7539C387.293 52.0664 387.133 52.4336 387.023 52.8555C386.914 53.2773 386.859 53.7305 386.859 54.2148ZM403.711 48.3203V50.7109H396.328V48.3203H403.711ZM398.156 45.1914H401.531V57.1797C401.531 57.5469 401.578 57.8281 401.672 58.0234C401.773 58.2188 401.922 58.3555 402.117 58.4336C402.312 58.5039 402.559 58.5391 402.855 58.5391C403.066 58.5391 403.254 58.5312 403.418 58.5156C403.59 58.4922 403.734 58.4688 403.852 58.4453L403.863 60.9297C403.574 61.0234 403.262 61.0977 402.926 61.1523C402.59 61.207 402.219 61.2344 401.812 61.2344C401.07 61.2344 400.422 61.1133 399.867 60.8711C399.32 60.6211 398.898 60.2227 398.602 59.6758C398.305 59.1289 398.156 58.4102 398.156 57.5195V45.1914ZM418.758 46.8555L414.117 61H410.379L416.719 43.9375H419.098L418.758 46.8555ZM422.613 61L417.961 46.8555L417.586 43.9375H419.988L426.363 61H422.613ZM422.402 54.6484V57.4023H413.391V54.6484H422.402ZM430.664 51.0273V61H427.289V48.3203H430.453L430.664 51.0273ZM430.172 54.2148H429.258C429.258 53.2773 429.379 52.4336 429.621 51.6836C429.863 50.9258 430.203 50.2812 430.641 49.75C431.078 49.2109 431.598 48.8008 432.199 48.5195C432.809 48.2305 433.488 48.0859 434.238 48.0859C434.832 48.0859 435.375 48.1719 435.867 48.3438C436.359 48.5156 436.781 48.7891 437.133 49.1641C437.492 49.5391 437.766 50.0352 437.953 50.6523C438.148 51.2695 438.246 52.0234 438.246 52.9141V61H434.848V52.9023C434.848 52.3398 434.77 51.9023 434.613 51.5898C434.457 51.2773 434.227 51.0586 433.922 50.9336C433.625 50.8008 433.258 50.7344 432.82 50.7344C432.367 50.7344 431.973 50.8242 431.637 51.0039C431.309 51.1836 431.035 51.4336 430.816 51.7539C430.605 52.0664 430.445 52.4336 430.336 52.8555C430.227 53.2773 430.172 53.7305 430.172 54.2148ZM447.656 58.1406V52.4922C447.656 52.0859 447.59 51.7383 447.457 51.4492C447.324 51.1523 447.117 50.9219 446.836 50.7578C446.562 50.5938 446.207 50.5117 445.77 50.5117C445.395 50.5117 445.07 50.5781 444.797 50.7109C444.523 50.8359 444.312 51.0195 444.164 51.2617C444.016 51.4961 443.941 51.7734 443.941 52.0938H440.566C440.566 51.5547 440.691 51.043 440.941 50.5586C441.191 50.0742 441.555 49.6484 442.031 49.2812C442.508 48.9062 443.074 48.6133 443.73 48.4023C444.395 48.1914 445.137 48.0859 445.957 48.0859C446.941 48.0859 447.816 48.25 448.582 48.5781C449.348 48.9062 449.949 49.3984 450.387 50.0547C450.832 50.7109 451.055 51.5312 451.055 52.5156V57.9414C451.055 58.6367 451.098 59.207 451.184 59.6523C451.27 60.0898 451.395 60.4727 451.559 60.8008V61H448.148C447.984 60.6562 447.859 60.2266 447.773 59.7109C447.695 59.1875 447.656 58.6641 447.656 58.1406ZM448.102 53.2773L448.125 55.1875H446.238C445.793 55.1875 445.406 55.2383 445.078 55.3398C444.75 55.4414 444.48 55.5859 444.27 55.7734C444.059 55.9531 443.902 56.1641 443.801 56.4062C443.707 56.6484 443.66 56.9141 443.66 57.2031C443.66 57.4922 443.727 57.7539 443.859 57.9883C443.992 58.2148 444.184 58.3945 444.434 58.5273C444.684 58.6523 444.977 58.7148 445.312 58.7148C445.82 58.7148 446.262 58.6133 446.637 58.4102C447.012 58.207 447.301 57.957 447.504 57.6602C447.715 57.3633 447.824 57.082 447.832 56.8164L448.723 58.2461C448.598 58.5664 448.426 58.8984 448.207 59.2422C447.996 59.5859 447.727 59.9102 447.398 60.2148C447.07 60.5117 446.676 60.7578 446.215 60.9531C445.754 61.1406 445.207 61.2344 444.574 61.2344C443.77 61.2344 443.039 61.0742 442.383 60.7539C441.734 60.4258 441.219 59.9766 440.836 59.4062C440.461 58.8281 440.273 58.1719 440.273 57.4375C440.273 56.7734 440.398 56.1836 440.648 55.668C440.898 55.1523 441.266 54.7188 441.75 54.3672C442.242 54.0078 442.855 53.7383 443.59 53.5586C444.324 53.3711 445.176 53.2773 446.145 53.2773H448.102ZM457.219 43V61H453.832V43H457.219ZM463.77 59.5703L467.133 48.3203H470.754L465.656 62.9102C465.547 63.2305 465.398 63.5742 465.211 63.9414C465.031 64.3086 464.785 64.6562 464.473 64.9844C464.168 65.3203 463.781 65.5938 463.312 65.8047C462.852 66.0156 462.285 66.1211 461.613 66.1211C461.293 66.1211 461.031 66.1016 460.828 66.0625C460.625 66.0234 460.383 65.9688 460.102 65.8984V63.4258C460.188 63.4258 460.277 63.4258 460.371 63.4258C460.465 63.4336 460.555 63.4375 460.641 63.4375C461.086 63.4375 461.449 63.3867 461.73 63.2852C462.012 63.1836 462.238 63.0273 462.41 62.8164C462.582 62.6133 462.719 62.3477 462.82 62.0195L463.77 59.5703ZM462.363 48.3203L465.117 57.5078L465.598 61.082L463.301 61.3281L458.742 48.3203H462.363ZM478.957 57.4961C478.957 57.2539 478.887 57.0352 478.746 56.8398C478.605 56.6445 478.344 56.4648 477.961 56.3008C477.586 56.1289 477.043 55.9727 476.332 55.832C475.691 55.6914 475.094 55.5156 474.539 55.3047C473.992 55.0859 473.516 54.8242 473.109 54.5195C472.711 54.2148 472.398 53.8555 472.172 53.4414C471.945 53.0195 471.832 52.5391 471.832 52C471.832 51.4688 471.945 50.9688 472.172 50.5C472.406 50.0312 472.738 49.6172 473.168 49.2578C473.605 48.8906 474.137 48.6055 474.762 48.4023C475.395 48.1914 476.105 48.0859 476.895 48.0859C477.996 48.0859 478.941 48.2617 479.73 48.6133C480.527 48.9648 481.137 49.4492 481.559 50.0664C481.988 50.6758 482.203 51.3711 482.203 52.1523H478.828C478.828 51.8242 478.758 51.5312 478.617 51.2734C478.484 51.0078 478.273 50.8008 477.984 50.6523C477.703 50.4961 477.336 50.418 476.883 50.418C476.508 50.418 476.184 50.4844 475.91 50.6172C475.637 50.7422 475.426 50.9141 475.277 51.1328C475.137 51.3438 475.066 51.5781 475.066 51.8359C475.066 52.0312 475.105 52.207 475.184 52.3633C475.27 52.5117 475.406 52.6484 475.594 52.7734C475.781 52.8984 476.023 53.0156 476.32 53.125C476.625 53.2266 477 53.3203 477.445 53.4062C478.359 53.5938 479.176 53.8398 479.895 54.1445C480.613 54.4414 481.184 54.8477 481.605 55.3633C482.027 55.8711 482.238 56.5391 482.238 57.3672C482.238 57.9297 482.113 58.4453 481.863 58.9141C481.613 59.3828 481.254 59.793 480.785 60.1445C480.316 60.4883 479.754 60.7578 479.098 60.9531C478.449 61.1406 477.719 61.2344 476.906 61.2344C475.727 61.2344 474.727 61.0234 473.906 60.6016C473.094 60.1797 472.477 59.6445 472.055 58.9961C471.641 58.3398 471.434 57.668 471.434 56.9805H474.633C474.648 57.4414 474.766 57.8125 474.984 58.0938C475.211 58.375 475.496 58.5781 475.84 58.7031C476.191 58.8281 476.57 58.8906 476.977 58.8906C477.414 58.8906 477.777 58.832 478.066 58.7148C478.355 58.5898 478.574 58.4258 478.723 58.2227C478.879 58.0117 478.957 57.7695 478.957 57.4961ZM487.992 48.3203V61H484.605V48.3203H487.992ZM484.395 45.0156C484.395 44.5234 484.566 44.1172 484.91 43.7969C485.254 43.4766 485.715 43.3164 486.293 43.3164C486.863 43.3164 487.32 43.4766 487.664 43.7969C488.016 44.1172 488.191 44.5234 488.191 45.0156C488.191 45.5078 488.016 45.9141 487.664 46.2344C487.32 46.5547 486.863 46.7148 486.293 46.7148C485.715 46.7148 485.254 46.5547 484.91 46.2344C484.566 45.9141 484.395 45.5078 484.395 45.0156ZM497.637 57.4961C497.637 57.2539 497.566 57.0352 497.426 56.8398C497.285 56.6445 497.023 56.4648 496.641 56.3008C496.266 56.1289 495.723 55.9727 495.012 55.832C494.371 55.6914 493.773 55.5156 493.219 55.3047C492.672 55.0859 492.195 54.8242 491.789 54.5195C491.391 54.2148 491.078 53.8555 490.852 53.4414C490.625 53.0195 490.512 52.5391 490.512 52C490.512 51.4688 490.625 50.9688 490.852 50.5C491.086 50.0312 491.418 49.6172 491.848 49.2578C492.285 48.8906 492.816 48.6055 493.441 48.4023C494.074 48.1914 494.785 48.0859 495.574 48.0859C496.676 48.0859 497.621 48.2617 498.41 48.6133C499.207 48.9648 499.816 49.4492 500.238 50.0664C500.668 50.6758 500.883 51.3711 500.883 52.1523H497.508C497.508 51.8242 497.438 51.5312 497.297 51.2734C497.164 51.0078 496.953 50.8008 496.664 50.6523C496.383 50.4961 496.016 50.418 495.562 50.418C495.188 50.418 494.863 50.4844 494.59 50.6172C494.316 50.7422 494.105 50.9141 493.957 51.1328C493.816 51.3438 493.746 51.5781 493.746 51.8359C493.746 52.0312 493.785 52.207 493.863 52.3633C493.949 52.5117 494.086 52.6484 494.273 52.7734C494.461 52.8984 494.703 53.0156 495 53.125C495.305 53.2266 495.68 53.3203 496.125 53.4062C497.039 53.5938 497.855 53.8398 498.574 54.1445C499.293 54.4414 499.863 54.8477 500.285 55.3633C500.707 55.8711 500.918 56.5391 500.918 57.3672C500.918 57.9297 500.793 58.4453 500.543 58.9141C500.293 59.3828 499.934 59.793 499.465 60.1445C498.996 60.4883 498.434 60.7578 497.777 60.9531C497.129 61.1406 496.398 61.2344 495.586 61.2344C494.406 61.2344 493.406 61.0234 492.586 60.6016C491.773 60.1797 491.156 59.6445 490.734 58.9961C490.32 58.3398 490.113 57.668 490.113 56.9805H493.312C493.328 57.4414 493.445 57.8125 493.664 58.0938C493.891 58.375 494.176 58.5781 494.52 58.7031C494.871 58.8281 495.25 58.8906 495.656 58.8906C496.094 58.8906 496.457 58.832 496.746 58.7148C497.035 58.5898 497.254 58.4258 497.402 58.2227C497.559 58.0117 497.637 57.7695 497.637 57.4961ZM506.484 50.7578V65.875H503.109V48.3203H506.238L506.484 50.7578ZM514.512 54.5195V54.7656C514.512 55.6875 514.402 56.543 514.184 57.332C513.973 58.1211 513.66 58.8086 513.246 59.3945C512.832 59.9727 512.316 60.4258 511.699 60.7539C511.09 61.0742 510.387 61.2344 509.59 61.2344C508.816 61.2344 508.145 61.0781 507.574 60.7656C507.004 60.4531 506.523 60.0156 506.133 59.4531C505.75 58.8828 505.441 58.2227 505.207 57.4727C504.973 56.7227 504.793 55.918 504.668 55.0586V54.4141C504.793 53.4922 504.973 52.6484 505.207 51.8828C505.441 51.1094 505.75 50.4414 506.133 49.8789C506.523 49.3086 507 48.8672 507.562 48.5547C508.133 48.2422 508.801 48.0859 509.566 48.0859C510.371 48.0859 511.078 48.2383 511.688 48.543C512.305 48.8477 512.82 49.2852 513.234 49.8555C513.656 50.4258 513.973 51.1055 514.184 51.8945C514.402 52.6836 514.512 53.5586 514.512 54.5195ZM511.125 54.7656V54.5195C511.125 53.9805 511.078 53.4844 510.984 53.0312C510.898 52.5703 510.758 52.168 510.562 51.8242C510.375 51.4805 510.125 51.2148 509.812 51.0273C509.508 50.832 509.137 50.7344 508.699 50.7344C508.238 50.7344 507.844 50.8086 507.516 50.957C507.195 51.1055 506.934 51.3203 506.73 51.6016C506.527 51.8828 506.375 52.2188 506.273 52.6094C506.172 53 506.109 53.4414 506.086 53.9336V55.5625C506.125 56.1406 506.234 56.6602 506.414 57.1211C506.594 57.5742 506.871 57.9336 507.246 58.1992C507.621 58.4648 508.113 58.5977 508.723 58.5977C509.168 58.5977 509.543 58.5 509.848 58.3047C510.152 58.1016 510.398 57.8242 510.586 57.4727C510.781 57.1211 510.918 56.7148 510.996 56.2539C511.082 55.793 511.125 55.2969 511.125 54.7656ZM519.984 51.0859V61H516.609V48.3203H519.785L519.984 51.0859ZM523.805 48.2383L523.746 51.3672C523.582 51.3438 523.383 51.3242 523.148 51.3086C522.922 51.2852 522.715 51.2734 522.527 51.2734C522.051 51.2734 521.637 51.3359 521.285 51.4609C520.941 51.5781 520.652 51.7539 520.418 51.9883C520.191 52.2227 520.02 52.5078 519.902 52.8438C519.793 53.1797 519.73 53.5625 519.715 53.9922L519.035 53.7812C519.035 52.9609 519.117 52.207 519.281 51.5195C519.445 50.8242 519.684 50.2188 519.996 49.7031C520.316 49.1875 520.707 48.7891 521.168 48.5078C521.629 48.2266 522.156 48.0859 522.75 48.0859C522.938 48.0859 523.129 48.1016 523.324 48.1328C523.52 48.1562 523.68 48.1914 523.805 48.2383ZM531 61.2344C530.016 61.2344 529.133 61.0781 528.352 60.7656C527.57 60.4453 526.906 60.0039 526.359 59.4414C525.82 58.8789 525.406 58.2266 525.117 57.4844C524.828 56.7344 524.684 55.9375 524.684 55.0938V54.625C524.684 53.6641 524.82 52.7852 525.094 51.9883C525.367 51.1914 525.758 50.5 526.266 49.9141C526.781 49.3281 527.406 48.8789 528.141 48.5664C528.875 48.2461 529.703 48.0859 530.625 48.0859C531.523 48.0859 532.32 48.2344 533.016 48.5312C533.711 48.8281 534.293 49.25 534.762 49.7969C535.238 50.3438 535.598 51 535.84 51.7656C536.082 52.5234 536.203 53.3672 536.203 54.2969V55.7031H526.125V53.4531H532.887V53.1953C532.887 52.7266 532.801 52.3086 532.629 51.9414C532.465 51.5664 532.215 51.2695 531.879 51.0508C531.543 50.832 531.113 50.7227 530.59 50.7227C530.145 50.7227 529.762 50.8203 529.441 51.0156C529.121 51.2109 528.859 51.4844 528.656 51.8359C528.461 52.1875 528.312 52.6016 528.211 53.0781C528.117 53.5469 528.07 54.0625 528.07 54.625V55.0938C528.07 55.6016 528.141 56.0703 528.281 56.5C528.43 56.9297 528.637 57.3008 528.902 57.6133C529.176 57.9258 529.504 58.168 529.887 58.3398C530.277 58.5117 530.719 58.5977 531.211 58.5977C531.82 58.5977 532.387 58.4805 532.91 58.2461C533.441 58.0039 533.898 57.6406 534.281 57.1562L535.922 58.9375C535.656 59.3203 535.293 59.6875 534.832 60.0391C534.379 60.3906 533.832 60.6797 533.191 60.9062C532.551 61.125 531.82 61.2344 531 61.2344ZM544.98 57.4961C544.98 57.2539 544.91 57.0352 544.77 56.8398C544.629 56.6445 544.367 56.4648 543.984 56.3008C543.609 56.1289 543.066 55.9727 542.355 55.832C541.715 55.6914 541.117 55.5156 540.562 55.3047C540.016 55.0859 539.539 54.8242 539.133 54.5195C538.734 54.2148 538.422 53.8555 538.195 53.4414C537.969 53.0195 537.855 52.5391 537.855 52C537.855 51.4688 537.969 50.9688 538.195 50.5C538.43 50.0312 538.762 49.6172 539.191 49.2578C539.629 48.8906 540.16 48.6055 540.785 48.4023C541.418 48.1914 542.129 48.0859 542.918 48.0859C544.02 48.0859 544.965 48.2617 545.754 48.6133C546.551 48.9648 547.16 49.4492 547.582 50.0664C548.012 50.6758 548.227 51.3711 548.227 52.1523H544.852C544.852 51.8242 544.781 51.5312 544.641 51.2734C544.508 51.0078 544.297 50.8008 544.008 50.6523C543.727 50.4961 543.359 50.418 542.906 50.418C542.531 50.418 542.207 50.4844 541.934 50.6172C541.66 50.7422 541.449 50.9141 541.301 51.1328C541.16 51.3438 541.09 51.5781 541.09 51.8359C541.09 52.0312 541.129 52.207 541.207 52.3633C541.293 52.5117 541.43 52.6484 541.617 52.7734C541.805 52.8984 542.047 53.0156 542.344 53.125C542.648 53.2266 543.023 53.3203 543.469 53.4062C544.383 53.5938 545.199 53.8398 545.918 54.1445C546.637 54.4414 547.207 54.8477 547.629 55.3633C548.051 55.8711 548.262 56.5391 548.262 57.3672C548.262 57.9297 548.137 58.4453 547.887 58.9141C547.637 59.3828 547.277 59.793 546.809 60.1445C546.34 60.4883 545.777 60.7578 545.121 60.9531C544.473 61.1406 543.742 61.2344 542.93 61.2344C541.75 61.2344 540.75 61.0234 539.93 60.6016C539.117 60.1797 538.5 59.6445 538.078 58.9961C537.664 58.3398 537.457 57.668 537.457 56.9805H540.656C540.672 57.4414 540.789 57.8125 541.008 58.0938C541.234 58.375 541.52 58.5781 541.863 58.7031C542.215 58.8281 542.594 58.8906 543 58.8906C543.438 58.8906 543.801 58.832 544.09 58.7148C544.379 58.5898 544.598 58.4258 544.746 58.2227C544.902 58.0117 544.98 57.7695 544.98 57.4961ZM557.309 57.4961C557.309 57.2539 557.238 57.0352 557.098 56.8398C556.957 56.6445 556.695 56.4648 556.312 56.3008C555.938 56.1289 555.395 55.9727 554.684 55.832C554.043 55.6914 553.445 55.5156 552.891 55.3047C552.344 55.0859 551.867 54.8242 551.461 54.5195C551.062 54.2148 550.75 53.8555 550.523 53.4414C550.297 53.0195 550.184 52.5391 550.184 52C550.184 51.4688 550.297 50.9688 550.523 50.5C550.758 50.0312 551.09 49.6172 551.52 49.2578C551.957 48.8906 552.488 48.6055 553.113 48.4023C553.746 48.1914 554.457 48.0859 555.246 48.0859C556.348 48.0859 557.293 48.2617 558.082 48.6133C558.879 48.9648 559.488 49.4492 559.91 50.0664C560.34 50.6758 560.555 51.3711 560.555 52.1523H557.18C557.18 51.8242 557.109 51.5312 556.969 51.2734C556.836 51.0078 556.625 50.8008 556.336 50.6523C556.055 50.4961 555.688 50.418 555.234 50.418C554.859 50.418 554.535 50.4844 554.262 50.6172C553.988 50.7422 553.777 50.9141 553.629 51.1328C553.488 51.3438 553.418 51.5781 553.418 51.8359C553.418 52.0312 553.457 52.207 553.535 52.3633C553.621 52.5117 553.758 52.6484 553.945 52.7734C554.133 52.8984 554.375 53.0156 554.672 53.125C554.977 53.2266 555.352 53.3203 555.797 53.4062C556.711 53.5938 557.527 53.8398 558.246 54.1445C558.965 54.4414 559.535 54.8477 559.957 55.3633C560.379 55.8711 560.59 56.5391 560.59 57.3672C560.59 57.9297 560.465 58.4453 560.215 58.9141C559.965 59.3828 559.605 59.793 559.137 60.1445C558.668 60.4883 558.105 60.7578 557.449 60.9531C556.801 61.1406 556.07 61.2344 555.258 61.2344C554.078 61.2344 553.078 61.0234 552.258 60.6016C551.445 60.1797 550.828 59.6445 550.406 58.9961C549.992 58.3398 549.785 57.668 549.785 56.9805H552.984C553 57.4414 553.117 57.8125 553.336 58.0938C553.562 58.375 553.848 58.5781 554.191 58.7031C554.543 58.8281 554.922 58.8906 555.328 58.8906C555.766 58.8906 556.129 58.832 556.418 58.7148C556.707 58.5898 556.926 58.4258 557.074 58.2227C557.23 58.0117 557.309 57.7695 557.309 57.4961Z" fill="#888888"/>
<path d="M118.594 98.4219V104.75H101.086V98.4219H118.594ZM103.828 84.875V119H95.6016V84.875H103.828ZM124.125 84.875V119H115.922V84.875H124.125ZM127.992 106.578V106.086C127.992 104.227 128.258 102.516 128.789 100.953C129.32 99.375 130.102 98.0078 131.133 96.8516C132.164 95.6953 133.438 94.7969 134.953 94.1562C136.469 93.5 138.219 93.1719 140.203 93.1719C142.203 93.1719 143.961 93.5 145.477 94.1562C147.008 94.7969 148.289 95.6953 149.32 96.8516C150.352 98.0078 151.133 99.375 151.664 100.953C152.195 102.516 152.461 104.227 152.461 106.086V106.578C152.461 108.422 152.195 110.133 151.664 111.711C151.133 113.273 150.352 114.641 149.32 115.812C148.289 116.969 147.016 117.867 145.5 118.508C143.984 119.148 142.234 119.469 140.25 119.469C138.266 119.469 136.508 119.148 134.977 118.508C133.445 117.867 132.164 116.969 131.133 115.812C130.102 114.641 129.32 113.273 128.789 111.711C128.258 110.133 127.992 108.422 127.992 106.578ZM135.891 106.086V106.578C135.891 107.531 135.961 108.422 136.102 109.25C136.242 110.078 136.477 110.805 136.805 111.43C137.133 112.039 137.578 112.516 138.141 112.859C138.703 113.203 139.406 113.375 140.25 113.375C141.078 113.375 141.766 113.203 142.312 112.859C142.875 112.516 143.32 112.039 143.648 111.43C143.977 110.805 144.211 110.078 144.352 109.25C144.492 108.422 144.562 107.531 144.562 106.578V106.086C144.562 105.164 144.492 104.297 144.352 103.484C144.211 102.656 143.977 101.93 143.648 101.305C143.32 100.664 142.875 100.164 142.312 99.8047C141.75 99.4453 141.047 99.2656 140.203 99.2656C139.375 99.2656 138.68 99.4453 138.117 99.8047C137.57 100.164 137.133 100.664 136.805 101.305C136.477 101.93 136.242 102.656 136.102 103.484C135.961 104.297 135.891 105.164 135.891 106.086ZM163.688 111.453L168.375 93.6406H173.32L171.562 102.57L166.922 119H162.961L163.688 111.453ZM161.836 93.6406L164.742 111.312L165.07 119H160.266L154.266 93.6406H161.836ZM177.492 110.938L180.422 93.6406H187.992L182.039 119H177.234L177.492 110.938ZM173.883 93.6406L178.617 111.406L179.344 119H175.336L170.789 102.617L169.102 93.6406H173.883ZM218.297 84.875V119H210.07V84.875H218.297ZM228.562 84.875V91.2266H200.039V84.875H228.562ZM225.773 106.578V106.086C225.773 104.227 226.039 102.516 226.57 100.953C227.102 99.375 227.883 98.0078 228.914 96.8516C229.945 95.6953 231.219 94.7969 232.734 94.1562C234.25 93.5 236 93.1719 237.984 93.1719C239.984 93.1719 241.742 93.5 243.258 94.1562C244.789 94.7969 246.07 95.6953 247.102 96.8516C248.133 98.0078 248.914 99.375 249.445 100.953C249.977 102.516 250.242 104.227 250.242 106.086V106.578C250.242 108.422 249.977 110.133 249.445 111.711C248.914 113.273 248.133 114.641 247.102 115.812C246.07 116.969 244.797 117.867 243.281 118.508C241.766 119.148 240.016 119.469 238.031 119.469C236.047 119.469 234.289 119.148 232.758 118.508C231.227 117.867 229.945 116.969 228.914 115.812C227.883 114.641 227.102 113.273 226.57 111.711C226.039 110.133 225.773 108.422 225.773 106.578ZM233.672 106.086V106.578C233.672 107.531 233.742 108.422 233.883 109.25C234.023 110.078 234.258 110.805 234.586 111.43C234.914 112.039 235.359 112.516 235.922 112.859C236.484 113.203 237.188 113.375 238.031 113.375C238.859 113.375 239.547 113.203 240.094 112.859C240.656 112.516 241.102 112.039 241.43 111.43C241.758 110.805 241.992 110.078 242.133 109.25C242.273 108.422 242.344 107.531 242.344 106.578V106.086C242.344 105.164 242.273 104.297 242.133 103.484C241.992 102.656 241.758 101.93 241.43 101.305C241.102 100.664 240.656 100.164 240.094 99.8047C239.531 99.4453 238.828 99.2656 237.984 99.2656C237.156 99.2656 236.461 99.4453 235.898 99.8047C235.352 100.164 234.914 100.664 234.586 101.305C234.258 101.93 234.023 102.656 233.883 103.484C233.742 104.297 233.672 105.164 233.672 106.086ZM266.086 84.875H279.516C282.141 84.875 284.422 85.2656 286.359 86.0469C288.297 86.8281 289.789 87.9844 290.836 89.5156C291.898 91.0469 292.43 92.9375 292.43 95.1875C292.43 97.1406 292.125 98.7734 291.516 100.086C290.906 101.398 290.055 102.484 288.961 103.344C287.883 104.188 286.625 104.883 285.188 105.43L282.492 106.953H271.219L271.172 100.602H279.516C280.562 100.602 281.43 100.414 282.117 100.039C282.805 99.6641 283.32 99.1328 283.664 98.4453C284.023 97.7422 284.203 96.9062 284.203 95.9375C284.203 94.9531 284.023 94.1094 283.664 93.4062C283.305 92.7031 282.773 92.1641 282.07 91.7891C281.383 91.4141 280.531 91.2266 279.516 91.2266H274.312V119H266.086V84.875ZM284.766 119L277.219 103.906L285.938 103.859L293.578 118.648V119H284.766ZM311.836 112.836V93.6406H319.758V119H312.352L311.836 112.836ZM312.586 107.68L314.648 107.633C314.648 109.336 314.445 110.914 314.039 112.367C313.633 113.805 313.031 115.055 312.234 116.117C311.453 117.18 310.484 118.008 309.328 118.602C308.188 119.18 306.867 119.469 305.367 119.469C304.117 119.469 302.969 119.297 301.922 118.953C300.891 118.594 300 118.039 299.25 117.289C298.5 116.523 297.914 115.547 297.492 114.359C297.086 113.156 296.883 111.719 296.883 110.047V93.6406H304.781V110.094C304.781 110.656 304.852 111.141 304.992 111.547C305.133 111.953 305.336 112.297 305.602 112.578C305.867 112.844 306.195 113.047 306.586 113.188C306.992 113.312 307.453 113.375 307.969 113.375C309.156 113.375 310.086 113.125 310.758 112.625C311.43 112.125 311.898 111.445 312.164 110.586C312.445 109.727 312.586 108.758 312.586 107.68ZM331.875 99.0547V119H323.977V93.6406H331.383L331.875 99.0547ZM330.938 105.453L329.086 105.5C329.086 103.562 329.32 101.836 329.789 100.32C330.258 98.7891 330.922 97.4922 331.781 96.4297C332.641 95.3672 333.664 94.5625 334.852 94.0156C336.055 93.4531 337.391 93.1719 338.859 93.1719C340.031 93.1719 341.102 93.3438 342.07 93.6875C343.055 94.0312 343.898 94.5859 344.602 95.3516C345.32 96.1172 345.867 97.1328 346.242 98.3984C346.633 99.6484 346.828 101.195 346.828 103.039V119H338.883V103.016C338.883 102 338.742 101.227 338.461 100.695C338.18 100.148 337.773 99.7734 337.242 99.5703C336.711 99.3672 336.062 99.2656 335.297 99.2656C334.484 99.2656 333.797 99.4219 333.234 99.7344C332.672 100.047 332.219 100.484 331.875 101.047C331.547 101.594 331.305 102.242 331.148 102.992C331.008 103.742 330.938 104.562 330.938 105.453ZM363.773 108.195H357.047C357.047 106.82 357.141 105.609 357.328 104.562C357.531 103.5 357.875 102.547 358.359 101.703C358.844 100.859 359.5 100.078 360.328 99.3594C361.062 98.75 361.695 98.1641 362.227 97.6016C362.758 97.0391 363.164 96.4688 363.445 95.8906C363.727 95.3125 363.867 94.6953 363.867 94.0391C363.867 93.2266 363.75 92.5625 363.516 92.0469C363.297 91.5312 362.961 91.1484 362.508 90.8984C362.07 90.6328 361.516 90.5 360.844 90.5C360.297 90.5 359.781 90.6328 359.297 90.8984C358.828 91.1641 358.445 91.5781 358.148 92.1406C357.852 92.6875 357.688 93.4141 357.656 94.3203H349.711C349.758 91.9922 350.273 90.1016 351.258 88.6484C352.258 87.1797 353.586 86.1094 355.242 85.4375C356.914 84.75 358.781 84.4062 360.844 84.4062C363.125 84.4062 365.086 84.7578 366.727 85.4609C368.367 86.1641 369.625 87.2109 370.5 88.6016C371.375 89.9766 371.812 91.6719 371.812 93.6875C371.812 95.0312 371.555 96.2031 371.039 97.2031C370.539 98.1875 369.859 99.1094 369 99.9688C368.156 100.812 367.211 101.719 366.164 102.688C365.258 103.484 364.641 104.297 364.312 105.125C363.984 105.938 363.805 106.961 363.773 108.195ZM356.086 115.32C356.086 114.195 356.492 113.258 357.305 112.508C358.117 111.742 359.172 111.359 360.469 111.359C361.766 111.359 362.82 111.742 363.633 112.508C364.445 113.258 364.852 114.195 364.852 115.32C364.852 116.445 364.445 117.391 363.633 118.156C362.82 118.906 361.766 119.281 360.469 119.281C359.172 119.281 358.117 118.906 357.305 118.156C356.492 117.391 356.086 116.445 356.086 115.32Z" fill="black"/>
<path d="M1134 0H1348C1356.28 0 1363 6.71573 1363 15V148C1363 156.284 1356.28 163 1348 163H1134V0Z" fill="#D62828"/>
<path d="M1260.62 78.8078C1263.81 78.8078 1266.93 79.7552 1269.59 81.5302C1272.25 83.3052 1274.32 85.8281 1275.54 88.7798C1276.76 91.7315 1277.08 94.9795 1276.46 98.1131C1275.84 101.247 1274.3 104.125 1272.04 106.384C1269.78 108.643 1266.9 110.182 1263.77 110.805C1260.63 111.428 1257.39 111.108 1254.43 109.886C1251.48 108.663 1248.96 106.593 1247.18 103.936C1245.41 101.28 1244.46 98.1565 1244.46 94.9616C1244.46 90.6774 1246.16 86.5686 1249.19 83.5392C1252.22 80.5097 1256.33 78.8078 1260.62 78.8078ZM1260.62 73.4232C1256.36 73.4232 1252.19 74.6864 1248.65 77.0531C1245.11 79.4198 1242.35 82.7836 1240.72 86.7192C1239.09 90.6549 1238.66 94.9855 1239.49 99.1636C1240.32 103.342 1242.37 107.179 1245.39 110.192C1248.4 113.204 1252.24 115.255 1256.41 116.086C1260.59 116.917 1264.92 116.491 1268.86 114.861C1272.79 113.23 1276.16 110.47 1278.52 106.928C1280.89 103.386 1282.15 99.2215 1282.15 94.9616C1282.15 89.2493 1279.88 83.7709 1275.85 79.7317C1271.81 75.6924 1266.33 73.4232 1260.62 73.4232Z" fill="white"/>
<path d="M1274.08 46.4999H1220.23C1218.8 46.4999 1217.43 47.0672 1216.42 48.0771C1215.41 49.0869 1214.85 50.4565 1214.85 51.8845V105.731C1214.85 107.159 1215.41 108.528 1216.42 109.538C1217.43 110.548 1218.8 111.115 1220.23 111.115H1231V105.731H1220.23V68.0383H1279.46V51.8845C1279.46 50.4565 1278.89 49.0869 1277.88 48.0771C1276.87 47.0672 1275.5 46.4999 1274.08 46.4999ZM1220.23 62.6537V51.8845H1274.08V62.6537H1220.23Z" fill="white"/>
<path d="M1255.23 86.8848V103.039L1268.69 94.9617L1255.23 86.8848Z" fill="white"/>
</svg>
