<svg width="1363" height="163" viewBox="0 0 1363 163" fill="none" xmlns="http://www.w3.org/2000/svg">
<path d="M0 15C0 6.71573 6.71573 0 15 0H37V163H15C6.71573 163 0 156.284 0 148V15Z" fill="#D62828"/>
<rect width="1097" height="163" transform="translate(37)" fill="#F0F0F0"/>
<path d="M101.906 53.9219L94.3945 51.2383V48.0859L104.602 52.375V54.6367L101.906 53.9219ZM94.3945 56.1719L101.918 53.4297L104.602 52.7852V55.0352L94.3945 59.3242V56.1719ZM112.898 43.9375H119.262C120.566 43.9375 121.688 44.1328 122.625 44.5234C123.57 44.9141 124.297 45.4922 124.805 46.2578C125.312 47.0234 125.566 47.9648 125.566 49.082C125.566 49.9961 125.41 50.7812 125.098 51.4375C124.793 52.0859 124.359 52.6289 123.797 53.0664C123.242 53.4961 122.59 53.8398 121.84 54.0977L120.727 54.6836H115.195L115.172 51.9414H119.285C119.902 51.9414 120.414 51.832 120.82 51.6133C121.227 51.3945 121.531 51.0898 121.734 50.6992C121.945 50.3086 122.051 49.8555 122.051 49.3398C122.051 48.793 121.949 48.3203 121.746 47.9219C121.543 47.5234 121.234 47.2188 120.82 47.0078C120.406 46.7969 119.887 46.6914 119.262 46.6914H116.414V61H112.898V43.9375ZM122.438 61L118.547 53.3945L122.262 53.3711L126.199 60.8359V61H122.438ZM133.898 61.2344C132.914 61.2344 132.031 61.0781 131.25 60.7656C130.469 60.4453 129.805 60.0039 129.258 59.4414C128.719 58.8789 128.305 58.2266 128.016 57.4844C127.727 56.7344 127.582 55.9375 127.582 55.0938V54.625C127.582 53.6641 127.719 52.7852 127.992 51.9883C128.266 51.1914 128.656 50.5 129.164 49.9141C129.68 49.3281 130.305 48.8789 131.039 48.5664C131.773 48.2461 132.602 48.0859 133.523 48.0859C134.422 48.0859 135.219 48.2344 135.914 48.5312C136.609 48.8281 137.191 49.25 137.66 49.7969C138.137 50.3438 138.496 51 138.738 51.7656C138.98 52.5234 139.102 53.3672 139.102 54.2969V55.7031H129.023V53.4531H135.785V53.1953C135.785 52.7266 135.699 52.3086 135.527 51.9414C135.363 51.5664 135.113 51.2695 134.777 51.0508C134.441 50.832 134.012 50.7227 133.488 50.7227C133.043 50.7227 132.66 50.8203 132.34 51.0156C132.02 51.2109 131.758 51.4844 131.555 51.8359C131.359 52.1875 131.211 52.6016 131.109 53.0781C131.016 53.5469 130.969 54.0625 130.969 54.625V55.0938C130.969 55.6016 131.039 56.0703 131.18 56.5C131.328 56.9297 131.535 57.3008 131.801 57.6133C132.074 57.9258 132.402 58.168 132.785 58.3398C133.176 58.5117 133.617 58.5977 134.109 58.5977C134.719 58.5977 135.285 58.4805 135.809 58.2461C136.34 58.0039 136.797 57.6406 137.18 57.1562L138.82 58.9375C138.555 59.3203 138.191 59.6875 137.73 60.0391C137.277 60.3906 136.73 60.6797 136.09 60.9062C135.449 61.125 134.719 61.2344 133.898 61.2344ZM147.879 57.4961C147.879 57.2539 147.809 57.0352 147.668 56.8398C147.527 56.6445 147.266 56.4648 146.883 56.3008C146.508 56.1289 145.965 55.9727 145.254 55.832C144.613 55.6914 144.016 55.5156 143.461 55.3047C142.914 55.0859 142.438 54.8242 142.031 54.5195C141.633 54.2148 141.32 53.8555 141.094 53.4414C140.867 53.0195 140.754 52.5391 140.754 52C140.754 51.4688 140.867 50.9688 141.094 50.5C141.328 50.0312 141.66 49.6172 142.09 49.2578C142.527 48.8906 143.059 48.6055 143.684 48.4023C144.316 48.1914 145.027 48.0859 145.816 48.0859C146.918 48.0859 147.863 48.2617 148.652 48.6133C149.449 48.9648 150.059 49.4492 150.48 50.0664C150.91 50.6758 151.125 51.3711 151.125 52.1523H147.75C147.75 51.8242 147.68 51.5312 147.539 51.2734C147.406 51.0078 147.195 50.8008 146.906 50.6523C146.625 50.4961 146.258 50.418 145.805 50.418C145.43 50.418 145.105 50.4844 144.832 50.6172C144.559 50.7422 144.348 50.9141 144.199 51.1328C144.059 51.3438 143.988 51.5781 143.988 51.8359C143.988 52.0312 144.027 52.207 144.105 52.3633C144.191 52.5117 144.328 52.6484 144.516 52.7734C144.703 52.8984 144.945 53.0156 145.242 53.125C145.547 53.2266 145.922 53.3203 146.367 53.4062C147.281 53.5938 148.098 53.8398 148.816 54.1445C149.535 54.4414 150.105 54.8477 150.527 55.3633C150.949 55.8711 151.16 56.5391 151.16 57.3672C151.16 57.9297 151.035 58.4453 150.785 58.9141C150.535 59.3828 150.176 59.793 149.707 60.1445C149.238 60.4883 148.676 60.7578 148.02 60.9531C147.371 61.1406 146.641 61.2344 145.828 61.2344C144.648 61.2344 143.648 61.0234 142.828 60.6016C142.016 60.1797 141.398 59.6445 140.977 58.9961C140.562 58.3398 140.355 57.668 140.355 56.9805H143.555C143.57 57.4414 143.688 57.8125 143.906 58.0938C144.133 58.375 144.418 58.5781 144.762 58.7031C145.113 58.8281 145.492 58.8906 145.898 58.8906C146.336 58.8906 146.699 58.832 146.988 58.7148C147.277 58.5898 147.496 58.4258 147.645 58.2227C147.801 58.0117 147.879 57.7695 147.879 57.4961ZM159.562 48.3203V50.7109H152.18V48.3203H159.562ZM154.008 45.1914H157.383V57.1797C157.383 57.5469 157.43 57.8281 157.523 58.0234C157.625 58.2188 157.773 58.3555 157.969 58.4336C158.164 58.5039 158.41 58.5391 158.707 58.5391C158.918 58.5391 159.105 58.5312 159.27 58.5156C159.441 58.4922 159.586 58.4688 159.703 58.4453L159.715 60.9297C159.426 61.0234 159.113 61.0977 158.777 61.1523C158.441 61.207 158.07 61.2344 157.664 61.2344C156.922 61.2344 156.273 61.1133 155.719 60.8711C155.172 60.6211 154.75 60.2227 154.453 59.6758C154.156 59.1289 154.008 58.4102 154.008 57.5195V45.1914ZM168.328 58.1406V52.4922C168.328 52.0859 168.262 51.7383 168.129 51.4492C167.996 51.1523 167.789 50.9219 167.508 50.7578C167.234 50.5938 166.879 50.5117 166.441 50.5117C166.066 50.5117 165.742 50.5781 165.469 50.7109C165.195 50.8359 164.984 51.0195 164.836 51.2617C164.688 51.4961 164.613 51.7734 164.613 52.0938H161.238C161.238 51.5547 161.363 51.043 161.613 50.5586C161.863 50.0742 162.227 49.6484 162.703 49.2812C163.18 48.9062 163.746 48.6133 164.402 48.4023C165.066 48.1914 165.809 48.0859 166.629 48.0859C167.613 48.0859 168.488 48.25 169.254 48.5781C170.02 48.9062 170.621 49.3984 171.059 50.0547C171.504 50.7109 171.727 51.5312 171.727 52.5156V57.9414C171.727 58.6367 171.77 59.207 171.855 59.6523C171.941 60.0898 172.066 60.4727 172.23 60.8008V61H168.82C168.656 60.6562 168.531 60.2266 168.445 59.7109C168.367 59.1875 168.328 58.6641 168.328 58.1406ZM168.773 53.2773L168.797 55.1875H166.91C166.465 55.1875 166.078 55.2383 165.75 55.3398C165.422 55.4414 165.152 55.5859 164.941 55.7734C164.73 55.9531 164.574 56.1641 164.473 56.4062C164.379 56.6484 164.332 56.9141 164.332 57.2031C164.332 57.4922 164.398 57.7539 164.531 57.9883C164.664 58.2148 164.855 58.3945 165.105 58.5273C165.355 58.6523 165.648 58.7148 165.984 58.7148C166.492 58.7148 166.934 58.6133 167.309 58.4102C167.684 58.207 167.973 57.957 168.176 57.6602C168.387 57.3633 168.496 57.082 168.504 56.8164L169.395 58.2461C169.27 58.5664 169.098 58.8984 168.879 59.2422C168.668 59.5859 168.398 59.9102 168.07 60.2148C167.742 60.5117 167.348 60.7578 166.887 60.9531C166.426 61.1406 165.879 61.2344 165.246 61.2344C164.441 61.2344 163.711 61.0742 163.055 60.7539C162.406 60.4258 161.891 59.9766 161.508 59.4062C161.133 58.8281 160.945 58.1719 160.945 57.4375C160.945 56.7734 161.07 56.1836 161.32 55.668C161.57 55.1523 161.938 54.7188 162.422 54.3672C162.914 54.0078 163.527 53.7383 164.262 53.5586C164.996 53.3711 165.848 53.2773 166.816 53.2773H168.773ZM181.828 57.9648V48.3203H185.203V61H182.027L181.828 57.9648ZM182.203 55.3633L183.199 55.3398C183.199 56.1836 183.102 56.9688 182.906 57.6953C182.711 58.4141 182.418 59.0391 182.027 59.5703C181.637 60.0938 181.145 60.5039 180.551 60.8008C179.957 61.0898 179.258 61.2344 178.453 61.2344C177.836 61.2344 177.266 61.1484 176.742 60.9766C176.227 60.7969 175.781 60.5195 175.406 60.1445C175.039 59.7617 174.75 59.2734 174.539 58.6797C174.336 58.0781 174.234 57.3555 174.234 56.5117V48.3203H177.609V56.5352C177.609 56.9102 177.652 57.2266 177.738 57.4844C177.832 57.7422 177.961 57.9531 178.125 58.1172C178.289 58.2812 178.48 58.3984 178.699 58.4688C178.926 58.5391 179.176 58.5742 179.449 58.5742C180.145 58.5742 180.691 58.4336 181.09 58.1523C181.496 57.8711 181.781 57.4883 181.945 57.0039C182.117 56.5117 182.203 55.9648 182.203 55.3633ZM191.156 51.0859V61H187.781V48.3203H190.957L191.156 51.0859ZM194.977 48.2383L194.918 51.3672C194.754 51.3438 194.555 51.3242 194.32 51.3086C194.094 51.2852 193.887 51.2734 193.699 51.2734C193.223 51.2734 192.809 51.3359 192.457 51.4609C192.113 51.5781 191.824 51.7539 191.59 51.9883C191.363 52.2227 191.191 52.5078 191.074 52.8438C190.965 53.1797 190.902 53.5625 190.887 53.9922L190.207 53.7812C190.207 52.9609 190.289 52.207 190.453 51.5195C190.617 50.8242 190.855 50.2188 191.168 49.7031C191.488 49.1875 191.879 48.7891 192.34 48.5078C192.801 48.2266 193.328 48.0859 193.922 48.0859C194.109 48.0859 194.301 48.1016 194.496 48.1328C194.691 48.1562 194.852 48.1914 194.977 48.2383ZM203.016 58.1406V52.4922C203.016 52.0859 202.949 51.7383 202.816 51.4492C202.684 51.1523 202.477 50.9219 202.195 50.7578C201.922 50.5938 201.566 50.5117 201.129 50.5117C200.754 50.5117 200.43 50.5781 200.156 50.7109C199.883 50.8359 199.672 51.0195 199.523 51.2617C199.375 51.4961 199.301 51.7734 199.301 52.0938H195.926C195.926 51.5547 196.051 51.043 196.301 50.5586C196.551 50.0742 196.914 49.6484 197.391 49.2812C197.867 48.9062 198.434 48.6133 199.09 48.4023C199.754 48.1914 200.496 48.0859 201.316 48.0859C202.301 48.0859 203.176 48.25 203.941 48.5781C204.707 48.9062 205.309 49.3984 205.746 50.0547C206.191 50.7109 206.414 51.5312 206.414 52.5156V57.9414C206.414 58.6367 206.457 59.207 206.543 59.6523C206.629 60.0898 206.754 60.4727 206.918 60.8008V61H203.508C203.344 60.6562 203.219 60.2266 203.133 59.7109C203.055 59.1875 203.016 58.6641 203.016 58.1406ZM203.461 53.2773L203.484 55.1875H201.598C201.152 55.1875 200.766 55.2383 200.438 55.3398C200.109 55.4414 199.84 55.5859 199.629 55.7734C199.418 55.9531 199.262 56.1641 199.16 56.4062C199.066 56.6484 199.02 56.9141 199.02 57.2031C199.02 57.4922 199.086 57.7539 199.219 57.9883C199.352 58.2148 199.543 58.3945 199.793 58.5273C200.043 58.6523 200.336 58.7148 200.672 58.7148C201.18 58.7148 201.621 58.6133 201.996 58.4102C202.371 58.207 202.66 57.957 202.863 57.6602C203.074 57.3633 203.184 57.082 203.191 56.8164L204.082 58.2461C203.957 58.5664 203.785 58.8984 203.566 59.2422C203.355 59.5859 203.086 59.9102 202.758 60.2148C202.43 60.5117 202.035 60.7578 201.574 60.9531C201.113 61.1406 200.566 61.2344 199.934 61.2344C199.129 61.2344 198.398 61.0742 197.742 60.7539C197.094 60.4258 196.578 59.9766 196.195 59.4062C195.82 58.8281 195.633 58.1719 195.633 57.4375C195.633 56.7734 195.758 56.1836 196.008 55.668C196.258 55.1523 196.625 54.7188 197.109 54.3672C197.602 54.0078 198.215 53.7383 198.949 53.5586C199.684 53.3711 200.535 53.2773 201.504 53.2773H203.461ZM212.32 51.0273V61H208.945V48.3203H212.109L212.32 51.0273ZM211.828 54.2148H210.914C210.914 53.2773 211.035 52.4336 211.277 51.6836C211.52 50.9258 211.859 50.2812 212.297 49.75C212.734 49.2109 213.254 48.8008 213.855 48.5195C214.465 48.2305 215.145 48.0859 215.895 48.0859C216.488 48.0859 217.031 48.1719 217.523 48.3438C218.016 48.5156 218.438 48.7891 218.789 49.1641C219.148 49.5391 219.422 50.0352 219.609 50.6523C219.805 51.2695 219.902 52.0234 219.902 52.9141V61H216.504V52.9023C216.504 52.3398 216.426 51.9023 216.27 51.5898C216.113 51.2773 215.883 51.0586 215.578 50.9336C215.281 50.8008 214.914 50.7344 214.477 50.7344C214.023 50.7344 213.629 50.8242 213.293 51.0039C212.965 51.1836 212.691 51.4336 212.473 51.7539C212.262 52.0664 212.102 52.4336 211.992 52.8555C211.883 53.2773 211.828 53.7305 211.828 54.2148ZM228.68 48.3203V50.7109H221.297V48.3203H228.68ZM223.125 45.1914H226.5V57.1797C226.5 57.5469 226.547 57.8281 226.641 58.0234C226.742 58.2188 226.891 58.3555 227.086 58.4336C227.281 58.5039 227.527 58.5391 227.824 58.5391C228.035 58.5391 228.223 58.5312 228.387 58.5156C228.559 58.4922 228.703 58.4688 228.82 58.4453L228.832 60.9297C228.543 61.0234 228.23 61.0977 227.895 61.1523C227.559 61.207 227.188 61.2344 226.781 61.2344C226.039 61.2344 225.391 61.1133 224.836 60.8711C224.289 60.6211 223.867 60.2227 223.57 59.6758C223.273 59.1289 223.125 58.4102 223.125 57.5195V45.1914ZM243.727 46.8555L239.086 61H235.348L241.688 43.9375H244.066L243.727 46.8555ZM247.582 61L242.93 46.8555L242.555 43.9375H244.957L251.332 61H247.582ZM247.371 54.6484V57.4023H238.359V54.6484H247.371ZM255.633 51.0273V61H252.258V48.3203H255.422L255.633 51.0273ZM255.141 54.2148H254.227C254.227 53.2773 254.348 52.4336 254.59 51.6836C254.832 50.9258 255.172 50.2812 255.609 49.75C256.047 49.2109 256.566 48.8008 257.168 48.5195C257.777 48.2305 258.457 48.0859 259.207 48.0859C259.801 48.0859 260.344 48.1719 260.836 48.3438C261.328 48.5156 261.75 48.7891 262.102 49.1641C262.461 49.5391 262.734 50.0352 262.922 50.6523C263.117 51.2695 263.215 52.0234 263.215 52.9141V61H259.816V52.9023C259.816 52.3398 259.738 51.9023 259.582 51.5898C259.426 51.2773 259.195 51.0586 258.891 50.9336C258.594 50.8008 258.227 50.7344 257.789 50.7344C257.336 50.7344 256.941 50.8242 256.605 51.0039C256.277 51.1836 256.004 51.4336 255.785 51.7539C255.574 52.0664 255.414 52.4336 255.305 52.8555C255.195 53.2773 255.141 53.7305 255.141 54.2148ZM272.625 58.1406V52.4922C272.625 52.0859 272.559 51.7383 272.426 51.4492C272.293 51.1523 272.086 50.9219 271.805 50.7578C271.531 50.5938 271.176 50.5117 270.738 50.5117C270.363 50.5117 270.039 50.5781 269.766 50.7109C269.492 50.8359 269.281 51.0195 269.133 51.2617C268.984 51.4961 268.91 51.7734 268.91 52.0938H265.535C265.535 51.5547 265.66 51.043 265.91 50.5586C266.16 50.0742 266.523 49.6484 267 49.2812C267.477 48.9062 268.043 48.6133 268.699 48.4023C269.363 48.1914 270.105 48.0859 270.926 48.0859C271.91 48.0859 272.785 48.25 273.551 48.5781C274.316 48.9062 274.918 49.3984 275.355 50.0547C275.801 50.7109 276.023 51.5312 276.023 52.5156V57.9414C276.023 58.6367 276.066 59.207 276.152 59.6523C276.238 60.0898 276.363 60.4727 276.527 60.8008V61H273.117C272.953 60.6562 272.828 60.2266 272.742 59.7109C272.664 59.1875 272.625 58.6641 272.625 58.1406ZM273.07 53.2773L273.094 55.1875H271.207C270.762 55.1875 270.375 55.2383 270.047 55.3398C269.719 55.4414 269.449 55.5859 269.238 55.7734C269.027 55.9531 268.871 56.1641 268.77 56.4062C268.676 56.6484 268.629 56.9141 268.629 57.2031C268.629 57.4922 268.695 57.7539 268.828 57.9883C268.961 58.2148 269.152 58.3945 269.402 58.5273C269.652 58.6523 269.945 58.7148 270.281 58.7148C270.789 58.7148 271.23 58.6133 271.605 58.4102C271.98 58.207 272.27 57.957 272.473 57.6602C272.684 57.3633 272.793 57.082 272.801 56.8164L273.691 58.2461C273.566 58.5664 273.395 58.8984 273.176 59.2422C272.965 59.5859 272.695 59.9102 272.367 60.2148C272.039 60.5117 271.645 60.7578 271.184 60.9531C270.723 61.1406 270.176 61.2344 269.543 61.2344C268.738 61.2344 268.008 61.0742 267.352 60.7539C266.703 60.4258 266.188 59.9766 265.805 59.4062C265.43 58.8281 265.242 58.1719 265.242 57.4375C265.242 56.7734 265.367 56.1836 265.617 55.668C265.867 55.1523 266.234 54.7188 266.719 54.3672C267.211 54.0078 267.824 53.7383 268.559 53.5586C269.293 53.3711 270.145 53.2773 271.113 53.2773H273.07ZM282.188 43V61H278.801V43H282.188ZM288.738 59.5703L292.102 48.3203H295.723L290.625 62.9102C290.516 63.2305 290.367 63.5742 290.18 63.9414C290 64.3086 289.754 64.6562 289.441 64.9844C289.137 65.3203 288.75 65.5938 288.281 65.8047C287.82 66.0156 287.254 66.1211 286.582 66.1211C286.262 66.1211 286 66.1016 285.797 66.0625C285.594 66.0234 285.352 65.9688 285.07 65.8984V63.4258C285.156 63.4258 285.246 63.4258 285.34 63.4258C285.434 63.4336 285.523 63.4375 285.609 63.4375C286.055 63.4375 286.418 63.3867 286.699 63.2852C286.98 63.1836 287.207 63.0273 287.379 62.8164C287.551 62.6133 287.688 62.3477 287.789 62.0195L288.738 59.5703ZM287.332 48.3203L290.086 57.5078L290.566 61.082L288.27 61.3281L283.711 48.3203H287.332ZM303.926 57.4961C303.926 57.2539 303.855 57.0352 303.715 56.8398C303.574 56.6445 303.312 56.4648 302.93 56.3008C302.555 56.1289 302.012 55.9727 301.301 55.832C300.66 55.6914 300.062 55.5156 299.508 55.3047C298.961 55.0859 298.484 54.8242 298.078 54.5195C297.68 54.2148 297.367 53.8555 297.141 53.4414C296.914 53.0195 296.801 52.5391 296.801 52C296.801 51.4688 296.914 50.9688 297.141 50.5C297.375 50.0312 297.707 49.6172 298.137 49.2578C298.574 48.8906 299.105 48.6055 299.73 48.4023C300.363 48.1914 301.074 48.0859 301.863 48.0859C302.965 48.0859 303.91 48.2617 304.699 48.6133C305.496 48.9648 306.105 49.4492 306.527 50.0664C306.957 50.6758 307.172 51.3711 307.172 52.1523H303.797C303.797 51.8242 303.727 51.5312 303.586 51.2734C303.453 51.0078 303.242 50.8008 302.953 50.6523C302.672 50.4961 302.305 50.418 301.852 50.418C301.477 50.418 301.152 50.4844 300.879 50.6172C300.605 50.7422 300.395 50.9141 300.246 51.1328C300.105 51.3438 300.035 51.5781 300.035 51.8359C300.035 52.0312 300.074 52.207 300.152 52.3633C300.238 52.5117 300.375 52.6484 300.562 52.7734C300.75 52.8984 300.992 53.0156 301.289 53.125C301.594 53.2266 301.969 53.3203 302.414 53.4062C303.328 53.5938 304.145 53.8398 304.863 54.1445C305.582 54.4414 306.152 54.8477 306.574 55.3633C306.996 55.8711 307.207 56.5391 307.207 57.3672C307.207 57.9297 307.082 58.4453 306.832 58.9141C306.582 59.3828 306.223 59.793 305.754 60.1445C305.285 60.4883 304.723 60.7578 304.066 60.9531C303.418 61.1406 302.688 61.2344 301.875 61.2344C300.695 61.2344 299.695 61.0234 298.875 60.6016C298.062 60.1797 297.445 59.6445 297.023 58.9961C296.609 58.3398 296.402 57.668 296.402 56.9805H299.602C299.617 57.4414 299.734 57.8125 299.953 58.0938C300.18 58.375 300.465 58.5781 300.809 58.7031C301.16 58.8281 301.539 58.8906 301.945 58.8906C302.383 58.8906 302.746 58.832 303.035 58.7148C303.324 58.5898 303.543 58.4258 303.691 58.2227C303.848 58.0117 303.926 57.7695 303.926 57.4961ZM312.961 48.3203V61H309.574V48.3203H312.961ZM309.363 45.0156C309.363 44.5234 309.535 44.1172 309.879 43.7969C310.223 43.4766 310.684 43.3164 311.262 43.3164C311.832 43.3164 312.289 43.4766 312.633 43.7969C312.984 44.1172 313.16 44.5234 313.16 45.0156C313.16 45.5078 312.984 45.9141 312.633 46.2344C312.289 46.5547 311.832 46.7148 311.262 46.7148C310.684 46.7148 310.223 46.5547 309.879 46.2344C309.535 45.9141 309.363 45.5078 309.363 45.0156ZM322.605 57.4961C322.605 57.2539 322.535 57.0352 322.395 56.8398C322.254 56.6445 321.992 56.4648 321.609 56.3008C321.234 56.1289 320.691 55.9727 319.98 55.832C319.34 55.6914 318.742 55.5156 318.188 55.3047C317.641 55.0859 317.164 54.8242 316.758 54.5195C316.359 54.2148 316.047 53.8555 315.82 53.4414C315.594 53.0195 315.48 52.5391 315.48 52C315.48 51.4688 315.594 50.9688 315.82 50.5C316.055 50.0312 316.387 49.6172 316.816 49.2578C317.254 48.8906 317.785 48.6055 318.41 48.4023C319.043 48.1914 319.754 48.0859 320.543 48.0859C321.645 48.0859 322.59 48.2617 323.379 48.6133C324.176 48.9648 324.785 49.4492 325.207 50.0664C325.637 50.6758 325.852 51.3711 325.852 52.1523H322.477C322.477 51.8242 322.406 51.5312 322.266 51.2734C322.133 51.0078 321.922 50.8008 321.633 50.6523C321.352 50.4961 320.984 50.418 320.531 50.418C320.156 50.418 319.832 50.4844 319.559 50.6172C319.285 50.7422 319.074 50.9141 318.926 51.1328C318.785 51.3438 318.715 51.5781 318.715 51.8359C318.715 52.0312 318.754 52.207 318.832 52.3633C318.918 52.5117 319.055 52.6484 319.242 52.7734C319.43 52.8984 319.672 53.0156 319.969 53.125C320.273 53.2266 320.648 53.3203 321.094 53.4062C322.008 53.5938 322.824 53.8398 323.543 54.1445C324.262 54.4414 324.832 54.8477 325.254 55.3633C325.676 55.8711 325.887 56.5391 325.887 57.3672C325.887 57.9297 325.762 58.4453 325.512 58.9141C325.262 59.3828 324.902 59.793 324.434 60.1445C323.965 60.4883 323.402 60.7578 322.746 60.9531C322.098 61.1406 321.367 61.2344 320.555 61.2344C319.375 61.2344 318.375 61.0234 317.555 60.6016C316.742 60.1797 316.125 59.6445 315.703 58.9961C315.289 58.3398 315.082 57.668 315.082 56.9805H318.281C318.297 57.4414 318.414 57.8125 318.633 58.0938C318.859 58.375 319.145 58.5781 319.488 58.7031C319.84 58.8281 320.219 58.8906 320.625 58.8906C321.062 58.8906 321.426 58.832 321.715 58.7148C322.004 58.5898 322.223 58.4258 322.371 58.2227C322.527 58.0117 322.605 57.7695 322.605 57.4961ZM331.453 50.7578V65.875H328.078V48.3203H331.207L331.453 50.7578ZM339.48 54.5195V54.7656C339.48 55.6875 339.371 56.543 339.152 57.332C338.941 58.1211 338.629 58.8086 338.215 59.3945C337.801 59.9727 337.285 60.4258 336.668 60.7539C336.059 61.0742 335.355 61.2344 334.559 61.2344C333.785 61.2344 333.113 61.0781 332.543 60.7656C331.973 60.4531 331.492 60.0156 331.102 59.4531C330.719 58.8828 330.41 58.2227 330.176 57.4727C329.941 56.7227 329.762 55.918 329.637 55.0586V54.4141C329.762 53.4922 329.941 52.6484 330.176 51.8828C330.41 51.1094 330.719 50.4414 331.102 49.8789C331.492 49.3086 331.969 48.8672 332.531 48.5547C333.102 48.2422 333.77 48.0859 334.535 48.0859C335.34 48.0859 336.047 48.2383 336.656 48.543C337.273 48.8477 337.789 49.2852 338.203 49.8555C338.625 50.4258 338.941 51.1055 339.152 51.8945C339.371 52.6836 339.48 53.5586 339.48 54.5195ZM336.094 54.7656V54.5195C336.094 53.9805 336.047 53.4844 335.953 53.0312C335.867 52.5703 335.727 52.168 335.531 51.8242C335.344 51.4805 335.094 51.2148 334.781 51.0273C334.477 50.832 334.105 50.7344 333.668 50.7344C333.207 50.7344 332.812 50.8086 332.484 50.957C332.164 51.1055 331.902 51.3203 331.699 51.6016C331.496 51.8828 331.344 52.2188 331.242 52.6094C331.141 53 331.078 53.4414 331.055 53.9336V55.5625C331.094 56.1406 331.203 56.6602 331.383 57.1211C331.562 57.5742 331.84 57.9336 332.215 58.1992C332.59 58.4648 333.082 58.5977 333.691 58.5977C334.137 58.5977 334.512 58.5 334.816 58.3047C335.121 58.1016 335.367 57.8242 335.555 57.4727C335.75 57.1211 335.887 56.7148 335.965 56.2539C336.051 55.793 336.094 55.2969 336.094 54.7656ZM344.953 51.0859V61H341.578V48.3203H344.754L344.953 51.0859ZM348.773 48.2383L348.715 51.3672C348.551 51.3438 348.352 51.3242 348.117 51.3086C347.891 51.2852 347.684 51.2734 347.496 51.2734C347.02 51.2734 346.605 51.3359 346.254 51.4609C345.91 51.5781 345.621 51.7539 345.387 51.9883C345.16 52.2227 344.988 52.5078 344.871 52.8438C344.762 53.1797 344.699 53.5625 344.684 53.9922L344.004 53.7812C344.004 52.9609 344.086 52.207 344.25 51.5195C344.414 50.8242 344.652 50.2188 344.965 49.7031C345.285 49.1875 345.676 48.7891 346.137 48.5078C346.598 48.2266 347.125 48.0859 347.719 48.0859C347.906 48.0859 348.098 48.1016 348.293 48.1328C348.488 48.1562 348.648 48.1914 348.773 48.2383ZM355.969 61.2344C354.984 61.2344 354.102 61.0781 353.32 60.7656C352.539 60.4453 351.875 60.0039 351.328 59.4414C350.789 58.8789 350.375 58.2266 350.086 57.4844C349.797 56.7344 349.652 55.9375 349.652 55.0938V54.625C349.652 53.6641 349.789 52.7852 350.062 51.9883C350.336 51.1914 350.727 50.5 351.234 49.9141C351.75 49.3281 352.375 48.8789 353.109 48.5664C353.844 48.2461 354.672 48.0859 355.594 48.0859C356.492 48.0859 357.289 48.2344 357.984 48.5312C358.68 48.8281 359.262 49.25 359.73 49.7969C360.207 50.3438 360.566 51 360.809 51.7656C361.051 52.5234 361.172 53.3672 361.172 54.2969V55.7031H351.094V53.4531H357.855V53.1953C357.855 52.7266 357.77 52.3086 357.598 51.9414C357.434 51.5664 357.184 51.2695 356.848 51.0508C356.512 50.832 356.082 50.7227 355.559 50.7227C355.113 50.7227 354.73 50.8203 354.41 51.0156C354.09 51.2109 353.828 51.4844 353.625 51.8359C353.43 52.1875 353.281 52.6016 353.18 53.0781C353.086 53.5469 353.039 54.0625 353.039 54.625V55.0938C353.039 55.6016 353.109 56.0703 353.25 56.5C353.398 56.9297 353.605 57.3008 353.871 57.6133C354.145 57.9258 354.473 58.168 354.855 58.3398C355.246 58.5117 355.688 58.5977 356.18 58.5977C356.789 58.5977 357.355 58.4805 357.879 58.2461C358.41 58.0039 358.867 57.6406 359.25 57.1562L360.891 58.9375C360.625 59.3203 360.262 59.6875 359.801 60.0391C359.348 60.3906 358.801 60.6797 358.16 60.9062C357.52 61.125 356.789 61.2344 355.969 61.2344ZM369.949 57.4961C369.949 57.2539 369.879 57.0352 369.738 56.8398C369.598 56.6445 369.336 56.4648 368.953 56.3008C368.578 56.1289 368.035 55.9727 367.324 55.832C366.684 55.6914 366.086 55.5156 365.531 55.3047C364.984 55.0859 364.508 54.8242 364.102 54.5195C363.703 54.2148 363.391 53.8555 363.164 53.4414C362.938 53.0195 362.824 52.5391 362.824 52C362.824 51.4688 362.938 50.9688 363.164 50.5C363.398 50.0312 363.73 49.6172 364.16 49.2578C364.598 48.8906 365.129 48.6055 365.754 48.4023C366.387 48.1914 367.098 48.0859 367.887 48.0859C368.988 48.0859 369.934 48.2617 370.723 48.6133C371.52 48.9648 372.129 49.4492 372.551 50.0664C372.98 50.6758 373.195 51.3711 373.195 52.1523H369.82C369.82 51.8242 369.75 51.5312 369.609 51.2734C369.477 51.0078 369.266 50.8008 368.977 50.6523C368.695 50.4961 368.328 50.418 367.875 50.418C367.5 50.418 367.176 50.4844 366.902 50.6172C366.629 50.7422 366.418 50.9141 366.27 51.1328C366.129 51.3438 366.059 51.5781 366.059 51.8359C366.059 52.0312 366.098 52.207 366.176 52.3633C366.262 52.5117 366.398 52.6484 366.586 52.7734C366.773 52.8984 367.016 53.0156 367.312 53.125C367.617 53.2266 367.992 53.3203 368.438 53.4062C369.352 53.5938 370.168 53.8398 370.887 54.1445C371.605 54.4414 372.176 54.8477 372.598 55.3633C373.02 55.8711 373.23 56.5391 373.23 57.3672C373.23 57.9297 373.105 58.4453 372.855 58.9141C372.605 59.3828 372.246 59.793 371.777 60.1445C371.309 60.4883 370.746 60.7578 370.09 60.9531C369.441 61.1406 368.711 61.2344 367.898 61.2344C366.719 61.2344 365.719 61.0234 364.898 60.6016C364.086 60.1797 363.469 59.6445 363.047 58.9961C362.633 58.3398 362.426 57.668 362.426 56.9805H365.625C365.641 57.4414 365.758 57.8125 365.977 58.0938C366.203 58.375 366.488 58.5781 366.832 58.7031C367.184 58.8281 367.562 58.8906 367.969 58.8906C368.406 58.8906 368.77 58.832 369.059 58.7148C369.348 58.5898 369.566 58.4258 369.715 58.2227C369.871 58.0117 369.949 57.7695 369.949 57.4961ZM382.277 57.4961C382.277 57.2539 382.207 57.0352 382.066 56.8398C381.926 56.6445 381.664 56.4648 381.281 56.3008C380.906 56.1289 380.363 55.9727 379.652 55.832C379.012 55.6914 378.414 55.5156 377.859 55.3047C377.312 55.0859 376.836 54.8242 376.43 54.5195C376.031 54.2148 375.719 53.8555 375.492 53.4414C375.266 53.0195 375.152 52.5391 375.152 52C375.152 51.4688 375.266 50.9688 375.492 50.5C375.727 50.0312 376.059 49.6172 376.488 49.2578C376.926 48.8906 377.457 48.6055 378.082 48.4023C378.715 48.1914 379.426 48.0859 380.215 48.0859C381.316 48.0859 382.262 48.2617 383.051 48.6133C383.848 48.9648 384.457 49.4492 384.879 50.0664C385.309 50.6758 385.523 51.3711 385.523 52.1523H382.148C382.148 51.8242 382.078 51.5312 381.938 51.2734C381.805 51.0078 381.594 50.8008 381.305 50.6523C381.023 50.4961 380.656 50.418 380.203 50.418C379.828 50.418 379.504 50.4844 379.23 50.6172C378.957 50.7422 378.746 50.9141 378.598 51.1328C378.457 51.3438 378.387 51.5781 378.387 51.8359C378.387 52.0312 378.426 52.207 378.504 52.3633C378.59 52.5117 378.727 52.6484 378.914 52.7734C379.102 52.8984 379.344 53.0156 379.641 53.125C379.945 53.2266 380.32 53.3203 380.766 53.4062C381.68 53.5938 382.496 53.8398 383.215 54.1445C383.934 54.4414 384.504 54.8477 384.926 55.3633C385.348 55.8711 385.559 56.5391 385.559 57.3672C385.559 57.9297 385.434 58.4453 385.184 58.9141C384.934 59.3828 384.574 59.793 384.105 60.1445C383.637 60.4883 383.074 60.7578 382.418 60.9531C381.77 61.1406 381.039 61.2344 380.227 61.2344C379.047 61.2344 378.047 61.0234 377.227 60.6016C376.414 60.1797 375.797 59.6445 375.375 58.9961C374.961 58.3398 374.754 57.668 374.754 56.9805H377.953C377.969 57.4414 378.086 57.8125 378.305 58.0938C378.531 58.375 378.816 58.5781 379.16 58.7031C379.512 58.8281 379.891 58.8906 380.297 58.8906C380.734 58.8906 381.098 58.832 381.387 58.7148C381.676 58.5898 381.895 58.4258 382.043 58.2227C382.199 58.0117 382.277 57.7695 382.277 57.4961Z" fill="#888888"/>
<path d="M109.219 107.422H100.734V101.07H109.219C110.375 101.07 111.312 100.875 112.031 100.484C112.75 100.094 113.273 99.5547 113.602 98.8672C113.945 98.1641 114.117 97.375 114.117 96.5C114.117 95.5625 113.945 94.6953 113.602 93.8984C113.273 93.1016 112.75 92.4609 112.031 91.9766C111.312 91.4766 110.375 91.2266 109.219 91.2266H103.828V119H95.6016V84.875H109.219C111.953 84.875 114.305 85.375 116.273 86.375C118.258 87.375 119.781 88.75 120.844 90.5C121.906 92.2344 122.438 94.2188 122.438 96.4531C122.438 98.6562 121.906 100.578 120.844 102.219C119.781 103.859 118.258 105.141 116.273 106.062C114.305 106.969 111.953 107.422 109.219 107.422ZM134.461 99.9219V119H126.562V93.6406H133.945L134.461 99.9219ZM141.961 93.4531L141.82 100.789C141.508 100.758 141.086 100.719 140.555 100.672C140.023 100.625 139.578 100.602 139.219 100.602C138.297 100.602 137.5 100.711 136.828 100.93C136.172 101.133 135.625 101.445 135.188 101.867C134.766 102.273 134.453 102.789 134.25 103.414C134.062 104.039 133.977 104.766 133.992 105.594L132.562 104.656C132.562 102.953 132.727 101.406 133.055 100.016C133.398 98.6094 133.883 97.3984 134.508 96.3828C135.133 95.3516 135.891 94.5625 136.781 94.0156C137.672 93.4531 138.672 93.1719 139.781 93.1719C140.172 93.1719 140.555 93.1953 140.93 93.2422C141.32 93.2891 141.664 93.3594 141.961 93.4531ZM142.852 106.578V106.086C142.852 104.227 143.117 102.516 143.648 100.953C144.18 99.375 144.961 98.0078 145.992 96.8516C147.023 95.6953 148.297 94.7969 149.812 94.1562C151.328 93.5 153.078 93.1719 155.062 93.1719C157.062 93.1719 158.82 93.5 160.336 94.1562C161.867 94.7969 163.148 95.6953 164.18 96.8516C165.211 98.0078 165.992 99.375 166.523 100.953C167.055 102.516 167.32 104.227 167.32 106.086V106.578C167.32 108.422 167.055 110.133 166.523 111.711C165.992 113.273 165.211 114.641 164.18 115.812C163.148 116.969 161.875 117.867 160.359 118.508C158.844 119.148 157.094 119.469 155.109 119.469C153.125 119.469 151.367 119.148 149.836 118.508C148.305 117.867 147.023 116.969 145.992 115.812C144.961 114.641 144.18 113.273 143.648 111.711C143.117 110.133 142.852 108.422 142.852 106.578ZM150.75 106.086V106.578C150.75 107.531 150.82 108.422 150.961 109.25C151.102 110.078 151.336 110.805 151.664 111.43C151.992 112.039 152.438 112.516 153 112.859C153.562 113.203 154.266 113.375 155.109 113.375C155.938 113.375 156.625 113.203 157.172 112.859C157.734 112.516 158.18 112.039 158.508 111.43C158.836 110.805 159.07 110.078 159.211 109.25C159.352 108.422 159.422 107.531 159.422 106.578V106.086C159.422 105.164 159.352 104.297 159.211 103.484C159.07 102.656 158.836 101.93 158.508 101.305C158.18 100.664 157.734 100.164 157.172 99.8047C156.609 99.4453 155.906 99.2656 155.062 99.2656C154.234 99.2656 153.539 99.4453 152.977 99.8047C152.43 100.164 151.992 100.664 151.664 101.305C151.336 101.93 151.102 102.656 150.961 103.484C150.82 104.297 150.75 105.164 150.75 106.086ZM184.195 93.6406V99.125H168.914V93.6406H184.195ZM172.125 87.3359H180.023V110.727C180.023 111.398 180.102 111.922 180.258 112.297C180.414 112.656 180.68 112.914 181.055 113.07C181.445 113.211 181.961 113.281 182.602 113.281C183.055 113.281 183.43 113.273 183.727 113.258C184.023 113.227 184.305 113.188 184.57 113.141V118.789C183.898 119.008 183.195 119.172 182.461 119.281C181.727 119.406 180.945 119.469 180.117 119.469C178.43 119.469 176.984 119.203 175.781 118.672C174.594 118.141 173.688 117.305 173.062 116.164C172.438 115.023 172.125 113.539 172.125 111.711V87.3359ZM185.648 106.578V106.086C185.648 104.227 185.914 102.516 186.445 100.953C186.977 99.375 187.758 98.0078 188.789 96.8516C189.82 95.6953 191.094 94.7969 192.609 94.1562C194.125 93.5 195.875 93.1719 197.859 93.1719C199.859 93.1719 201.617 93.5 203.133 94.1562C204.664 94.7969 205.945 95.6953 206.977 96.8516C208.008 98.0078 208.789 99.375 209.32 100.953C209.852 102.516 210.117 104.227 210.117 106.086V106.578C210.117 108.422 209.852 110.133 209.32 111.711C208.789 113.273 208.008 114.641 206.977 115.812C205.945 116.969 204.672 117.867 203.156 118.508C201.641 119.148 199.891 119.469 197.906 119.469C195.922 119.469 194.164 119.148 192.633 118.508C191.102 117.867 189.82 116.969 188.789 115.812C187.758 114.641 186.977 113.273 186.445 111.711C185.914 110.133 185.648 108.422 185.648 106.578ZM193.547 106.086V106.578C193.547 107.531 193.617 108.422 193.758 109.25C193.898 110.078 194.133 110.805 194.461 111.43C194.789 112.039 195.234 112.516 195.797 112.859C196.359 113.203 197.062 113.375 197.906 113.375C198.734 113.375 199.422 113.203 199.969 112.859C200.531 112.516 200.977 112.039 201.305 111.43C201.633 110.805 201.867 110.078 202.008 109.25C202.148 108.422 202.219 107.531 202.219 106.578V106.086C202.219 105.164 202.148 104.297 202.008 103.484C201.867 102.656 201.633 101.93 201.305 101.305C200.977 100.664 200.531 100.164 199.969 99.8047C199.406 99.4453 198.703 99.2656 197.859 99.2656C197.031 99.2656 196.336 99.4453 195.773 99.8047C195.227 100.164 194.789 100.664 194.461 101.305C194.133 101.93 193.898 102.656 193.758 103.484C193.617 104.297 193.547 105.164 193.547 106.086ZM226.992 93.6406V99.125H211.711V93.6406H226.992ZM214.922 87.3359H222.82V110.727C222.82 111.398 222.898 111.922 223.055 112.297C223.211 112.656 223.477 112.914 223.852 113.07C224.242 113.211 224.758 113.281 225.398 113.281C225.852 113.281 226.227 113.273 226.523 113.258C226.82 113.227 227.102 113.188 227.367 113.141V118.789C226.695 119.008 225.992 119.172 225.258 119.281C224.523 119.406 223.742 119.469 222.914 119.469C221.227 119.469 219.781 119.203 218.578 118.672C217.391 118.141 216.484 117.305 215.859 116.164C215.234 115.023 214.922 113.539 214.922 111.711V87.3359ZM237.914 116.023L244.477 93.6406H252.961L242.766 122.773C242.547 123.414 242.258 124.102 241.898 124.836C241.539 125.586 241.047 126.297 240.422 126.969C239.797 127.641 238.992 128.188 238.008 128.609C237.039 129.031 235.836 129.242 234.398 129.242C233.633 129.242 233.07 129.203 232.711 129.125C232.367 129.062 231.836 128.945 231.117 128.773V123.125C231.32 123.125 231.492 123.125 231.633 123.125C231.789 123.125 231.961 123.125 232.148 123.125C232.992 123.125 233.664 123.039 234.164 122.867C234.68 122.695 235.07 122.445 235.336 122.117C235.617 121.789 235.836 121.391 235.992 120.922L237.914 116.023ZM236.25 93.6406L241.242 111.383L242.109 119.75H236.812L227.789 93.6406H236.25ZM262.992 98.5156V128.75H255.094V93.6406H262.453L262.992 98.5156ZM278.555 106.016V106.508C278.555 108.352 278.344 110.062 277.922 111.641C277.5 113.219 276.875 114.594 276.047 115.766C275.219 116.938 274.188 117.852 272.953 118.508C271.734 119.148 270.32 119.469 268.711 119.469C267.195 119.469 265.891 119.133 264.797 118.461C263.703 117.789 262.789 116.859 262.055 115.672C261.32 114.484 260.727 113.125 260.273 111.594C259.82 110.062 259.461 108.445 259.195 106.742V106.109C259.461 104.281 259.82 102.586 260.273 101.023C260.727 99.4453 261.32 98.0703 262.055 96.8984C262.789 95.7266 263.695 94.8125 264.773 94.1562C265.867 93.5 267.172 93.1719 268.688 93.1719C270.297 93.1719 271.711 93.4766 272.93 94.0859C274.164 94.6953 275.195 95.5703 276.023 96.7109C276.867 97.8359 277.5 99.1875 277.922 100.766C278.344 102.344 278.555 104.094 278.555 106.016ZM270.656 106.508V106.016C270.656 105.031 270.586 104.133 270.445 103.32C270.305 102.492 270.078 101.773 269.766 101.164C269.469 100.555 269.07 100.086 268.57 99.7578C268.07 99.4297 267.453 99.2656 266.719 99.2656C265.875 99.2656 265.164 99.3984 264.586 99.6641C264.023 99.9141 263.57 100.305 263.227 100.836C262.898 101.352 262.664 102 262.523 102.781C262.398 103.547 262.344 104.445 262.359 105.477V107.398C262.328 108.586 262.445 109.633 262.711 110.539C262.977 111.43 263.438 112.125 264.094 112.625C264.75 113.125 265.641 113.375 266.766 113.375C267.516 113.375 268.141 113.203 268.641 112.859C269.141 112.5 269.539 112.008 269.836 111.383C270.133 110.742 270.344 110.008 270.469 109.18C270.594 108.352 270.656 107.461 270.656 106.508ZM290.414 93.6406V119H282.492V93.6406H290.414ZM282.023 87.1016C282.023 85.9766 282.43 85.0547 283.242 84.3359C284.055 83.6172 285.109 83.2578 286.406 83.2578C287.703 83.2578 288.758 83.6172 289.57 84.3359C290.383 85.0547 290.789 85.9766 290.789 87.1016C290.789 88.2266 290.383 89.1484 289.57 89.8672C288.758 90.5859 287.703 90.9453 286.406 90.9453C285.109 90.9453 284.055 90.5859 283.242 89.8672C282.43 89.1484 282.023 88.2266 282.023 87.1016ZM303.047 99.0547V119H295.148V93.6406H302.555L303.047 99.0547ZM302.109 105.453L300.258 105.5C300.258 103.562 300.492 101.836 300.961 100.32C301.43 98.7891 302.094 97.4922 302.953 96.4297C303.812 95.3672 304.836 94.5625 306.023 94.0156C307.227 93.4531 308.562 93.1719 310.031 93.1719C311.203 93.1719 312.273 93.3438 313.242 93.6875C314.227 94.0312 315.07 94.5859 315.773 95.3516C316.492 96.1172 317.039 97.1328 317.414 98.3984C317.805 99.6484 318 101.195 318 103.039V119H310.055V103.016C310.055 102 309.914 101.227 309.633 100.695C309.352 100.148 308.945 99.7734 308.414 99.5703C307.883 99.3672 307.234 99.2656 306.469 99.2656C305.656 99.2656 304.969 99.4219 304.406 99.7344C303.844 100.047 303.391 100.484 303.047 101.047C302.719 101.594 302.477 102.242 302.32 102.992C302.18 103.742 302.109 104.562 302.109 105.453ZM338.32 93.6406H345.492V118.016C345.492 120.359 344.953 122.344 343.875 123.969C342.797 125.609 341.289 126.852 339.352 127.695C337.43 128.555 335.18 128.984 332.602 128.984C331.461 128.984 330.297 128.836 329.109 128.539C327.922 128.258 326.812 127.836 325.781 127.273C324.75 126.711 323.883 126.016 323.18 125.188L326.484 120.547C327.125 121.266 327.93 121.875 328.898 122.375C329.867 122.891 331.008 123.148 332.32 123.148C333.461 123.148 334.414 122.945 335.18 122.539C335.961 122.133 336.555 121.539 336.961 120.758C337.367 119.992 337.57 119.062 337.57 117.969V99.6406L338.32 93.6406ZM321.469 106.625V106.133C321.469 104.211 321.703 102.461 322.172 100.883C322.656 99.2891 323.344 97.9219 324.234 96.7812C325.141 95.625 326.234 94.7344 327.516 94.1094C328.797 93.4844 330.242 93.1719 331.852 93.1719C333.586 93.1719 335.008 93.5078 336.117 94.1797C337.242 94.8359 338.141 95.7578 338.812 96.9453C339.5 98.1328 340.031 99.5234 340.406 101.117C340.797 102.695 341.125 104.398 341.391 106.227V106.812C341.125 108.531 340.758 110.156 340.289 111.688C339.836 113.203 339.242 114.547 338.508 115.719C337.773 116.891 336.852 117.812 335.742 118.484C334.648 119.141 333.336 119.469 331.805 119.469C330.211 119.469 328.773 119.148 327.492 118.508C326.227 117.867 325.141 116.969 324.234 115.812C323.344 114.656 322.656 113.297 322.172 111.734C321.703 110.172 321.469 108.469 321.469 106.625ZM329.367 106.133V106.625C329.367 107.578 329.453 108.461 329.625 109.273C329.812 110.086 330.094 110.805 330.469 111.43C330.844 112.039 331.305 112.516 331.852 112.859C332.414 113.203 333.07 113.375 333.82 113.375C334.961 113.375 335.883 113.133 336.586 112.648C337.289 112.164 337.797 111.477 338.109 110.586C338.422 109.695 338.555 108.648 338.508 107.445V105.594C338.539 104.562 338.469 103.656 338.297 102.875C338.125 102.078 337.852 101.414 337.477 100.883C337.117 100.352 336.633 99.9531 336.023 99.6875C335.43 99.4062 334.711 99.2656 333.867 99.2656C333.133 99.2656 332.484 99.4375 331.922 99.7812C331.359 100.125 330.891 100.609 330.516 101.234C330.141 101.844 329.852 102.57 329.648 103.414C329.461 104.242 329.367 105.148 329.367 106.133Z" fill="black"/>
<path d="M1134 0H1348C1356.28 0 1363 6.71573 1363 15V148C1363 156.284 1356.28 163 1348 163H1134V0Z" fill="#D62828"/>
<path fill-rule="evenodd" clip-rule="evenodd" d="M1202.75 46.5018C1202.75 45.3973 1203.65 44.5018 1204.75 44.5018H1292.25C1293.35 44.5018 1294.25 45.3973 1294.25 46.5018V116.498C1294.25 117.603 1293.35 118.498 1292.25 118.498H1204.75C1203.65 118.498 1202.75 117.603 1202.75 116.498V46.5018ZM1206.75 48.5018V52.9963H1290.25V48.5018H1206.75ZM1290.25 56.9963H1235.19V114.498H1290.25V56.9963ZM1231.19 114.498V56.9963H1206.75V114.498H1231.19Z" fill="white"/>
<path fill-rule="evenodd" clip-rule="evenodd" d="M1209.72 62.3022C1209.72 61.1976 1210.62 60.3022 1211.72 60.3022H1225.72C1226.83 60.3022 1227.72 61.1976 1227.72 62.3022V81.6974C1227.72 82.802 1226.83 83.6974 1225.72 83.6974H1211.72C1210.62 83.6974 1209.72 82.802 1209.72 81.6974V62.3022ZM1213.72 64.3022V79.6974H1223.72V64.3022H1213.72ZM1239.33 63.1982C1239.33 62.0936 1240.22 61.1982 1241.33 61.1982H1284.25C1285.36 61.1982 1286.25 62.0936 1286.25 63.1982V109.407C1286.25 110.511 1285.36 111.407 1284.25 111.407H1241.33C1240.22 111.407 1239.33 110.511 1239.33 109.407V63.1982ZM1243.33 65.1982V107.407H1282.25V65.1982H1243.33ZM1209.56 93.4381C1209.56 92.3336 1210.46 91.4381 1211.56 91.4381H1220.48C1221.59 91.4381 1222.48 92.3336 1222.48 93.4381C1222.48 94.5427 1221.59 95.4381 1220.48 95.4381H1211.56C1210.46 95.4381 1209.56 94.5427 1209.56 93.4381ZM1209.56 100.438C1209.56 99.3335 1210.46 98.4381 1211.56 98.4381H1226.1C1227.21 98.4381 1228.1 99.3335 1228.1 100.438C1228.1 101.543 1227.21 102.438 1226.1 102.438H1211.56C1210.46 102.438 1209.56 101.543 1209.56 100.438ZM1209.56 107.438C1209.56 106.334 1210.46 105.438 1211.56 105.438H1220.48C1221.59 105.438 1222.48 106.334 1222.48 107.438C1222.48 108.543 1221.59 109.438 1220.48 109.438H1211.56C1210.46 109.438 1209.56 108.543 1209.56 107.438Z" fill="white"/>
</svg>
