<svg width="1363" height="163" viewBox="0 0 1363 163" fill="none" xmlns="http://www.w3.org/2000/svg">
<path d="M0 15C0 6.71573 6.71573 0 15 0H37V163H15C6.71573 163 0 156.284 0 148V15Z" fill="#D62828"/>
<rect width="1097" height="163" transform="translate(37)" fill="#F0F0F0"/>
<path d="M101.906 53.9219L94.3945 51.2383V48.0859L104.602 52.375V54.6367L101.906 53.9219ZM94.3945 56.1719L101.918 53.4297L104.602 52.7852V55.0352L94.3945 59.3242V56.1719ZM115.242 43.9375L118.805 51.7188L122.367 43.9375H126.199L120.586 54.7891V61H117.023V54.7891L111.398 43.9375H115.242ZM132.609 61.2344C131.625 61.2344 130.742 61.0781 129.961 60.7656C129.18 60.4453 128.516 60.0039 127.969 59.4414C127.43 58.8789 127.016 58.2266 126.727 57.4844C126.438 56.7344 126.293 55.9375 126.293 55.0938V54.625C126.293 53.6641 126.43 52.7852 126.703 51.9883C126.977 51.1914 127.367 50.5 127.875 49.9141C128.391 49.3281 129.016 48.8789 129.75 48.5664C130.484 48.2461 131.312 48.0859 132.234 48.0859C133.133 48.0859 133.93 48.2344 134.625 48.5312C135.32 48.8281 135.902 49.25 136.371 49.7969C136.848 50.3438 137.207 51 137.449 51.7656C137.691 52.5234 137.812 53.3672 137.812 54.2969V55.7031H127.734V53.4531H134.496V53.1953C134.496 52.7266 134.41 52.3086 134.238 51.9414C134.074 51.5664 133.824 51.2695 133.488 51.0508C133.152 50.832 132.723 50.7227 132.199 50.7227C131.754 50.7227 131.371 50.8203 131.051 51.0156C130.73 51.2109 130.469 51.4844 130.266 51.8359C130.07 52.1875 129.922 52.6016 129.82 53.0781C129.727 53.5469 129.68 54.0625 129.68 54.625V55.0938C129.68 55.6016 129.75 56.0703 129.891 56.5C130.039 56.9297 130.246 57.3008 130.512 57.6133C130.785 57.9258 131.113 58.168 131.496 58.3398C131.887 58.5117 132.328 58.5977 132.82 58.5977C133.43 58.5977 133.996 58.4805 134.52 58.2461C135.051 58.0039 135.508 57.6406 135.891 57.1562L137.531 58.9375C137.266 59.3203 136.902 59.6875 136.441 60.0391C135.988 60.3906 135.441 60.6797 134.801 60.9062C134.16 61.125 133.43 61.2344 132.609 61.2344ZM143.297 43V61H139.91V43H143.297ZM149.461 50.7578V65.875H146.086V48.3203H149.215L149.461 50.7578ZM157.488 54.5195V54.7656C157.488 55.6875 157.379 56.543 157.16 57.332C156.949 58.1211 156.637 58.8086 156.223 59.3945C155.809 59.9727 155.293 60.4258 154.676 60.7539C154.066 61.0742 153.363 61.2344 152.566 61.2344C151.793 61.2344 151.121 61.0781 150.551 60.7656C149.98 60.4531 149.5 60.0156 149.109 59.4531C148.727 58.8828 148.418 58.2227 148.184 57.4727C147.949 56.7227 147.77 55.918 147.645 55.0586V54.4141C147.77 53.4922 147.949 52.6484 148.184 51.8828C148.418 51.1094 148.727 50.4414 149.109 49.8789C149.5 49.3086 149.977 48.8672 150.539 48.5547C151.109 48.2422 151.777 48.0859 152.543 48.0859C153.348 48.0859 154.055 48.2383 154.664 48.543C155.281 48.8477 155.797 49.2852 156.211 49.8555C156.633 50.4258 156.949 51.1055 157.16 51.8945C157.379 52.6836 157.488 53.5586 157.488 54.5195ZM154.102 54.7656V54.5195C154.102 53.9805 154.055 53.4844 153.961 53.0312C153.875 52.5703 153.734 52.168 153.539 51.8242C153.352 51.4805 153.102 51.2148 152.789 51.0273C152.484 50.832 152.113 50.7344 151.676 50.7344C151.215 50.7344 150.82 50.8086 150.492 50.957C150.172 51.1055 149.91 51.3203 149.707 51.6016C149.504 51.8828 149.352 52.2188 149.25 52.6094C149.148 53 149.086 53.4414 149.062 53.9336V55.5625C149.102 56.1406 149.211 56.6602 149.391 57.1211C149.57 57.5742 149.848 57.9336 150.223 58.1992C150.598 58.4648 151.09 58.5977 151.699 58.5977C152.145 58.5977 152.52 58.5 152.824 58.3047C153.129 58.1016 153.375 57.8242 153.562 57.4727C153.758 57.1211 153.895 56.7148 153.973 56.2539C154.059 55.793 154.102 55.2969 154.102 54.7656ZM165.773 43.9375H172.137C173.441 43.9375 174.562 44.1328 175.5 44.5234C176.445 44.9141 177.172 45.4922 177.68 46.2578C178.188 47.0234 178.441 47.9648 178.441 49.082C178.441 49.9961 178.285 50.7812 177.973 51.4375C177.668 52.0859 177.234 52.6289 176.672 53.0664C176.117 53.4961 175.465 53.8398 174.715 54.0977L173.602 54.6836H168.07L168.047 51.9414H172.16C172.777 51.9414 173.289 51.832 173.695 51.6133C174.102 51.3945 174.406 51.0898 174.609 50.6992C174.82 50.3086 174.926 49.8555 174.926 49.3398C174.926 48.793 174.824 48.3203 174.621 47.9219C174.418 47.5234 174.109 47.2188 173.695 47.0078C173.281 46.7969 172.762 46.6914 172.137 46.6914H169.289V61H165.773V43.9375ZM175.312 61L171.422 53.3945L175.137 53.3711L179.074 60.8359V61H175.312ZM186.773 61.2344C185.789 61.2344 184.906 61.0781 184.125 60.7656C183.344 60.4453 182.68 60.0039 182.133 59.4414C181.594 58.8789 181.18 58.2266 180.891 57.4844C180.602 56.7344 180.457 55.9375 180.457 55.0938V54.625C180.457 53.6641 180.594 52.7852 180.867 51.9883C181.141 51.1914 181.531 50.5 182.039 49.9141C182.555 49.3281 183.18 48.8789 183.914 48.5664C184.648 48.2461 185.477 48.0859 186.398 48.0859C187.297 48.0859 188.094 48.2344 188.789 48.5312C189.484 48.8281 190.066 49.25 190.535 49.7969C191.012 50.3438 191.371 51 191.613 51.7656C191.855 52.5234 191.977 53.3672 191.977 54.2969V55.7031H181.898V53.4531H188.66V53.1953C188.66 52.7266 188.574 52.3086 188.402 51.9414C188.238 51.5664 187.988 51.2695 187.652 51.0508C187.316 50.832 186.887 50.7227 186.363 50.7227C185.918 50.7227 185.535 50.8203 185.215 51.0156C184.895 51.2109 184.633 51.4844 184.43 51.8359C184.234 52.1875 184.086 52.6016 183.984 53.0781C183.891 53.5469 183.844 54.0625 183.844 54.625V55.0938C183.844 55.6016 183.914 56.0703 184.055 56.5C184.203 56.9297 184.41 57.3008 184.676 57.6133C184.949 57.9258 185.277 58.168 185.66 58.3398C186.051 58.5117 186.492 58.5977 186.984 58.5977C187.594 58.5977 188.16 58.4805 188.684 58.2461C189.215 58.0039 189.672 57.6406 190.055 57.1562L191.695 58.9375C191.43 59.3203 191.066 59.6875 190.605 60.0391C190.152 60.3906 189.605 60.6797 188.965 60.9062C188.324 61.125 187.594 61.2344 186.773 61.2344ZM200.754 57.4961C200.754 57.2539 200.684 57.0352 200.543 56.8398C200.402 56.6445 200.141 56.4648 199.758 56.3008C199.383 56.1289 198.84 55.9727 198.129 55.832C197.488 55.6914 196.891 55.5156 196.336 55.3047C195.789 55.0859 195.312 54.8242 194.906 54.5195C194.508 54.2148 194.195 53.8555 193.969 53.4414C193.742 53.0195 193.629 52.5391 193.629 52C193.629 51.4688 193.742 50.9688 193.969 50.5C194.203 50.0312 194.535 49.6172 194.965 49.2578C195.402 48.8906 195.934 48.6055 196.559 48.4023C197.191 48.1914 197.902 48.0859 198.691 48.0859C199.793 48.0859 200.738 48.2617 201.527 48.6133C202.324 48.9648 202.934 49.4492 203.355 50.0664C203.785 50.6758 204 51.3711 204 52.1523H200.625C200.625 51.8242 200.555 51.5312 200.414 51.2734C200.281 51.0078 200.07 50.8008 199.781 50.6523C199.5 50.4961 199.133 50.418 198.68 50.418C198.305 50.418 197.98 50.4844 197.707 50.6172C197.434 50.7422 197.223 50.9141 197.074 51.1328C196.934 51.3438 196.863 51.5781 196.863 51.8359C196.863 52.0312 196.902 52.207 196.98 52.3633C197.066 52.5117 197.203 52.6484 197.391 52.7734C197.578 52.8984 197.82 53.0156 198.117 53.125C198.422 53.2266 198.797 53.3203 199.242 53.4062C200.156 53.5938 200.973 53.8398 201.691 54.1445C202.41 54.4414 202.98 54.8477 203.402 55.3633C203.824 55.8711 204.035 56.5391 204.035 57.3672C204.035 57.9297 203.91 58.4453 203.66 58.9141C203.41 59.3828 203.051 59.793 202.582 60.1445C202.113 60.4883 201.551 60.7578 200.895 60.9531C200.246 61.1406 199.516 61.2344 198.703 61.2344C197.523 61.2344 196.523 61.0234 195.703 60.6016C194.891 60.1797 194.273 59.6445 193.852 58.9961C193.438 58.3398 193.23 57.668 193.23 56.9805H196.43C196.445 57.4414 196.562 57.8125 196.781 58.0938C197.008 58.375 197.293 58.5781 197.637 58.7031C197.988 58.8281 198.367 58.8906 198.773 58.8906C199.211 58.8906 199.574 58.832 199.863 58.7148C200.152 58.5898 200.371 58.4258 200.52 58.2227C200.676 58.0117 200.754 57.7695 200.754 57.4961ZM212.438 48.3203V50.7109H205.055V48.3203H212.438ZM206.883 45.1914H210.258V57.1797C210.258 57.5469 210.305 57.8281 210.398 58.0234C210.5 58.2188 210.648 58.3555 210.844 58.4336C211.039 58.5039 211.285 58.5391 211.582 58.5391C211.793 58.5391 211.98 58.5312 212.145 58.5156C212.316 58.4922 212.461 58.4688 212.578 58.4453L212.59 60.9297C212.301 61.0234 211.988 61.0977 211.652 61.1523C211.316 61.207 210.945 61.2344 210.539 61.2344C209.797 61.2344 209.148 61.1133 208.594 60.8711C208.047 60.6211 207.625 60.2227 207.328 59.6758C207.031 59.1289 206.883 58.4102 206.883 57.5195V45.1914ZM221.203 58.1406V52.4922C221.203 52.0859 221.137 51.7383 221.004 51.4492C220.871 51.1523 220.664 50.9219 220.383 50.7578C220.109 50.5938 219.754 50.5117 219.316 50.5117C218.941 50.5117 218.617 50.5781 218.344 50.7109C218.07 50.8359 217.859 51.0195 217.711 51.2617C217.562 51.4961 217.488 51.7734 217.488 52.0938H214.113C214.113 51.5547 214.238 51.043 214.488 50.5586C214.738 50.0742 215.102 49.6484 215.578 49.2812C216.055 48.9062 216.621 48.6133 217.277 48.4023C217.941 48.1914 218.684 48.0859 219.504 48.0859C220.488 48.0859 221.363 48.25 222.129 48.5781C222.895 48.9062 223.496 49.3984 223.934 50.0547C224.379 50.7109 224.602 51.5312 224.602 52.5156V57.9414C224.602 58.6367 224.645 59.207 224.73 59.6523C224.816 60.0898 224.941 60.4727 225.105 60.8008V61H221.695C221.531 60.6562 221.406 60.2266 221.32 59.7109C221.242 59.1875 221.203 58.6641 221.203 58.1406ZM221.648 53.2773L221.672 55.1875H219.785C219.34 55.1875 218.953 55.2383 218.625 55.3398C218.297 55.4414 218.027 55.5859 217.816 55.7734C217.605 55.9531 217.449 56.1641 217.348 56.4062C217.254 56.6484 217.207 56.9141 217.207 57.2031C217.207 57.4922 217.273 57.7539 217.406 57.9883C217.539 58.2148 217.73 58.3945 217.98 58.5273C218.23 58.6523 218.523 58.7148 218.859 58.7148C219.367 58.7148 219.809 58.6133 220.184 58.4102C220.559 58.207 220.848 57.957 221.051 57.6602C221.262 57.3633 221.371 57.082 221.379 56.8164L222.27 58.2461C222.145 58.5664 221.973 58.8984 221.754 59.2422C221.543 59.5859 221.273 59.9102 220.945 60.2148C220.617 60.5117 220.223 60.7578 219.762 60.9531C219.301 61.1406 218.754 61.2344 218.121 61.2344C217.316 61.2344 216.586 61.0742 215.93 60.7539C215.281 60.4258 214.766 59.9766 214.383 59.4062C214.008 58.8281 213.82 58.1719 213.82 57.4375C213.82 56.7734 213.945 56.1836 214.195 55.668C214.445 55.1523 214.812 54.7188 215.297 54.3672C215.789 54.0078 216.402 53.7383 217.137 53.5586C217.871 53.3711 218.723 53.2773 219.691 53.2773H221.648ZM234.703 57.9648V48.3203H238.078V61H234.902L234.703 57.9648ZM235.078 55.3633L236.074 55.3398C236.074 56.1836 235.977 56.9688 235.781 57.6953C235.586 58.4141 235.293 59.0391 234.902 59.5703C234.512 60.0938 234.02 60.5039 233.426 60.8008C232.832 61.0898 232.133 61.2344 231.328 61.2344C230.711 61.2344 230.141 61.1484 229.617 60.9766C229.102 60.7969 228.656 60.5195 228.281 60.1445C227.914 59.7617 227.625 59.2734 227.414 58.6797C227.211 58.0781 227.109 57.3555 227.109 56.5117V48.3203H230.484V56.5352C230.484 56.9102 230.527 57.2266 230.613 57.4844C230.707 57.7422 230.836 57.9531 231 58.1172C231.164 58.2812 231.355 58.3984 231.574 58.4688C231.801 58.5391 232.051 58.5742 232.324 58.5742C233.02 58.5742 233.566 58.4336 233.965 58.1523C234.371 57.8711 234.656 57.4883 234.82 57.0039C234.992 56.5117 235.078 55.9648 235.078 55.3633ZM244.031 51.0859V61H240.656V48.3203H243.832L244.031 51.0859ZM247.852 48.2383L247.793 51.3672C247.629 51.3438 247.43 51.3242 247.195 51.3086C246.969 51.2852 246.762 51.2734 246.574 51.2734C246.098 51.2734 245.684 51.3359 245.332 51.4609C244.988 51.5781 244.699 51.7539 244.465 51.9883C244.238 52.2227 244.066 52.5078 243.949 52.8438C243.84 53.1797 243.777 53.5625 243.762 53.9922L243.082 53.7812C243.082 52.9609 243.164 52.207 243.328 51.5195C243.492 50.8242 243.73 50.2188 244.043 49.7031C244.363 49.1875 244.754 48.7891 245.215 48.5078C245.676 48.2266 246.203 48.0859 246.797 48.0859C246.984 48.0859 247.176 48.1016 247.371 48.1328C247.566 48.1562 247.727 48.1914 247.852 48.2383ZM255.891 58.1406V52.4922C255.891 52.0859 255.824 51.7383 255.691 51.4492C255.559 51.1523 255.352 50.9219 255.07 50.7578C254.797 50.5938 254.441 50.5117 254.004 50.5117C253.629 50.5117 253.305 50.5781 253.031 50.7109C252.758 50.8359 252.547 51.0195 252.398 51.2617C252.25 51.4961 252.176 51.7734 252.176 52.0938H248.801C248.801 51.5547 248.926 51.043 249.176 50.5586C249.426 50.0742 249.789 49.6484 250.266 49.2812C250.742 48.9062 251.309 48.6133 251.965 48.4023C252.629 48.1914 253.371 48.0859 254.191 48.0859C255.176 48.0859 256.051 48.25 256.816 48.5781C257.582 48.9062 258.184 49.3984 258.621 50.0547C259.066 50.7109 259.289 51.5312 259.289 52.5156V57.9414C259.289 58.6367 259.332 59.207 259.418 59.6523C259.504 60.0898 259.629 60.4727 259.793 60.8008V61H256.383C256.219 60.6562 256.094 60.2266 256.008 59.7109C255.93 59.1875 255.891 58.6641 255.891 58.1406ZM256.336 53.2773L256.359 55.1875H254.473C254.027 55.1875 253.641 55.2383 253.312 55.3398C252.984 55.4414 252.715 55.5859 252.504 55.7734C252.293 55.9531 252.137 56.1641 252.035 56.4062C251.941 56.6484 251.895 56.9141 251.895 57.2031C251.895 57.4922 251.961 57.7539 252.094 57.9883C252.227 58.2148 252.418 58.3945 252.668 58.5273C252.918 58.6523 253.211 58.7148 253.547 58.7148C254.055 58.7148 254.496 58.6133 254.871 58.4102C255.246 58.207 255.535 57.957 255.738 57.6602C255.949 57.3633 256.059 57.082 256.066 56.8164L256.957 58.2461C256.832 58.5664 256.66 58.8984 256.441 59.2422C256.23 59.5859 255.961 59.9102 255.633 60.2148C255.305 60.5117 254.91 60.7578 254.449 60.9531C253.988 61.1406 253.441 61.2344 252.809 61.2344C252.004 61.2344 251.273 61.0742 250.617 60.7539C249.969 60.4258 249.453 59.9766 249.07 59.4062C248.695 58.8281 248.508 58.1719 248.508 57.4375C248.508 56.7734 248.633 56.1836 248.883 55.668C249.133 55.1523 249.5 54.7188 249.984 54.3672C250.477 54.0078 251.09 53.7383 251.824 53.5586C252.559 53.3711 253.41 53.2773 254.379 53.2773H256.336ZM265.195 51.0273V61H261.82V48.3203H264.984L265.195 51.0273ZM264.703 54.2148H263.789C263.789 53.2773 263.91 52.4336 264.152 51.6836C264.395 50.9258 264.734 50.2812 265.172 49.75C265.609 49.2109 266.129 48.8008 266.73 48.5195C267.34 48.2305 268.02 48.0859 268.77 48.0859C269.363 48.0859 269.906 48.1719 270.398 48.3438C270.891 48.5156 271.312 48.7891 271.664 49.1641C272.023 49.5391 272.297 50.0352 272.484 50.6523C272.68 51.2695 272.777 52.0234 272.777 52.9141V61H269.379V52.9023C269.379 52.3398 269.301 51.9023 269.145 51.5898C268.988 51.2773 268.758 51.0586 268.453 50.9336C268.156 50.8008 267.789 50.7344 267.352 50.7344C266.898 50.7344 266.504 50.8242 266.168 51.0039C265.84 51.1836 265.566 51.4336 265.348 51.7539C265.137 52.0664 264.977 52.4336 264.867 52.8555C264.758 53.2773 264.703 53.7305 264.703 54.2148ZM281.555 48.3203V50.7109H274.172V48.3203H281.555ZM276 45.1914H279.375V57.1797C279.375 57.5469 279.422 57.8281 279.516 58.0234C279.617 58.2188 279.766 58.3555 279.961 58.4336C280.156 58.5039 280.402 58.5391 280.699 58.5391C280.91 58.5391 281.098 58.5312 281.262 58.5156C281.434 58.4922 281.578 58.4688 281.695 58.4453L281.707 60.9297C281.418 61.0234 281.105 61.0977 280.77 61.1523C280.434 61.207 280.062 61.2344 279.656 61.2344C278.914 61.2344 278.266 61.1133 277.711 60.8711C277.164 60.6211 276.742 60.2227 276.445 59.6758C276.148 59.1289 276 58.4102 276 57.5195V45.1914ZM296.602 46.8555L291.961 61H288.223L294.562 43.9375H296.941L296.602 46.8555ZM300.457 61L295.805 46.8555L295.43 43.9375H297.832L304.207 61H300.457ZM300.246 54.6484V57.4023H291.234V54.6484H300.246ZM308.508 51.0273V61H305.133V48.3203H308.297L308.508 51.0273ZM308.016 54.2148H307.102C307.102 53.2773 307.223 52.4336 307.465 51.6836C307.707 50.9258 308.047 50.2812 308.484 49.75C308.922 49.2109 309.441 48.8008 310.043 48.5195C310.652 48.2305 311.332 48.0859 312.082 48.0859C312.676 48.0859 313.219 48.1719 313.711 48.3438C314.203 48.5156 314.625 48.7891 314.977 49.1641C315.336 49.5391 315.609 50.0352 315.797 50.6523C315.992 51.2695 316.09 52.0234 316.09 52.9141V61H312.691V52.9023C312.691 52.3398 312.613 51.9023 312.457 51.5898C312.301 51.2773 312.07 51.0586 311.766 50.9336C311.469 50.8008 311.102 50.7344 310.664 50.7344C310.211 50.7344 309.816 50.8242 309.48 51.0039C309.152 51.1836 308.879 51.4336 308.66 51.7539C308.449 52.0664 308.289 52.4336 308.18 52.8555C308.07 53.2773 308.016 53.7305 308.016 54.2148ZM325.5 58.1406V52.4922C325.5 52.0859 325.434 51.7383 325.301 51.4492C325.168 51.1523 324.961 50.9219 324.68 50.7578C324.406 50.5938 324.051 50.5117 323.613 50.5117C323.238 50.5117 322.914 50.5781 322.641 50.7109C322.367 50.8359 322.156 51.0195 322.008 51.2617C321.859 51.4961 321.785 51.7734 321.785 52.0938H318.41C318.41 51.5547 318.535 51.043 318.785 50.5586C319.035 50.0742 319.398 49.6484 319.875 49.2812C320.352 48.9062 320.918 48.6133 321.574 48.4023C322.238 48.1914 322.98 48.0859 323.801 48.0859C324.785 48.0859 325.66 48.25 326.426 48.5781C327.191 48.9062 327.793 49.3984 328.23 50.0547C328.676 50.7109 328.898 51.5312 328.898 52.5156V57.9414C328.898 58.6367 328.941 59.207 329.027 59.6523C329.113 60.0898 329.238 60.4727 329.402 60.8008V61H325.992C325.828 60.6562 325.703 60.2266 325.617 59.7109C325.539 59.1875 325.5 58.6641 325.5 58.1406ZM325.945 53.2773L325.969 55.1875H324.082C323.637 55.1875 323.25 55.2383 322.922 55.3398C322.594 55.4414 322.324 55.5859 322.113 55.7734C321.902 55.9531 321.746 56.1641 321.645 56.4062C321.551 56.6484 321.504 56.9141 321.504 57.2031C321.504 57.4922 321.57 57.7539 321.703 57.9883C321.836 58.2148 322.027 58.3945 322.277 58.5273C322.527 58.6523 322.82 58.7148 323.156 58.7148C323.664 58.7148 324.105 58.6133 324.48 58.4102C324.855 58.207 325.145 57.957 325.348 57.6602C325.559 57.3633 325.668 57.082 325.676 56.8164L326.566 58.2461C326.441 58.5664 326.27 58.8984 326.051 59.2422C325.84 59.5859 325.57 59.9102 325.242 60.2148C324.914 60.5117 324.52 60.7578 324.059 60.9531C323.598 61.1406 323.051 61.2344 322.418 61.2344C321.613 61.2344 320.883 61.0742 320.227 60.7539C319.578 60.4258 319.062 59.9766 318.68 59.4062C318.305 58.8281 318.117 58.1719 318.117 57.4375C318.117 56.7734 318.242 56.1836 318.492 55.668C318.742 55.1523 319.109 54.7188 319.594 54.3672C320.086 54.0078 320.699 53.7383 321.434 53.5586C322.168 53.3711 323.02 53.2773 323.988 53.2773H325.945ZM335.062 43V61H331.676V43H335.062ZM341.613 59.5703L344.977 48.3203H348.598L343.5 62.9102C343.391 63.2305 343.242 63.5742 343.055 63.9414C342.875 64.3086 342.629 64.6562 342.316 64.9844C342.012 65.3203 341.625 65.5938 341.156 65.8047C340.695 66.0156 340.129 66.1211 339.457 66.1211C339.137 66.1211 338.875 66.1016 338.672 66.0625C338.469 66.0234 338.227 65.9688 337.945 65.8984V63.4258C338.031 63.4258 338.121 63.4258 338.215 63.4258C338.309 63.4336 338.398 63.4375 338.484 63.4375C338.93 63.4375 339.293 63.3867 339.574 63.2852C339.855 63.1836 340.082 63.0273 340.254 62.8164C340.426 62.6133 340.562 62.3477 340.664 62.0195L341.613 59.5703ZM340.207 48.3203L342.961 57.5078L343.441 61.082L341.145 61.3281L336.586 48.3203H340.207ZM356.801 57.4961C356.801 57.2539 356.73 57.0352 356.59 56.8398C356.449 56.6445 356.188 56.4648 355.805 56.3008C355.43 56.1289 354.887 55.9727 354.176 55.832C353.535 55.6914 352.938 55.5156 352.383 55.3047C351.836 55.0859 351.359 54.8242 350.953 54.5195C350.555 54.2148 350.242 53.8555 350.016 53.4414C349.789 53.0195 349.676 52.5391 349.676 52C349.676 51.4688 349.789 50.9688 350.016 50.5C350.25 50.0312 350.582 49.6172 351.012 49.2578C351.449 48.8906 351.98 48.6055 352.605 48.4023C353.238 48.1914 353.949 48.0859 354.738 48.0859C355.84 48.0859 356.785 48.2617 357.574 48.6133C358.371 48.9648 358.98 49.4492 359.402 50.0664C359.832 50.6758 360.047 51.3711 360.047 52.1523H356.672C356.672 51.8242 356.602 51.5312 356.461 51.2734C356.328 51.0078 356.117 50.8008 355.828 50.6523C355.547 50.4961 355.18 50.418 354.727 50.418C354.352 50.418 354.027 50.4844 353.754 50.6172C353.48 50.7422 353.27 50.9141 353.121 51.1328C352.98 51.3438 352.91 51.5781 352.91 51.8359C352.91 52.0312 352.949 52.207 353.027 52.3633C353.113 52.5117 353.25 52.6484 353.438 52.7734C353.625 52.8984 353.867 53.0156 354.164 53.125C354.469 53.2266 354.844 53.3203 355.289 53.4062C356.203 53.5938 357.02 53.8398 357.738 54.1445C358.457 54.4414 359.027 54.8477 359.449 55.3633C359.871 55.8711 360.082 56.5391 360.082 57.3672C360.082 57.9297 359.957 58.4453 359.707 58.9141C359.457 59.3828 359.098 59.793 358.629 60.1445C358.16 60.4883 357.598 60.7578 356.941 60.9531C356.293 61.1406 355.562 61.2344 354.75 61.2344C353.57 61.2344 352.57 61.0234 351.75 60.6016C350.938 60.1797 350.32 59.6445 349.898 58.9961C349.484 58.3398 349.277 57.668 349.277 56.9805H352.477C352.492 57.4414 352.609 57.8125 352.828 58.0938C353.055 58.375 353.34 58.5781 353.684 58.7031C354.035 58.8281 354.414 58.8906 354.82 58.8906C355.258 58.8906 355.621 58.832 355.91 58.7148C356.199 58.5898 356.418 58.4258 356.566 58.2227C356.723 58.0117 356.801 57.7695 356.801 57.4961ZM365.836 48.3203V61H362.449V48.3203H365.836ZM362.238 45.0156C362.238 44.5234 362.41 44.1172 362.754 43.7969C363.098 43.4766 363.559 43.3164 364.137 43.3164C364.707 43.3164 365.164 43.4766 365.508 43.7969C365.859 44.1172 366.035 44.5234 366.035 45.0156C366.035 45.5078 365.859 45.9141 365.508 46.2344C365.164 46.5547 364.707 46.7148 364.137 46.7148C363.559 46.7148 363.098 46.5547 362.754 46.2344C362.41 45.9141 362.238 45.5078 362.238 45.0156ZM375.48 57.4961C375.48 57.2539 375.41 57.0352 375.27 56.8398C375.129 56.6445 374.867 56.4648 374.484 56.3008C374.109 56.1289 373.566 55.9727 372.855 55.832C372.215 55.6914 371.617 55.5156 371.062 55.3047C370.516 55.0859 370.039 54.8242 369.633 54.5195C369.234 54.2148 368.922 53.8555 368.695 53.4414C368.469 53.0195 368.355 52.5391 368.355 52C368.355 51.4688 368.469 50.9688 368.695 50.5C368.93 50.0312 369.262 49.6172 369.691 49.2578C370.129 48.8906 370.66 48.6055 371.285 48.4023C371.918 48.1914 372.629 48.0859 373.418 48.0859C374.52 48.0859 375.465 48.2617 376.254 48.6133C377.051 48.9648 377.66 49.4492 378.082 50.0664C378.512 50.6758 378.727 51.3711 378.727 52.1523H375.352C375.352 51.8242 375.281 51.5312 375.141 51.2734C375.008 51.0078 374.797 50.8008 374.508 50.6523C374.227 50.4961 373.859 50.418 373.406 50.418C373.031 50.418 372.707 50.4844 372.434 50.6172C372.16 50.7422 371.949 50.9141 371.801 51.1328C371.66 51.3438 371.59 51.5781 371.59 51.8359C371.59 52.0312 371.629 52.207 371.707 52.3633C371.793 52.5117 371.93 52.6484 372.117 52.7734C372.305 52.8984 372.547 53.0156 372.844 53.125C373.148 53.2266 373.523 53.3203 373.969 53.4062C374.883 53.5938 375.699 53.8398 376.418 54.1445C377.137 54.4414 377.707 54.8477 378.129 55.3633C378.551 55.8711 378.762 56.5391 378.762 57.3672C378.762 57.9297 378.637 58.4453 378.387 58.9141C378.137 59.3828 377.777 59.793 377.309 60.1445C376.84 60.4883 376.277 60.7578 375.621 60.9531C374.973 61.1406 374.242 61.2344 373.43 61.2344C372.25 61.2344 371.25 61.0234 370.43 60.6016C369.617 60.1797 369 59.6445 368.578 58.9961C368.164 58.3398 367.957 57.668 367.957 56.9805H371.156C371.172 57.4414 371.289 57.8125 371.508 58.0938C371.734 58.375 372.02 58.5781 372.363 58.7031C372.715 58.8281 373.094 58.8906 373.5 58.8906C373.938 58.8906 374.301 58.832 374.59 58.7148C374.879 58.5898 375.098 58.4258 375.246 58.2227C375.402 58.0117 375.48 57.7695 375.48 57.4961Z" fill="#888888"/>
<path d="M104.344 84.875V119H96.1406V84.875H104.344ZM117.727 99.0078V119H109.828V93.6406H117.234L117.727 99.0078ZM116.766 105.453L114.961 105.5C114.961 103.719 115.172 102.078 115.594 100.578C116.016 99.0781 116.641 97.7734 117.469 96.6641C118.297 95.5547 119.312 94.6953 120.516 94.0859C121.734 93.4766 123.141 93.1719 124.734 93.1719C125.844 93.1719 126.852 93.3438 127.758 93.6875C128.664 94.0156 129.445 94.5391 130.102 95.2578C130.758 95.9609 131.258 96.8828 131.602 98.0234C131.961 99.1484 132.141 100.5 132.141 102.078V119H124.242V103.086C124.242 102.008 124.117 101.195 123.867 100.648C123.633 100.102 123.289 99.7344 122.836 99.5469C122.383 99.3594 121.828 99.2656 121.172 99.2656C120.484 99.2656 119.867 99.4219 119.32 99.7344C118.773 100.047 118.305 100.484 117.914 101.047C117.539 101.594 117.25 102.242 117.047 102.992C116.859 103.742 116.766 104.562 116.766 105.453ZM131.25 105.453L129.047 105.5C129.047 103.719 129.242 102.078 129.633 100.578C130.039 99.0781 130.641 97.7734 131.438 96.6641C132.25 95.5547 133.258 94.6953 134.461 94.0859C135.664 93.4766 137.062 93.1719 138.656 93.1719C139.812 93.1719 140.875 93.3438 141.844 93.6875C142.812 94.0312 143.648 94.5859 144.352 95.3516C145.055 96.1172 145.602 97.1328 145.992 98.3984C146.383 99.6484 146.578 101.195 146.578 103.039V119H138.656V103.039C138.656 101.992 138.531 101.203 138.281 100.672C138.047 100.125 137.703 99.7578 137.25 99.5703C136.797 99.3672 136.258 99.2656 135.633 99.2656C134.883 99.2656 134.234 99.4219 133.688 99.7344C133.141 100.047 132.68 100.484 132.305 101.047C131.945 101.594 131.68 102.242 131.508 102.992C131.336 103.742 131.25 104.562 131.25 105.453ZM159.07 98.5156V128.75H151.172V93.6406H158.531L159.07 98.5156ZM174.633 106.016V106.508C174.633 108.352 174.422 110.062 174 111.641C173.578 113.219 172.953 114.594 172.125 115.766C171.297 116.938 170.266 117.852 169.031 118.508C167.812 119.148 166.398 119.469 164.789 119.469C163.273 119.469 161.969 119.133 160.875 118.461C159.781 117.789 158.867 116.859 158.133 115.672C157.398 114.484 156.805 113.125 156.352 111.594C155.898 110.062 155.539 108.445 155.273 106.742V106.109C155.539 104.281 155.898 102.586 156.352 101.023C156.805 99.4453 157.398 98.0703 158.133 96.8984C158.867 95.7266 159.773 94.8125 160.852 94.1562C161.945 93.5 163.25 93.1719 164.766 93.1719C166.375 93.1719 167.789 93.4766 169.008 94.0859C170.242 94.6953 171.273 95.5703 172.102 96.7109C172.945 97.8359 173.578 99.1875 174 100.766C174.422 102.344 174.633 104.094 174.633 106.016ZM166.734 106.508V106.016C166.734 105.031 166.664 104.133 166.523 103.32C166.383 102.492 166.156 101.773 165.844 101.164C165.547 100.555 165.148 100.086 164.648 99.7578C164.148 99.4297 163.531 99.2656 162.797 99.2656C161.953 99.2656 161.242 99.3984 160.664 99.6641C160.102 99.9141 159.648 100.305 159.305 100.836C158.977 101.352 158.742 102 158.602 102.781C158.477 103.547 158.422 104.445 158.438 105.477V107.398C158.406 108.586 158.523 109.633 158.789 110.539C159.055 111.43 159.516 112.125 160.172 112.625C160.828 113.125 161.719 113.375 162.844 113.375C163.594 113.375 164.219 113.203 164.719 112.859C165.219 112.5 165.617 112.008 165.914 111.383C166.211 110.742 166.422 110.008 166.547 109.18C166.672 108.352 166.734 107.461 166.734 106.508ZM186.492 83V119H178.57V83H186.492ZM203.648 119.469C201.586 119.469 199.742 119.148 198.117 118.508C196.492 117.852 195.117 116.953 193.992 115.812C192.883 114.672 192.031 113.359 191.438 111.875C190.859 110.391 190.57 108.82 190.57 107.164V106.273C190.57 104.414 190.828 102.695 191.344 101.117C191.859 99.5234 192.625 98.1328 193.641 96.9453C194.656 95.7578 195.93 94.8359 197.461 94.1797C198.992 93.5078 200.773 93.1719 202.805 93.1719C204.602 93.1719 206.211 93.4609 207.633 94.0391C209.055 94.6172 210.258 95.4453 211.242 96.5234C212.242 97.6016 213 98.9062 213.516 100.438C214.047 101.969 214.312 103.688 214.312 105.594V108.805H193.594V103.859H206.602V103.25C206.617 102.406 206.469 101.688 206.156 101.094C205.859 100.5 205.422 100.047 204.844 99.7344C204.266 99.4219 203.562 99.2656 202.734 99.2656C201.875 99.2656 201.164 99.4531 200.602 99.8281C200.055 100.203 199.625 100.719 199.312 101.375C199.016 102.016 198.805 102.758 198.68 103.602C198.555 104.445 198.492 105.336 198.492 106.273V107.164C198.492 108.102 198.617 108.953 198.867 109.719C199.133 110.484 199.508 111.141 199.992 111.688C200.492 112.219 201.086 112.633 201.773 112.93C202.477 113.227 203.273 113.375 204.164 113.375C205.242 113.375 206.305 113.172 207.352 112.766C208.398 112.359 209.297 111.688 210.047 110.75L213.633 115.016C213.117 115.75 212.383 116.461 211.43 117.148C210.492 117.836 209.367 118.398 208.055 118.836C206.742 119.258 205.273 119.469 203.648 119.469ZM225.492 99.0078V119H217.594V93.6406H225L225.492 99.0078ZM224.531 105.453L222.727 105.5C222.727 103.719 222.938 102.078 223.359 100.578C223.781 99.0781 224.406 97.7734 225.234 96.6641C226.062 95.5547 227.078 94.6953 228.281 94.0859C229.5 93.4766 230.906 93.1719 232.5 93.1719C233.609 93.1719 234.617 93.3438 235.523 93.6875C236.43 94.0156 237.211 94.5391 237.867 95.2578C238.523 95.9609 239.023 96.8828 239.367 98.0234C239.727 99.1484 239.906 100.5 239.906 102.078V119H232.008V103.086C232.008 102.008 231.883 101.195 231.633 100.648C231.398 100.102 231.055 99.7344 230.602 99.5469C230.148 99.3594 229.594 99.2656 228.938 99.2656C228.25 99.2656 227.633 99.4219 227.086 99.7344C226.539 100.047 226.07 100.484 225.68 101.047C225.305 101.594 225.016 102.242 224.812 102.992C224.625 103.742 224.531 104.562 224.531 105.453ZM239.016 105.453L236.812 105.5C236.812 103.719 237.008 102.078 237.398 100.578C237.805 99.0781 238.406 97.7734 239.203 96.6641C240.016 95.5547 241.023 94.6953 242.227 94.0859C243.43 93.4766 244.828 93.1719 246.422 93.1719C247.578 93.1719 248.641 93.3438 249.609 93.6875C250.578 94.0312 251.414 94.5859 252.117 95.3516C252.82 96.1172 253.367 97.1328 253.758 98.3984C254.148 99.6484 254.344 101.195 254.344 103.039V119H246.422V103.039C246.422 101.992 246.297 101.203 246.047 100.672C245.812 100.125 245.469 99.7578 245.016 99.5703C244.562 99.3672 244.023 99.2656 243.398 99.2656C242.648 99.2656 242 99.4219 241.453 99.7344C240.906 100.047 240.445 100.484 240.07 101.047C239.711 101.594 239.445 102.242 239.273 102.992C239.102 103.742 239.016 104.562 239.016 105.453ZM271.148 119.469C269.086 119.469 267.242 119.148 265.617 118.508C263.992 117.852 262.617 116.953 261.492 115.812C260.383 114.672 259.531 113.359 258.938 111.875C258.359 110.391 258.07 108.82 258.07 107.164V106.273C258.07 104.414 258.328 102.695 258.844 101.117C259.359 99.5234 260.125 98.1328 261.141 96.9453C262.156 95.7578 263.43 94.8359 264.961 94.1797C266.492 93.5078 268.273 93.1719 270.305 93.1719C272.102 93.1719 273.711 93.4609 275.133 94.0391C276.555 94.6172 277.758 95.4453 278.742 96.5234C279.742 97.6016 280.5 98.9062 281.016 100.438C281.547 101.969 281.812 103.688 281.812 105.594V108.805H261.094V103.859H274.102V103.25C274.117 102.406 273.969 101.688 273.656 101.094C273.359 100.5 272.922 100.047 272.344 99.7344C271.766 99.4219 271.062 99.2656 270.234 99.2656C269.375 99.2656 268.664 99.4531 268.102 99.8281C267.555 100.203 267.125 100.719 266.812 101.375C266.516 102.016 266.305 102.758 266.18 103.602C266.055 104.445 265.992 105.336 265.992 106.273V107.164C265.992 108.102 266.117 108.953 266.367 109.719C266.633 110.484 267.008 111.141 267.492 111.688C267.992 112.219 268.586 112.633 269.273 112.93C269.977 113.227 270.773 113.375 271.664 113.375C272.742 113.375 273.805 113.172 274.852 112.766C275.898 112.359 276.797 111.688 277.547 110.75L281.133 115.016C280.617 115.75 279.883 116.461 278.93 117.148C277.992 117.836 276.867 118.398 275.555 118.836C274.242 119.258 272.773 119.469 271.148 119.469ZM292.781 99.0547V119H284.883V93.6406H292.289L292.781 99.0547ZM291.844 105.453L289.992 105.5C289.992 103.562 290.227 101.836 290.695 100.32C291.164 98.7891 291.828 97.4922 292.688 96.4297C293.547 95.3672 294.57 94.5625 295.758 94.0156C296.961 93.4531 298.297 93.1719 299.766 93.1719C300.938 93.1719 302.008 93.3438 302.977 93.6875C303.961 94.0312 304.805 94.5859 305.508 95.3516C306.227 96.1172 306.773 97.1328 307.148 98.3984C307.539 99.6484 307.734 101.195 307.734 103.039V119H299.789V103.016C299.789 102 299.648 101.227 299.367 100.695C299.086 100.148 298.68 99.7734 298.148 99.5703C297.617 99.3672 296.969 99.2656 296.203 99.2656C295.391 99.2656 294.703 99.4219 294.141 99.7344C293.578 100.047 293.125 100.484 292.781 101.047C292.453 101.594 292.211 102.242 292.055 102.992C291.914 103.742 291.844 104.562 291.844 105.453ZM325.477 93.6406V99.125H310.195V93.6406H325.477ZM313.406 87.3359H321.305V110.727C321.305 111.398 321.383 111.922 321.539 112.297C321.695 112.656 321.961 112.914 322.336 113.07C322.727 113.211 323.242 113.281 323.883 113.281C324.336 113.281 324.711 113.273 325.008 113.258C325.305 113.227 325.586 113.188 325.852 113.141V118.789C325.18 119.008 324.477 119.172 323.742 119.281C323.008 119.406 322.227 119.469 321.398 119.469C319.711 119.469 318.266 119.203 317.062 118.672C315.875 118.141 314.969 117.305 314.344 116.164C313.719 115.023 313.406 113.539 313.406 111.711V87.3359ZM341.789 112.625V102.172C341.789 101.453 341.688 100.836 341.484 100.32C341.281 99.8047 340.961 99.4062 340.523 99.125C340.086 98.8281 339.5 98.6797 338.766 98.6797C338.172 98.6797 337.664 98.7812 337.242 98.9844C336.82 99.1875 336.5 99.4922 336.281 99.8984C336.062 100.305 335.953 100.82 335.953 101.445H328.055C328.055 100.273 328.312 99.1875 328.828 98.1875C329.359 97.1719 330.109 96.2891 331.078 95.5391C332.062 94.7891 333.234 94.2109 334.594 93.8047C335.969 93.3828 337.5 93.1719 339.188 93.1719C341.203 93.1719 343 93.5078 344.578 94.1797C346.172 94.8516 347.43 95.8594 348.352 97.2031C349.273 98.5312 349.734 100.203 349.734 102.219V112.602C349.734 114.258 349.828 115.516 350.016 116.375C350.203 117.219 350.469 117.961 350.812 118.602V119H342.891C342.516 118.219 342.234 117.266 342.047 116.141C341.875 115 341.789 113.828 341.789 112.625ZM342.75 103.508L342.797 107.727H339.305C338.57 107.727 337.945 107.828 337.43 108.031C336.93 108.234 336.523 108.516 336.211 108.875C335.914 109.219 335.695 109.609 335.555 110.047C335.43 110.484 335.367 110.945 335.367 111.43C335.367 111.898 335.477 112.32 335.695 112.695C335.93 113.055 336.242 113.336 336.633 113.539C337.023 113.742 337.461 113.844 337.945 113.844C338.82 113.844 339.562 113.68 340.172 113.352C340.797 113.008 341.273 112.594 341.602 112.109C341.93 111.625 342.094 111.172 342.094 110.75L343.828 113.984C343.516 114.609 343.156 115.242 342.75 115.883C342.359 116.523 341.867 117.117 341.273 117.664C340.695 118.195 339.984 118.633 339.141 118.977C338.297 119.305 337.273 119.469 336.07 119.469C334.508 119.469 333.07 119.148 331.758 118.508C330.461 117.867 329.422 116.977 328.641 115.836C327.859 114.68 327.469 113.352 327.469 111.852C327.469 110.539 327.703 109.367 328.172 108.336C328.656 107.305 329.383 106.43 330.352 105.711C331.32 104.992 332.555 104.445 334.055 104.07C335.555 103.695 337.32 103.508 339.352 103.508H342.75ZM367.477 93.6406V99.125H352.195V93.6406H367.477ZM355.406 87.3359H363.305V110.727C363.305 111.398 363.383 111.922 363.539 112.297C363.695 112.656 363.961 112.914 364.336 113.07C364.727 113.211 365.242 113.281 365.883 113.281C366.336 113.281 366.711 113.273 367.008 113.258C367.305 113.227 367.586 113.188 367.852 113.141V118.789C367.18 119.008 366.477 119.172 365.742 119.281C365.008 119.406 364.227 119.469 363.398 119.469C361.711 119.469 360.266 119.203 359.062 118.672C357.875 118.141 356.969 117.305 356.344 116.164C355.719 115.023 355.406 113.539 355.406 111.711V87.3359ZM378.961 93.6406V119H371.039V93.6406H378.961ZM370.57 87.1016C370.57 85.9766 370.977 85.0547 371.789 84.3359C372.602 83.6172 373.656 83.2578 374.953 83.2578C376.25 83.2578 377.305 83.6172 378.117 84.3359C378.93 85.0547 379.336 85.9766 379.336 87.1016C379.336 88.2266 378.93 89.1484 378.117 89.8672C377.305 90.5859 376.25 90.9453 374.953 90.9453C373.656 90.9453 372.602 90.5859 371.789 89.8672C370.977 89.1484 370.57 88.2266 370.57 87.1016ZM382.852 106.578V106.086C382.852 104.227 383.117 102.516 383.648 100.953C384.18 99.375 384.961 98.0078 385.992 96.8516C387.023 95.6953 388.297 94.7969 389.812 94.1562C391.328 93.5 393.078 93.1719 395.062 93.1719C397.062 93.1719 398.82 93.5 400.336 94.1562C401.867 94.7969 403.148 95.6953 404.18 96.8516C405.211 98.0078 405.992 99.375 406.523 100.953C407.055 102.516 407.32 104.227 407.32 106.086V106.578C407.32 108.422 407.055 110.133 406.523 111.711C405.992 113.273 405.211 114.641 404.18 115.812C403.148 116.969 401.875 117.867 400.359 118.508C398.844 119.148 397.094 119.469 395.109 119.469C393.125 119.469 391.367 119.148 389.836 118.508C388.305 117.867 387.023 116.969 385.992 115.812C384.961 114.641 384.18 113.273 383.648 111.711C383.117 110.133 382.852 108.422 382.852 106.578ZM390.75 106.086V106.578C390.75 107.531 390.82 108.422 390.961 109.25C391.102 110.078 391.336 110.805 391.664 111.43C391.992 112.039 392.438 112.516 393 112.859C393.562 113.203 394.266 113.375 395.109 113.375C395.938 113.375 396.625 113.203 397.172 112.859C397.734 112.516 398.18 112.039 398.508 111.43C398.836 110.805 399.07 110.078 399.211 109.25C399.352 108.422 399.422 107.531 399.422 106.578V106.086C399.422 105.164 399.352 104.297 399.211 103.484C399.07 102.656 398.836 101.93 398.508 101.305C398.18 100.664 397.734 100.164 397.172 99.8047C396.609 99.4453 395.906 99.2656 395.062 99.2656C394.234 99.2656 393.539 99.4453 392.977 99.8047C392.43 100.164 391.992 100.664 391.664 101.305C391.336 101.93 391.102 102.656 390.961 103.484C390.82 104.297 390.75 105.164 390.75 106.086ZM418.594 99.0547V119H410.695V93.6406H418.102L418.594 99.0547ZM417.656 105.453L415.805 105.5C415.805 103.562 416.039 101.836 416.508 100.32C416.977 98.7891 417.641 97.4922 418.5 96.4297C419.359 95.3672 420.383 94.5625 421.57 94.0156C422.773 93.4531 424.109 93.1719 425.578 93.1719C426.75 93.1719 427.82 93.3438 428.789 93.6875C429.773 94.0312 430.617 94.5859 431.32 95.3516C432.039 96.1172 432.586 97.1328 432.961 98.3984C433.352 99.6484 433.547 101.195 433.547 103.039V119H425.602V103.016C425.602 102 425.461 101.227 425.18 100.695C424.898 100.148 424.492 99.7734 423.961 99.5703C423.43 99.3672 422.781 99.2656 422.016 99.2656C421.203 99.2656 420.516 99.4219 419.953 99.7344C419.391 100.047 418.938 100.484 418.594 101.047C418.266 101.594 418.023 102.242 417.867 102.992C417.727 103.742 417.656 104.562 417.656 105.453Z" fill="black"/>
<path d="M1134 0H1348C1356.28 0 1363 6.71573 1363 15V148C1363 156.284 1356.28 163 1348 163H1134V0Z" fill="#D62828"/>
<path d="M1281 46.5H1216L1213.5 49V114L1216 116.5H1281L1283.5 114V49L1281 46.5ZM1278.5 111.5H1233.5V101.5H1245C1246.5 104.5 1250 106.5 1253.5 106.5C1259 106.5 1263.5 102 1263.5 96.5C1263.5 91 1259 86.5 1253.5 86.5C1248 86.5 1243.5 91 1243.5 96.5H1228.5V111.5H1218.5V51.5H1228.5V63C1225.5 64.5 1223.5 68 1223.5 71.5C1223.5 77 1228 81.5 1233.5 81.5C1239 81.5 1243.5 77 1243.5 71.5H1253.5C1253.5 77 1258 81.5 1263.5 81.5C1269 81.5 1273.5 77 1273.5 71.5C1273.5 66 1269 61.5 1263.5 61.5C1260 61.5 1256.5 63.5 1255 66.5H1242C1240.5 63.5 1237 61.5 1233.5 61.5V51.5H1278.5V111.5ZM1248.5 96.5C1248.5 93.5 1250.5 91.5 1253.5 91.5C1256.5 91.5 1258.5 93.5 1258.5 96.5C1258.5 99.5 1256.5 101.5 1253.5 101.5C1250.5 101.5 1248.5 99.5 1248.5 96.5ZM1233.5 66.5C1236.5 66.5 1238.5 68.5 1238.5 71.5C1238.5 74.5 1236.5 76.5 1233.5 76.5C1230.5 76.5 1228.5 74.5 1228.5 71.5C1228.5 68.5 1230.5 66.5 1233.5 66.5ZM1263.5 66.5C1266.5 66.5 1268.5 68.5 1268.5 71.5C1268.5 74.5 1266.5 76.5 1263.5 76.5C1260.5 76.5 1258.5 74.5 1258.5 71.5C1258.5 68.5 1260.5 66.5 1263.5 66.5Z" fill="white"/>
</svg>
