<svg width="1363" height="163" viewBox="0 0 1363 163" fill="none" xmlns="http://www.w3.org/2000/svg">
<path d="M0 15C0 6.71573 6.71573 0 15 0H37V163H15C6.71573 163 0 156.284 0 148V15Z" fill="#D62828"/>
<rect width="1097" height="163" transform="translate(37)" fill="#F0F0F0"/>
<path d="M101.906 53.9219L94.3945 51.2383V48.0859L104.602 52.375V54.6367L101.906 53.9219ZM94.3945 56.1719L101.918 53.4297L104.602 52.7852V55.0352L94.3945 59.3242V56.1719ZM109.266 43.9375L112.828 51.7188L116.391 43.9375H120.223L114.609 54.7891V61H111.047V54.7891L105.422 43.9375H109.266ZM126.633 61.2344C125.648 61.2344 124.766 61.0781 123.984 60.7656C123.203 60.4453 122.539 60.0039 121.992 59.4414C121.453 58.8789 121.039 58.2266 120.75 57.4844C120.461 56.7344 120.316 55.9375 120.316 55.0938V54.625C120.316 53.6641 120.453 52.7852 120.727 51.9883C121 51.1914 121.391 50.5 121.898 49.9141C122.414 49.3281 123.039 48.8789 123.773 48.5664C124.508 48.2461 125.336 48.0859 126.258 48.0859C127.156 48.0859 127.953 48.2344 128.648 48.5312C129.344 48.8281 129.926 49.25 130.395 49.7969C130.871 50.3438 131.23 51 131.473 51.7656C131.715 52.5234 131.836 53.3672 131.836 54.2969V55.7031H121.758V53.4531H128.52V53.1953C128.52 52.7266 128.434 52.3086 128.262 51.9414C128.098 51.5664 127.848 51.2695 127.512 51.0508C127.176 50.832 126.746 50.7227 126.223 50.7227C125.777 50.7227 125.395 50.8203 125.074 51.0156C124.754 51.2109 124.492 51.4844 124.289 51.8359C124.094 52.1875 123.945 52.6016 123.844 53.0781C123.75 53.5469 123.703 54.0625 123.703 54.625V55.0938C123.703 55.6016 123.773 56.0703 123.914 56.5C124.062 56.9297 124.27 57.3008 124.535 57.6133C124.809 57.9258 125.137 58.168 125.52 58.3398C125.91 58.5117 126.352 58.5977 126.844 58.5977C127.453 58.5977 128.02 58.4805 128.543 58.2461C129.074 58.0039 129.531 57.6406 129.914 57.1562L131.555 58.9375C131.289 59.3203 130.926 59.6875 130.465 60.0391C130.012 60.3906 129.465 60.6797 128.824 60.9062C128.184 61.125 127.453 61.2344 126.633 61.2344ZM137.32 43V61H133.934V43H137.32ZM143.484 50.7578V65.875H140.109V48.3203H143.238L143.484 50.7578ZM151.512 54.5195V54.7656C151.512 55.6875 151.402 56.543 151.184 57.332C150.973 58.1211 150.66 58.8086 150.246 59.3945C149.832 59.9727 149.316 60.4258 148.699 60.7539C148.09 61.0742 147.387 61.2344 146.59 61.2344C145.816 61.2344 145.145 61.0781 144.574 60.7656C144.004 60.4531 143.523 60.0156 143.133 59.4531C142.75 58.8828 142.441 58.2227 142.207 57.4727C141.973 56.7227 141.793 55.918 141.668 55.0586V54.4141C141.793 53.4922 141.973 52.6484 142.207 51.8828C142.441 51.1094 142.75 50.4414 143.133 49.8789C143.523 49.3086 144 48.8672 144.562 48.5547C145.133 48.2422 145.801 48.0859 146.566 48.0859C147.371 48.0859 148.078 48.2383 148.688 48.543C149.305 48.8477 149.82 49.2852 150.234 49.8555C150.656 50.4258 150.973 51.1055 151.184 51.8945C151.402 52.6836 151.512 53.5586 151.512 54.5195ZM148.125 54.7656V54.5195C148.125 53.9805 148.078 53.4844 147.984 53.0312C147.898 52.5703 147.758 52.168 147.562 51.8242C147.375 51.4805 147.125 51.2148 146.812 51.0273C146.508 50.832 146.137 50.7344 145.699 50.7344C145.238 50.7344 144.844 50.8086 144.516 50.957C144.195 51.1055 143.934 51.3203 143.73 51.6016C143.527 51.8828 143.375 52.2188 143.273 52.6094C143.172 53 143.109 53.4414 143.086 53.9336V55.5625C143.125 56.1406 143.234 56.6602 143.414 57.1211C143.594 57.5742 143.871 57.9336 144.246 58.1992C144.621 58.4648 145.113 58.5977 145.723 58.5977C146.168 58.5977 146.543 58.5 146.848 58.3047C147.152 58.1016 147.398 57.8242 147.586 57.4727C147.781 57.1211 147.918 56.7148 147.996 56.2539C148.082 55.793 148.125 55.2969 148.125 54.7656ZM159.797 43.9375H166.16C167.465 43.9375 168.586 44.1328 169.523 44.5234C170.469 44.9141 171.195 45.4922 171.703 46.2578C172.211 47.0234 172.465 47.9648 172.465 49.082C172.465 49.9961 172.309 50.7812 171.996 51.4375C171.691 52.0859 171.258 52.6289 170.695 53.0664C170.141 53.4961 169.488 53.8398 168.738 54.0977L167.625 54.6836H162.094L162.07 51.9414H166.184C166.801 51.9414 167.312 51.832 167.719 51.6133C168.125 51.3945 168.43 51.0898 168.633 50.6992C168.844 50.3086 168.949 49.8555 168.949 49.3398C168.949 48.793 168.848 48.3203 168.645 47.9219C168.441 47.5234 168.133 47.2188 167.719 47.0078C167.305 46.7969 166.785 46.6914 166.16 46.6914H163.312V61H159.797V43.9375ZM169.336 61L165.445 53.3945L169.16 53.3711L173.098 60.8359V61H169.336ZM180.797 61.2344C179.812 61.2344 178.93 61.0781 178.148 60.7656C177.367 60.4453 176.703 60.0039 176.156 59.4414C175.617 58.8789 175.203 58.2266 174.914 57.4844C174.625 56.7344 174.48 55.9375 174.48 55.0938V54.625C174.48 53.6641 174.617 52.7852 174.891 51.9883C175.164 51.1914 175.555 50.5 176.062 49.9141C176.578 49.3281 177.203 48.8789 177.938 48.5664C178.672 48.2461 179.5 48.0859 180.422 48.0859C181.32 48.0859 182.117 48.2344 182.812 48.5312C183.508 48.8281 184.09 49.25 184.559 49.7969C185.035 50.3438 185.395 51 185.637 51.7656C185.879 52.5234 186 53.3672 186 54.2969V55.7031H175.922V53.4531H182.684V53.1953C182.684 52.7266 182.598 52.3086 182.426 51.9414C182.262 51.5664 182.012 51.2695 181.676 51.0508C181.34 50.832 180.91 50.7227 180.387 50.7227C179.941 50.7227 179.559 50.8203 179.238 51.0156C178.918 51.2109 178.656 51.4844 178.453 51.8359C178.258 52.1875 178.109 52.6016 178.008 53.0781C177.914 53.5469 177.867 54.0625 177.867 54.625V55.0938C177.867 55.6016 177.938 56.0703 178.078 56.5C178.227 56.9297 178.434 57.3008 178.699 57.6133C178.973 57.9258 179.301 58.168 179.684 58.3398C180.074 58.5117 180.516 58.5977 181.008 58.5977C181.617 58.5977 182.184 58.4805 182.707 58.2461C183.238 58.0039 183.695 57.6406 184.078 57.1562L185.719 58.9375C185.453 59.3203 185.09 59.6875 184.629 60.0391C184.176 60.3906 183.629 60.6797 182.988 60.9062C182.348 61.125 181.617 61.2344 180.797 61.2344ZM194.777 57.4961C194.777 57.2539 194.707 57.0352 194.566 56.8398C194.426 56.6445 194.164 56.4648 193.781 56.3008C193.406 56.1289 192.863 55.9727 192.152 55.832C191.512 55.6914 190.914 55.5156 190.359 55.3047C189.812 55.0859 189.336 54.8242 188.93 54.5195C188.531 54.2148 188.219 53.8555 187.992 53.4414C187.766 53.0195 187.652 52.5391 187.652 52C187.652 51.4688 187.766 50.9688 187.992 50.5C188.227 50.0312 188.559 49.6172 188.988 49.2578C189.426 48.8906 189.957 48.6055 190.582 48.4023C191.215 48.1914 191.926 48.0859 192.715 48.0859C193.816 48.0859 194.762 48.2617 195.551 48.6133C196.348 48.9648 196.957 49.4492 197.379 50.0664C197.809 50.6758 198.023 51.3711 198.023 52.1523H194.648C194.648 51.8242 194.578 51.5312 194.438 51.2734C194.305 51.0078 194.094 50.8008 193.805 50.6523C193.523 50.4961 193.156 50.418 192.703 50.418C192.328 50.418 192.004 50.4844 191.73 50.6172C191.457 50.7422 191.246 50.9141 191.098 51.1328C190.957 51.3438 190.887 51.5781 190.887 51.8359C190.887 52.0312 190.926 52.207 191.004 52.3633C191.09 52.5117 191.227 52.6484 191.414 52.7734C191.602 52.8984 191.844 53.0156 192.141 53.125C192.445 53.2266 192.82 53.3203 193.266 53.4062C194.18 53.5938 194.996 53.8398 195.715 54.1445C196.434 54.4414 197.004 54.8477 197.426 55.3633C197.848 55.8711 198.059 56.5391 198.059 57.3672C198.059 57.9297 197.934 58.4453 197.684 58.9141C197.434 59.3828 197.074 59.793 196.605 60.1445C196.137 60.4883 195.574 60.7578 194.918 60.9531C194.27 61.1406 193.539 61.2344 192.727 61.2344C191.547 61.2344 190.547 61.0234 189.727 60.6016C188.914 60.1797 188.297 59.6445 187.875 58.9961C187.461 58.3398 187.254 57.668 187.254 56.9805H190.453C190.469 57.4414 190.586 57.8125 190.805 58.0938C191.031 58.375 191.316 58.5781 191.66 58.7031C192.012 58.8281 192.391 58.8906 192.797 58.8906C193.234 58.8906 193.598 58.832 193.887 58.7148C194.176 58.5898 194.395 58.4258 194.543 58.2227C194.699 58.0117 194.777 57.7695 194.777 57.4961ZM206.461 48.3203V50.7109H199.078V48.3203H206.461ZM200.906 45.1914H204.281V57.1797C204.281 57.5469 204.328 57.8281 204.422 58.0234C204.523 58.2188 204.672 58.3555 204.867 58.4336C205.062 58.5039 205.309 58.5391 205.605 58.5391C205.816 58.5391 206.004 58.5312 206.168 58.5156C206.34 58.4922 206.484 58.4688 206.602 58.4453L206.613 60.9297C206.324 61.0234 206.012 61.0977 205.676 61.1523C205.34 61.207 204.969 61.2344 204.562 61.2344C203.82 61.2344 203.172 61.1133 202.617 60.8711C202.07 60.6211 201.648 60.2227 201.352 59.6758C201.055 59.1289 200.906 58.4102 200.906 57.5195V45.1914ZM215.227 58.1406V52.4922C215.227 52.0859 215.16 51.7383 215.027 51.4492C214.895 51.1523 214.688 50.9219 214.406 50.7578C214.133 50.5938 213.777 50.5117 213.34 50.5117C212.965 50.5117 212.641 50.5781 212.367 50.7109C212.094 50.8359 211.883 51.0195 211.734 51.2617C211.586 51.4961 211.512 51.7734 211.512 52.0938H208.137C208.137 51.5547 208.262 51.043 208.512 50.5586C208.762 50.0742 209.125 49.6484 209.602 49.2812C210.078 48.9062 210.645 48.6133 211.301 48.4023C211.965 48.1914 212.707 48.0859 213.527 48.0859C214.512 48.0859 215.387 48.25 216.152 48.5781C216.918 48.9062 217.52 49.3984 217.957 50.0547C218.402 50.7109 218.625 51.5312 218.625 52.5156V57.9414C218.625 58.6367 218.668 59.207 218.754 59.6523C218.84 60.0898 218.965 60.4727 219.129 60.8008V61H215.719C215.555 60.6562 215.43 60.2266 215.344 59.7109C215.266 59.1875 215.227 58.6641 215.227 58.1406ZM215.672 53.2773L215.695 55.1875H213.809C213.363 55.1875 212.977 55.2383 212.648 55.3398C212.32 55.4414 212.051 55.5859 211.84 55.7734C211.629 55.9531 211.473 56.1641 211.371 56.4062C211.277 56.6484 211.23 56.9141 211.23 57.2031C211.23 57.4922 211.297 57.7539 211.43 57.9883C211.562 58.2148 211.754 58.3945 212.004 58.5273C212.254 58.6523 212.547 58.7148 212.883 58.7148C213.391 58.7148 213.832 58.6133 214.207 58.4102C214.582 58.207 214.871 57.957 215.074 57.6602C215.285 57.3633 215.395 57.082 215.402 56.8164L216.293 58.2461C216.168 58.5664 215.996 58.8984 215.777 59.2422C215.566 59.5859 215.297 59.9102 214.969 60.2148C214.641 60.5117 214.246 60.7578 213.785 60.9531C213.324 61.1406 212.777 61.2344 212.145 61.2344C211.34 61.2344 210.609 61.0742 209.953 60.7539C209.305 60.4258 208.789 59.9766 208.406 59.4062C208.031 58.8281 207.844 58.1719 207.844 57.4375C207.844 56.7734 207.969 56.1836 208.219 55.668C208.469 55.1523 208.836 54.7188 209.32 54.3672C209.812 54.0078 210.426 53.7383 211.16 53.5586C211.895 53.3711 212.746 53.2773 213.715 53.2773H215.672ZM228.727 57.9648V48.3203H232.102V61H228.926L228.727 57.9648ZM229.102 55.3633L230.098 55.3398C230.098 56.1836 230 56.9688 229.805 57.6953C229.609 58.4141 229.316 59.0391 228.926 59.5703C228.535 60.0938 228.043 60.5039 227.449 60.8008C226.855 61.0898 226.156 61.2344 225.352 61.2344C224.734 61.2344 224.164 61.1484 223.641 60.9766C223.125 60.7969 222.68 60.5195 222.305 60.1445C221.938 59.7617 221.648 59.2734 221.438 58.6797C221.234 58.0781 221.133 57.3555 221.133 56.5117V48.3203H224.508V56.5352C224.508 56.9102 224.551 57.2266 224.637 57.4844C224.73 57.7422 224.859 57.9531 225.023 58.1172C225.188 58.2812 225.379 58.3984 225.598 58.4688C225.824 58.5391 226.074 58.5742 226.348 58.5742C227.043 58.5742 227.59 58.4336 227.988 58.1523C228.395 57.8711 228.68 57.4883 228.844 57.0039C229.016 56.5117 229.102 55.9648 229.102 55.3633ZM238.055 51.0859V61H234.68V48.3203H237.855L238.055 51.0859ZM241.875 48.2383L241.816 51.3672C241.652 51.3438 241.453 51.3242 241.219 51.3086C240.992 51.2852 240.785 51.2734 240.598 51.2734C240.121 51.2734 239.707 51.3359 239.355 51.4609C239.012 51.5781 238.723 51.7539 238.488 51.9883C238.262 52.2227 238.09 52.5078 237.973 52.8438C237.863 53.1797 237.801 53.5625 237.785 53.9922L237.105 53.7812C237.105 52.9609 237.188 52.207 237.352 51.5195C237.516 50.8242 237.754 50.2188 238.066 49.7031C238.387 49.1875 238.777 48.7891 239.238 48.5078C239.699 48.2266 240.227 48.0859 240.82 48.0859C241.008 48.0859 241.199 48.1016 241.395 48.1328C241.59 48.1562 241.75 48.1914 241.875 48.2383ZM249.914 58.1406V52.4922C249.914 52.0859 249.848 51.7383 249.715 51.4492C249.582 51.1523 249.375 50.9219 249.094 50.7578C248.82 50.5938 248.465 50.5117 248.027 50.5117C247.652 50.5117 247.328 50.5781 247.055 50.7109C246.781 50.8359 246.57 51.0195 246.422 51.2617C246.273 51.4961 246.199 51.7734 246.199 52.0938H242.824C242.824 51.5547 242.949 51.043 243.199 50.5586C243.449 50.0742 243.812 49.6484 244.289 49.2812C244.766 48.9062 245.332 48.6133 245.988 48.4023C246.652 48.1914 247.395 48.0859 248.215 48.0859C249.199 48.0859 250.074 48.25 250.84 48.5781C251.605 48.9062 252.207 49.3984 252.645 50.0547C253.09 50.7109 253.312 51.5312 253.312 52.5156V57.9414C253.312 58.6367 253.355 59.207 253.441 59.6523C253.527 60.0898 253.652 60.4727 253.816 60.8008V61H250.406C250.242 60.6562 250.117 60.2266 250.031 59.7109C249.953 59.1875 249.914 58.6641 249.914 58.1406ZM250.359 53.2773L250.383 55.1875H248.496C248.051 55.1875 247.664 55.2383 247.336 55.3398C247.008 55.4414 246.738 55.5859 246.527 55.7734C246.316 55.9531 246.16 56.1641 246.059 56.4062C245.965 56.6484 245.918 56.9141 245.918 57.2031C245.918 57.4922 245.984 57.7539 246.117 57.9883C246.25 58.2148 246.441 58.3945 246.691 58.5273C246.941 58.6523 247.234 58.7148 247.57 58.7148C248.078 58.7148 248.52 58.6133 248.895 58.4102C249.27 58.207 249.559 57.957 249.762 57.6602C249.973 57.3633 250.082 57.082 250.09 56.8164L250.98 58.2461C250.855 58.5664 250.684 58.8984 250.465 59.2422C250.254 59.5859 249.984 59.9102 249.656 60.2148C249.328 60.5117 248.934 60.7578 248.473 60.9531C248.012 61.1406 247.465 61.2344 246.832 61.2344C246.027 61.2344 245.297 61.0742 244.641 60.7539C243.992 60.4258 243.477 59.9766 243.094 59.4062C242.719 58.8281 242.531 58.1719 242.531 57.4375C242.531 56.7734 242.656 56.1836 242.906 55.668C243.156 55.1523 243.523 54.7188 244.008 54.3672C244.5 54.0078 245.113 53.7383 245.848 53.5586C246.582 53.3711 247.434 53.2773 248.402 53.2773H250.359ZM259.219 51.0273V61H255.844V48.3203H259.008L259.219 51.0273ZM258.727 54.2148H257.812C257.812 53.2773 257.934 52.4336 258.176 51.6836C258.418 50.9258 258.758 50.2812 259.195 49.75C259.633 49.2109 260.152 48.8008 260.754 48.5195C261.363 48.2305 262.043 48.0859 262.793 48.0859C263.387 48.0859 263.93 48.1719 264.422 48.3438C264.914 48.5156 265.336 48.7891 265.688 49.1641C266.047 49.5391 266.32 50.0352 266.508 50.6523C266.703 51.2695 266.801 52.0234 266.801 52.9141V61H263.402V52.9023C263.402 52.3398 263.324 51.9023 263.168 51.5898C263.012 51.2773 262.781 51.0586 262.477 50.9336C262.18 50.8008 261.812 50.7344 261.375 50.7344C260.922 50.7344 260.527 50.8242 260.191 51.0039C259.863 51.1836 259.59 51.4336 259.371 51.7539C259.16 52.0664 259 52.4336 258.891 52.8555C258.781 53.2773 258.727 53.7305 258.727 54.2148ZM275.578 48.3203V50.7109H268.195V48.3203H275.578ZM270.023 45.1914H273.398V57.1797C273.398 57.5469 273.445 57.8281 273.539 58.0234C273.641 58.2188 273.789 58.3555 273.984 58.4336C274.18 58.5039 274.426 58.5391 274.723 58.5391C274.934 58.5391 275.121 58.5312 275.285 58.5156C275.457 58.4922 275.602 58.4688 275.719 58.4453L275.73 60.9297C275.441 61.0234 275.129 61.0977 274.793 61.1523C274.457 61.207 274.086 61.2344 273.68 61.2344C272.938 61.2344 272.289 61.1133 271.734 60.8711C271.188 60.6211 270.766 60.2227 270.469 59.6758C270.172 59.1289 270.023 58.4102 270.023 57.5195V45.1914ZM290.625 46.8555L285.984 61H282.246L288.586 43.9375H290.965L290.625 46.8555ZM294.48 61L289.828 46.8555L289.453 43.9375H291.855L298.23 61H294.48ZM294.27 54.6484V57.4023H285.258V54.6484H294.27ZM302.531 51.0273V61H299.156V48.3203H302.32L302.531 51.0273ZM302.039 54.2148H301.125C301.125 53.2773 301.246 52.4336 301.488 51.6836C301.73 50.9258 302.07 50.2812 302.508 49.75C302.945 49.2109 303.465 48.8008 304.066 48.5195C304.676 48.2305 305.355 48.0859 306.105 48.0859C306.699 48.0859 307.242 48.1719 307.734 48.3438C308.227 48.5156 308.648 48.7891 309 49.1641C309.359 49.5391 309.633 50.0352 309.82 50.6523C310.016 51.2695 310.113 52.0234 310.113 52.9141V61H306.715V52.9023C306.715 52.3398 306.637 51.9023 306.48 51.5898C306.324 51.2773 306.094 51.0586 305.789 50.9336C305.492 50.8008 305.125 50.7344 304.688 50.7344C304.234 50.7344 303.84 50.8242 303.504 51.0039C303.176 51.1836 302.902 51.4336 302.684 51.7539C302.473 52.0664 302.312 52.4336 302.203 52.8555C302.094 53.2773 302.039 53.7305 302.039 54.2148ZM319.523 58.1406V52.4922C319.523 52.0859 319.457 51.7383 319.324 51.4492C319.191 51.1523 318.984 50.9219 318.703 50.7578C318.43 50.5938 318.074 50.5117 317.637 50.5117C317.262 50.5117 316.938 50.5781 316.664 50.7109C316.391 50.8359 316.18 51.0195 316.031 51.2617C315.883 51.4961 315.809 51.7734 315.809 52.0938H312.434C312.434 51.5547 312.559 51.043 312.809 50.5586C313.059 50.0742 313.422 49.6484 313.898 49.2812C314.375 48.9062 314.941 48.6133 315.598 48.4023C316.262 48.1914 317.004 48.0859 317.824 48.0859C318.809 48.0859 319.684 48.25 320.449 48.5781C321.215 48.9062 321.816 49.3984 322.254 50.0547C322.699 50.7109 322.922 51.5312 322.922 52.5156V57.9414C322.922 58.6367 322.965 59.207 323.051 59.6523C323.137 60.0898 323.262 60.4727 323.426 60.8008V61H320.016C319.852 60.6562 319.727 60.2266 319.641 59.7109C319.562 59.1875 319.523 58.6641 319.523 58.1406ZM319.969 53.2773L319.992 55.1875H318.105C317.66 55.1875 317.273 55.2383 316.945 55.3398C316.617 55.4414 316.348 55.5859 316.137 55.7734C315.926 55.9531 315.77 56.1641 315.668 56.4062C315.574 56.6484 315.527 56.9141 315.527 57.2031C315.527 57.4922 315.594 57.7539 315.727 57.9883C315.859 58.2148 316.051 58.3945 316.301 58.5273C316.551 58.6523 316.844 58.7148 317.18 58.7148C317.688 58.7148 318.129 58.6133 318.504 58.4102C318.879 58.207 319.168 57.957 319.371 57.6602C319.582 57.3633 319.691 57.082 319.699 56.8164L320.59 58.2461C320.465 58.5664 320.293 58.8984 320.074 59.2422C319.863 59.5859 319.594 59.9102 319.266 60.2148C318.938 60.5117 318.543 60.7578 318.082 60.9531C317.621 61.1406 317.074 61.2344 316.441 61.2344C315.637 61.2344 314.906 61.0742 314.25 60.7539C313.602 60.4258 313.086 59.9766 312.703 59.4062C312.328 58.8281 312.141 58.1719 312.141 57.4375C312.141 56.7734 312.266 56.1836 312.516 55.668C312.766 55.1523 313.133 54.7188 313.617 54.3672C314.109 54.0078 314.723 53.7383 315.457 53.5586C316.191 53.3711 317.043 53.2773 318.012 53.2773H319.969ZM329.086 43V61H325.699V43H329.086ZM335.637 59.5703L339 48.3203H342.621L337.523 62.9102C337.414 63.2305 337.266 63.5742 337.078 63.9414C336.898 64.3086 336.652 64.6562 336.34 64.9844C336.035 65.3203 335.648 65.5938 335.18 65.8047C334.719 66.0156 334.152 66.1211 333.48 66.1211C333.16 66.1211 332.898 66.1016 332.695 66.0625C332.492 66.0234 332.25 65.9688 331.969 65.8984V63.4258C332.055 63.4258 332.145 63.4258 332.238 63.4258C332.332 63.4336 332.422 63.4375 332.508 63.4375C332.953 63.4375 333.316 63.3867 333.598 63.2852C333.879 63.1836 334.105 63.0273 334.277 62.8164C334.449 62.6133 334.586 62.3477 334.688 62.0195L335.637 59.5703ZM334.23 48.3203L336.984 57.5078L337.465 61.082L335.168 61.3281L330.609 48.3203H334.23ZM350.824 57.4961C350.824 57.2539 350.754 57.0352 350.613 56.8398C350.473 56.6445 350.211 56.4648 349.828 56.3008C349.453 56.1289 348.91 55.9727 348.199 55.832C347.559 55.6914 346.961 55.5156 346.406 55.3047C345.859 55.0859 345.383 54.8242 344.977 54.5195C344.578 54.2148 344.266 53.8555 344.039 53.4414C343.812 53.0195 343.699 52.5391 343.699 52C343.699 51.4688 343.812 50.9688 344.039 50.5C344.273 50.0312 344.605 49.6172 345.035 49.2578C345.473 48.8906 346.004 48.6055 346.629 48.4023C347.262 48.1914 347.973 48.0859 348.762 48.0859C349.863 48.0859 350.809 48.2617 351.598 48.6133C352.395 48.9648 353.004 49.4492 353.426 50.0664C353.855 50.6758 354.07 51.3711 354.07 52.1523H350.695C350.695 51.8242 350.625 51.5312 350.484 51.2734C350.352 51.0078 350.141 50.8008 349.852 50.6523C349.57 50.4961 349.203 50.418 348.75 50.418C348.375 50.418 348.051 50.4844 347.777 50.6172C347.504 50.7422 347.293 50.9141 347.145 51.1328C347.004 51.3438 346.934 51.5781 346.934 51.8359C346.934 52.0312 346.973 52.207 347.051 52.3633C347.137 52.5117 347.273 52.6484 347.461 52.7734C347.648 52.8984 347.891 53.0156 348.188 53.125C348.492 53.2266 348.867 53.3203 349.312 53.4062C350.227 53.5938 351.043 53.8398 351.762 54.1445C352.48 54.4414 353.051 54.8477 353.473 55.3633C353.895 55.8711 354.105 56.5391 354.105 57.3672C354.105 57.9297 353.98 58.4453 353.73 58.9141C353.48 59.3828 353.121 59.793 352.652 60.1445C352.184 60.4883 351.621 60.7578 350.965 60.9531C350.316 61.1406 349.586 61.2344 348.773 61.2344C347.594 61.2344 346.594 61.0234 345.773 60.6016C344.961 60.1797 344.344 59.6445 343.922 58.9961C343.508 58.3398 343.301 57.668 343.301 56.9805H346.5C346.516 57.4414 346.633 57.8125 346.852 58.0938C347.078 58.375 347.363 58.5781 347.707 58.7031C348.059 58.8281 348.438 58.8906 348.844 58.8906C349.281 58.8906 349.645 58.832 349.934 58.7148C350.223 58.5898 350.441 58.4258 350.59 58.2227C350.746 58.0117 350.824 57.7695 350.824 57.4961ZM359.859 48.3203V61H356.473V48.3203H359.859ZM356.262 45.0156C356.262 44.5234 356.434 44.1172 356.777 43.7969C357.121 43.4766 357.582 43.3164 358.16 43.3164C358.73 43.3164 359.188 43.4766 359.531 43.7969C359.883 44.1172 360.059 44.5234 360.059 45.0156C360.059 45.5078 359.883 45.9141 359.531 46.2344C359.188 46.5547 358.73 46.7148 358.16 46.7148C357.582 46.7148 357.121 46.5547 356.777 46.2344C356.434 45.9141 356.262 45.5078 356.262 45.0156ZM369.504 57.4961C369.504 57.2539 369.434 57.0352 369.293 56.8398C369.152 56.6445 368.891 56.4648 368.508 56.3008C368.133 56.1289 367.59 55.9727 366.879 55.832C366.238 55.6914 365.641 55.5156 365.086 55.3047C364.539 55.0859 364.062 54.8242 363.656 54.5195C363.258 54.2148 362.945 53.8555 362.719 53.4414C362.492 53.0195 362.379 52.5391 362.379 52C362.379 51.4688 362.492 50.9688 362.719 50.5C362.953 50.0312 363.285 49.6172 363.715 49.2578C364.152 48.8906 364.684 48.6055 365.309 48.4023C365.941 48.1914 366.652 48.0859 367.441 48.0859C368.543 48.0859 369.488 48.2617 370.277 48.6133C371.074 48.9648 371.684 49.4492 372.105 50.0664C372.535 50.6758 372.75 51.3711 372.75 52.1523H369.375C369.375 51.8242 369.305 51.5312 369.164 51.2734C369.031 51.0078 368.82 50.8008 368.531 50.6523C368.25 50.4961 367.883 50.418 367.43 50.418C367.055 50.418 366.73 50.4844 366.457 50.6172C366.184 50.7422 365.973 50.9141 365.824 51.1328C365.684 51.3438 365.613 51.5781 365.613 51.8359C365.613 52.0312 365.652 52.207 365.73 52.3633C365.816 52.5117 365.953 52.6484 366.141 52.7734C366.328 52.8984 366.57 53.0156 366.867 53.125C367.172 53.2266 367.547 53.3203 367.992 53.4062C368.906 53.5938 369.723 53.8398 370.441 54.1445C371.16 54.4414 371.73 54.8477 372.152 55.3633C372.574 55.8711 372.785 56.5391 372.785 57.3672C372.785 57.9297 372.66 58.4453 372.41 58.9141C372.16 59.3828 371.801 59.793 371.332 60.1445C370.863 60.4883 370.301 60.7578 369.645 60.9531C368.996 61.1406 368.266 61.2344 367.453 61.2344C366.273 61.2344 365.273 61.0234 364.453 60.6016C363.641 60.1797 363.023 59.6445 362.602 58.9961C362.188 58.3398 361.98 57.668 361.98 56.9805H365.18C365.195 57.4414 365.312 57.8125 365.531 58.0938C365.758 58.375 366.043 58.5781 366.387 58.7031C366.738 58.8281 367.117 58.8906 367.523 58.8906C367.961 58.8906 368.324 58.832 368.613 58.7148C368.902 58.5898 369.121 58.4258 369.27 58.2227C369.426 58.0117 369.504 57.7695 369.504 57.4961Z" fill="#888888"/>
<path d="M118.594 98.4219V104.75H101.086V98.4219H118.594ZM103.828 84.875V119H95.6016V84.875H103.828ZM124.125 84.875V119H115.922V84.875H124.125ZM127.992 106.578V106.086C127.992 104.227 128.258 102.516 128.789 100.953C129.32 99.375 130.102 98.0078 131.133 96.8516C132.164 95.6953 133.438 94.7969 134.953 94.1562C136.469 93.5 138.219 93.1719 140.203 93.1719C142.203 93.1719 143.961 93.5 145.477 94.1562C147.008 94.7969 148.289 95.6953 149.32 96.8516C150.352 98.0078 151.133 99.375 151.664 100.953C152.195 102.516 152.461 104.227 152.461 106.086V106.578C152.461 108.422 152.195 110.133 151.664 111.711C151.133 113.273 150.352 114.641 149.32 115.812C148.289 116.969 147.016 117.867 145.5 118.508C143.984 119.148 142.234 119.469 140.25 119.469C138.266 119.469 136.508 119.148 134.977 118.508C133.445 117.867 132.164 116.969 131.133 115.812C130.102 114.641 129.32 113.273 128.789 111.711C128.258 110.133 127.992 108.422 127.992 106.578ZM135.891 106.086V106.578C135.891 107.531 135.961 108.422 136.102 109.25C136.242 110.078 136.477 110.805 136.805 111.43C137.133 112.039 137.578 112.516 138.141 112.859C138.703 113.203 139.406 113.375 140.25 113.375C141.078 113.375 141.766 113.203 142.312 112.859C142.875 112.516 143.32 112.039 143.648 111.43C143.977 110.805 144.211 110.078 144.352 109.25C144.492 108.422 144.562 107.531 144.562 106.578V106.086C144.562 105.164 144.492 104.297 144.352 103.484C144.211 102.656 143.977 101.93 143.648 101.305C143.32 100.664 142.875 100.164 142.312 99.8047C141.75 99.4453 141.047 99.2656 140.203 99.2656C139.375 99.2656 138.68 99.4453 138.117 99.8047C137.57 100.164 137.133 100.664 136.805 101.305C136.477 101.93 136.242 102.656 136.102 103.484C135.961 104.297 135.891 105.164 135.891 106.086ZM163.688 111.453L168.375 93.6406H173.32L171.562 102.57L166.922 119H162.961L163.688 111.453ZM161.836 93.6406L164.742 111.312L165.07 119H160.266L154.266 93.6406H161.836ZM177.492 110.938L180.422 93.6406H187.992L182.039 119H177.234L177.492 110.938ZM173.883 93.6406L178.617 111.406L179.344 119H175.336L170.789 102.617L169.102 93.6406H173.883ZM218.297 84.875V119H210.07V84.875H218.297ZM228.562 84.875V91.2266H200.039V84.875H228.562ZM225.773 106.578V106.086C225.773 104.227 226.039 102.516 226.57 100.953C227.102 99.375 227.883 98.0078 228.914 96.8516C229.945 95.6953 231.219 94.7969 232.734 94.1562C234.25 93.5 236 93.1719 237.984 93.1719C239.984 93.1719 241.742 93.5 243.258 94.1562C244.789 94.7969 246.07 95.6953 247.102 96.8516C248.133 98.0078 248.914 99.375 249.445 100.953C249.977 102.516 250.242 104.227 250.242 106.086V106.578C250.242 108.422 249.977 110.133 249.445 111.711C248.914 113.273 248.133 114.641 247.102 115.812C246.07 116.969 244.797 117.867 243.281 118.508C241.766 119.148 240.016 119.469 238.031 119.469C236.047 119.469 234.289 119.148 232.758 118.508C231.227 117.867 229.945 116.969 228.914 115.812C227.883 114.641 227.102 113.273 226.57 111.711C226.039 110.133 225.773 108.422 225.773 106.578ZM233.672 106.086V106.578C233.672 107.531 233.742 108.422 233.883 109.25C234.023 110.078 234.258 110.805 234.586 111.43C234.914 112.039 235.359 112.516 235.922 112.859C236.484 113.203 237.188 113.375 238.031 113.375C238.859 113.375 239.547 113.203 240.094 112.859C240.656 112.516 241.102 112.039 241.43 111.43C241.758 110.805 241.992 110.078 242.133 109.25C242.273 108.422 242.344 107.531 242.344 106.578V106.086C242.344 105.164 242.273 104.297 242.133 103.484C241.992 102.656 241.758 101.93 241.43 101.305C241.102 100.664 240.656 100.164 240.094 99.8047C239.531 99.4453 238.828 99.2656 237.984 99.2656C237.156 99.2656 236.461 99.4453 235.898 99.8047C235.352 100.164 234.914 100.664 234.586 101.305C234.258 101.93 234.023 102.656 233.883 103.484C233.742 104.297 233.672 105.164 233.672 106.086ZM266.086 84.875H279.516C282.141 84.875 284.422 85.2656 286.359 86.0469C288.297 86.8281 289.789 87.9844 290.836 89.5156C291.898 91.0469 292.43 92.9375 292.43 95.1875C292.43 97.1406 292.125 98.7734 291.516 100.086C290.906 101.398 290.055 102.484 288.961 103.344C287.883 104.188 286.625 104.883 285.188 105.43L282.492 106.953H271.219L271.172 100.602H279.516C280.562 100.602 281.43 100.414 282.117 100.039C282.805 99.6641 283.32 99.1328 283.664 98.4453C284.023 97.7422 284.203 96.9062 284.203 95.9375C284.203 94.9531 284.023 94.1094 283.664 93.4062C283.305 92.7031 282.773 92.1641 282.07 91.7891C281.383 91.4141 280.531 91.2266 279.516 91.2266H274.312V119H266.086V84.875ZM284.766 119L277.219 103.906L285.938 103.859L293.578 118.648V119H284.766ZM311.836 112.836V93.6406H319.758V119H312.352L311.836 112.836ZM312.586 107.68L314.648 107.633C314.648 109.336 314.445 110.914 314.039 112.367C313.633 113.805 313.031 115.055 312.234 116.117C311.453 117.18 310.484 118.008 309.328 118.602C308.188 119.18 306.867 119.469 305.367 119.469C304.117 119.469 302.969 119.297 301.922 118.953C300.891 118.594 300 118.039 299.25 117.289C298.5 116.523 297.914 115.547 297.492 114.359C297.086 113.156 296.883 111.719 296.883 110.047V93.6406H304.781V110.094C304.781 110.656 304.852 111.141 304.992 111.547C305.133 111.953 305.336 112.297 305.602 112.578C305.867 112.844 306.195 113.047 306.586 113.188C306.992 113.312 307.453 113.375 307.969 113.375C309.156 113.375 310.086 113.125 310.758 112.625C311.43 112.125 311.898 111.445 312.164 110.586C312.445 109.727 312.586 108.758 312.586 107.68ZM331.875 99.0547V119H323.977V93.6406H331.383L331.875 99.0547ZM330.938 105.453L329.086 105.5C329.086 103.562 329.32 101.836 329.789 100.32C330.258 98.7891 330.922 97.4922 331.781 96.4297C332.641 95.3672 333.664 94.5625 334.852 94.0156C336.055 93.4531 337.391 93.1719 338.859 93.1719C340.031 93.1719 341.102 93.3438 342.07 93.6875C343.055 94.0312 343.898 94.5859 344.602 95.3516C345.32 96.1172 345.867 97.1328 346.242 98.3984C346.633 99.6484 346.828 101.195 346.828 103.039V119H338.883V103.016C338.883 102 338.742 101.227 338.461 100.695C338.18 100.148 337.773 99.7734 337.242 99.5703C336.711 99.3672 336.062 99.2656 335.297 99.2656C334.484 99.2656 333.797 99.4219 333.234 99.7344C332.672 100.047 332.219 100.484 331.875 101.047C331.547 101.594 331.305 102.242 331.148 102.992C331.008 103.742 330.938 104.562 330.938 105.453ZM363.773 108.195H357.047C357.047 106.82 357.141 105.609 357.328 104.562C357.531 103.5 357.875 102.547 358.359 101.703C358.844 100.859 359.5 100.078 360.328 99.3594C361.062 98.75 361.695 98.1641 362.227 97.6016C362.758 97.0391 363.164 96.4688 363.445 95.8906C363.727 95.3125 363.867 94.6953 363.867 94.0391C363.867 93.2266 363.75 92.5625 363.516 92.0469C363.297 91.5312 362.961 91.1484 362.508 90.8984C362.07 90.6328 361.516 90.5 360.844 90.5C360.297 90.5 359.781 90.6328 359.297 90.8984C358.828 91.1641 358.445 91.5781 358.148 92.1406C357.852 92.6875 357.688 93.4141 357.656 94.3203H349.711C349.758 91.9922 350.273 90.1016 351.258 88.6484C352.258 87.1797 353.586 86.1094 355.242 85.4375C356.914 84.75 358.781 84.4062 360.844 84.4062C363.125 84.4062 365.086 84.7578 366.727 85.4609C368.367 86.1641 369.625 87.2109 370.5 88.6016C371.375 89.9766 371.812 91.6719 371.812 93.6875C371.812 95.0312 371.555 96.2031 371.039 97.2031C370.539 98.1875 369.859 99.1094 369 99.9688C368.156 100.812 367.211 101.719 366.164 102.688C365.258 103.484 364.641 104.297 364.312 105.125C363.984 105.938 363.805 106.961 363.773 108.195ZM356.086 115.32C356.086 114.195 356.492 113.258 357.305 112.508C358.117 111.742 359.172 111.359 360.469 111.359C361.766 111.359 362.82 111.742 363.633 112.508C364.445 113.258 364.852 114.195 364.852 115.32C364.852 116.445 364.445 117.391 363.633 118.156C362.82 118.906 361.766 119.281 360.469 119.281C359.172 119.281 358.117 118.906 357.305 118.156C356.492 117.391 356.086 116.445 356.086 115.32Z" fill="black"/>
<path d="M1134 0H1348C1356.28 0 1363 6.71573 1363 15V148C1363 156.284 1356.28 163 1348 163H1134V0Z" fill="#D62828"/>
<path d="M1260.62 78.8078C1263.81 78.8078 1266.93 79.7552 1269.59 81.5302C1272.25 83.3052 1274.32 85.8281 1275.54 88.7798C1276.76 91.7315 1277.08 94.9795 1276.46 98.1131C1275.84 101.247 1274.3 104.125 1272.04 106.384C1269.78 108.643 1266.9 110.182 1263.77 110.805C1260.63 111.428 1257.39 111.108 1254.43 109.886C1251.48 108.663 1248.96 106.593 1247.18 103.936C1245.41 101.28 1244.46 98.1565 1244.46 94.9616C1244.46 90.6774 1246.16 86.5686 1249.19 83.5392C1252.22 80.5097 1256.33 78.8078 1260.62 78.8078ZM1260.62 73.4232C1256.36 73.4232 1252.19 74.6864 1248.65 77.0531C1245.11 79.4198 1242.35 82.7836 1240.72 86.7192C1239.09 90.6549 1238.66 94.9855 1239.49 99.1636C1240.32 103.342 1242.37 107.179 1245.39 110.192C1248.4 113.204 1252.24 115.255 1256.41 116.086C1260.59 116.917 1264.92 116.491 1268.86 114.861C1272.79 113.23 1276.16 110.47 1278.52 106.928C1280.89 103.386 1282.15 99.2215 1282.15 94.9616C1282.15 89.2493 1279.88 83.7709 1275.85 79.7317C1271.81 75.6924 1266.33 73.4232 1260.62 73.4232Z" fill="white"/>
<path d="M1274.08 46.4999H1220.23C1218.8 46.4999 1217.43 47.0672 1216.42 48.0771C1215.41 49.0869 1214.85 50.4565 1214.85 51.8845V105.731C1214.85 107.159 1215.41 108.528 1216.42 109.538C1217.43 110.548 1218.8 111.115 1220.23 111.115H1231V105.731H1220.23V68.0383H1279.46V51.8845C1279.46 50.4565 1278.89 49.0869 1277.88 48.0771C1276.87 47.0672 1275.5 46.4999 1274.08 46.4999ZM1220.23 62.6537V51.8845H1274.08V62.6537H1220.23Z" fill="white"/>
<path d="M1255.23 86.8848V103.039L1268.69 94.9617L1255.23 86.8848Z" fill="white"/>
</svg>
