<svg width="1363" height="163" viewBox="0 0 1363 163" fill="none" xmlns="http://www.w3.org/2000/svg">
<path d="M0 15C0 6.71573 6.71573 0 15 0H37V163H15C6.71573 163 0 156.284 0 148V15Z" fill="#D62828"/>
<rect width="1097" height="163" transform="translate(37)" fill="#F0F0F0"/>
<path d="M101.906 53.9219L94.3945 51.2383V48.0859L104.602 52.375V54.6367L101.906 53.9219ZM94.3945 56.1719L101.918 53.4297L104.602 52.7852V55.0352L94.3945 59.3242V56.1719ZM115.242 43.9375L118.805 51.7188L122.367 43.9375H126.199L120.586 54.7891V61H117.023V54.7891L111.398 43.9375H115.242ZM132.609 61.2344C131.625 61.2344 130.742 61.0781 129.961 60.7656C129.18 60.4453 128.516 60.0039 127.969 59.4414C127.43 58.8789 127.016 58.2266 126.727 57.4844C126.438 56.7344 126.293 55.9375 126.293 55.0938V54.625C126.293 53.6641 126.43 52.7852 126.703 51.9883C126.977 51.1914 127.367 50.5 127.875 49.9141C128.391 49.3281 129.016 48.8789 129.75 48.5664C130.484 48.2461 131.312 48.0859 132.234 48.0859C133.133 48.0859 133.93 48.2344 134.625 48.5312C135.32 48.8281 135.902 49.25 136.371 49.7969C136.848 50.3438 137.207 51 137.449 51.7656C137.691 52.5234 137.812 53.3672 137.812 54.2969V55.7031H127.734V53.4531H134.496V53.1953C134.496 52.7266 134.41 52.3086 134.238 51.9414C134.074 51.5664 133.824 51.2695 133.488 51.0508C133.152 50.832 132.723 50.7227 132.199 50.7227C131.754 50.7227 131.371 50.8203 131.051 51.0156C130.73 51.2109 130.469 51.4844 130.266 51.8359C130.07 52.1875 129.922 52.6016 129.82 53.0781C129.727 53.5469 129.68 54.0625 129.68 54.625V55.0938C129.68 55.6016 129.75 56.0703 129.891 56.5C130.039 56.9297 130.246 57.3008 130.512 57.6133C130.785 57.9258 131.113 58.168 131.496 58.3398C131.887 58.5117 132.328 58.5977 132.82 58.5977C133.43 58.5977 133.996 58.4805 134.52 58.2461C135.051 58.0039 135.508 57.6406 135.891 57.1562L137.531 58.9375C137.266 59.3203 136.902 59.6875 136.441 60.0391C135.988 60.3906 135.441 60.6797 134.801 60.9062C134.16 61.125 133.43 61.2344 132.609 61.2344ZM143.297 43V61H139.91V43H143.297ZM149.461 50.7578V65.875H146.086V48.3203H149.215L149.461 50.7578ZM157.488 54.5195V54.7656C157.488 55.6875 157.379 56.543 157.16 57.332C156.949 58.1211 156.637 58.8086 156.223 59.3945C155.809 59.9727 155.293 60.4258 154.676 60.7539C154.066 61.0742 153.363 61.2344 152.566 61.2344C151.793 61.2344 151.121 61.0781 150.551 60.7656C149.98 60.4531 149.5 60.0156 149.109 59.4531C148.727 58.8828 148.418 58.2227 148.184 57.4727C147.949 56.7227 147.77 55.918 147.645 55.0586V54.4141C147.77 53.4922 147.949 52.6484 148.184 51.8828C148.418 51.1094 148.727 50.4414 149.109 49.8789C149.5 49.3086 149.977 48.8672 150.539 48.5547C151.109 48.2422 151.777 48.0859 152.543 48.0859C153.348 48.0859 154.055 48.2383 154.664 48.543C155.281 48.8477 155.797 49.2852 156.211 49.8555C156.633 50.4258 156.949 51.1055 157.16 51.8945C157.379 52.6836 157.488 53.5586 157.488 54.5195ZM154.102 54.7656V54.5195C154.102 53.9805 154.055 53.4844 153.961 53.0312C153.875 52.5703 153.734 52.168 153.539 51.8242C153.352 51.4805 153.102 51.2148 152.789 51.0273C152.484 50.832 152.113 50.7344 151.676 50.7344C151.215 50.7344 150.82 50.8086 150.492 50.957C150.172 51.1055 149.91 51.3203 149.707 51.6016C149.504 51.8828 149.352 52.2188 149.25 52.6094C149.148 53 149.086 53.4414 149.062 53.9336V55.5625C149.102 56.1406 149.211 56.6602 149.391 57.1211C149.57 57.5742 149.848 57.9336 150.223 58.1992C150.598 58.4648 151.09 58.5977 151.699 58.5977C152.145 58.5977 152.52 58.5 152.824 58.3047C153.129 58.1016 153.375 57.8242 153.562 57.4727C153.758 57.1211 153.895 56.7148 153.973 56.2539C154.059 55.793 154.102 55.2969 154.102 54.7656ZM165.773 43.9375H172.137C173.441 43.9375 174.562 44.1328 175.5 44.5234C176.445 44.9141 177.172 45.4922 177.68 46.2578C178.188 47.0234 178.441 47.9648 178.441 49.082C178.441 49.9961 178.285 50.7812 177.973 51.4375C177.668 52.0859 177.234 52.6289 176.672 53.0664C176.117 53.4961 175.465 53.8398 174.715 54.0977L173.602 54.6836H168.07L168.047 51.9414H172.16C172.777 51.9414 173.289 51.832 173.695 51.6133C174.102 51.3945 174.406 51.0898 174.609 50.6992C174.82 50.3086 174.926 49.8555 174.926 49.3398C174.926 48.793 174.824 48.3203 174.621 47.9219C174.418 47.5234 174.109 47.2188 173.695 47.0078C173.281 46.7969 172.762 46.6914 172.137 46.6914H169.289V61H165.773V43.9375ZM175.312 61L171.422 53.3945L175.137 53.3711L179.074 60.8359V61H175.312ZM186.773 61.2344C185.789 61.2344 184.906 61.0781 184.125 60.7656C183.344 60.4453 182.68 60.0039 182.133 59.4414C181.594 58.8789 181.18 58.2266 180.891 57.4844C180.602 56.7344 180.457 55.9375 180.457 55.0938V54.625C180.457 53.6641 180.594 52.7852 180.867 51.9883C181.141 51.1914 181.531 50.5 182.039 49.9141C182.555 49.3281 183.18 48.8789 183.914 48.5664C184.648 48.2461 185.477 48.0859 186.398 48.0859C187.297 48.0859 188.094 48.2344 188.789 48.5312C189.484 48.8281 190.066 49.25 190.535 49.7969C191.012 50.3438 191.371 51 191.613 51.7656C191.855 52.5234 191.977 53.3672 191.977 54.2969V55.7031H181.898V53.4531H188.66V53.1953C188.66 52.7266 188.574 52.3086 188.402 51.9414C188.238 51.5664 187.988 51.2695 187.652 51.0508C187.316 50.832 186.887 50.7227 186.363 50.7227C185.918 50.7227 185.535 50.8203 185.215 51.0156C184.895 51.2109 184.633 51.4844 184.43 51.8359C184.234 52.1875 184.086 52.6016 183.984 53.0781C183.891 53.5469 183.844 54.0625 183.844 54.625V55.0938C183.844 55.6016 183.914 56.0703 184.055 56.5C184.203 56.9297 184.41 57.3008 184.676 57.6133C184.949 57.9258 185.277 58.168 185.66 58.3398C186.051 58.5117 186.492 58.5977 186.984 58.5977C187.594 58.5977 188.16 58.4805 188.684 58.2461C189.215 58.0039 189.672 57.6406 190.055 57.1562L191.695 58.9375C191.43 59.3203 191.066 59.6875 190.605 60.0391C190.152 60.3906 189.605 60.6797 188.965 60.9062C188.324 61.125 187.594 61.2344 186.773 61.2344ZM200.754 57.4961C200.754 57.2539 200.684 57.0352 200.543 56.8398C200.402 56.6445 200.141 56.4648 199.758 56.3008C199.383 56.1289 198.84 55.9727 198.129 55.832C197.488 55.6914 196.891 55.5156 196.336 55.3047C195.789 55.0859 195.312 54.8242 194.906 54.5195C194.508 54.2148 194.195 53.8555 193.969 53.4414C193.742 53.0195 193.629 52.5391 193.629 52C193.629 51.4688 193.742 50.9688 193.969 50.5C194.203 50.0312 194.535 49.6172 194.965 49.2578C195.402 48.8906 195.934 48.6055 196.559 48.4023C197.191 48.1914 197.902 48.0859 198.691 48.0859C199.793 48.0859 200.738 48.2617 201.527 48.6133C202.324 48.9648 202.934 49.4492 203.355 50.0664C203.785 50.6758 204 51.3711 204 52.1523H200.625C200.625 51.8242 200.555 51.5312 200.414 51.2734C200.281 51.0078 200.07 50.8008 199.781 50.6523C199.5 50.4961 199.133 50.418 198.68 50.418C198.305 50.418 197.98 50.4844 197.707 50.6172C197.434 50.7422 197.223 50.9141 197.074 51.1328C196.934 51.3438 196.863 51.5781 196.863 51.8359C196.863 52.0312 196.902 52.207 196.98 52.3633C197.066 52.5117 197.203 52.6484 197.391 52.7734C197.578 52.8984 197.82 53.0156 198.117 53.125C198.422 53.2266 198.797 53.3203 199.242 53.4062C200.156 53.5938 200.973 53.8398 201.691 54.1445C202.41 54.4414 202.98 54.8477 203.402 55.3633C203.824 55.8711 204.035 56.5391 204.035 57.3672C204.035 57.9297 203.91 58.4453 203.66 58.9141C203.41 59.3828 203.051 59.793 202.582 60.1445C202.113 60.4883 201.551 60.7578 200.895 60.9531C200.246 61.1406 199.516 61.2344 198.703 61.2344C197.523 61.2344 196.523 61.0234 195.703 60.6016C194.891 60.1797 194.273 59.6445 193.852 58.9961C193.438 58.3398 193.23 57.668 193.23 56.9805H196.43C196.445 57.4414 196.562 57.8125 196.781 58.0938C197.008 58.375 197.293 58.5781 197.637 58.7031C197.988 58.8281 198.367 58.8906 198.773 58.8906C199.211 58.8906 199.574 58.832 199.863 58.7148C200.152 58.5898 200.371 58.4258 200.52 58.2227C200.676 58.0117 200.754 57.7695 200.754 57.4961ZM212.438 48.3203V50.7109H205.055V48.3203H212.438ZM206.883 45.1914H210.258V57.1797C210.258 57.5469 210.305 57.8281 210.398 58.0234C210.5 58.2188 210.648 58.3555 210.844 58.4336C211.039 58.5039 211.285 58.5391 211.582 58.5391C211.793 58.5391 211.98 58.5312 212.145 58.5156C212.316 58.4922 212.461 58.4688 212.578 58.4453L212.59 60.9297C212.301 61.0234 211.988 61.0977 211.652 61.1523C211.316 61.207 210.945 61.2344 210.539 61.2344C209.797 61.2344 209.148 61.1133 208.594 60.8711C208.047 60.6211 207.625 60.2227 207.328 59.6758C207.031 59.1289 206.883 58.4102 206.883 57.5195V45.1914ZM221.203 58.1406V52.4922C221.203 52.0859 221.137 51.7383 221.004 51.4492C220.871 51.1523 220.664 50.9219 220.383 50.7578C220.109 50.5938 219.754 50.5117 219.316 50.5117C218.941 50.5117 218.617 50.5781 218.344 50.7109C218.07 50.8359 217.859 51.0195 217.711 51.2617C217.562 51.4961 217.488 51.7734 217.488 52.0938H214.113C214.113 51.5547 214.238 51.043 214.488 50.5586C214.738 50.0742 215.102 49.6484 215.578 49.2812C216.055 48.9062 216.621 48.6133 217.277 48.4023C217.941 48.1914 218.684 48.0859 219.504 48.0859C220.488 48.0859 221.363 48.25 222.129 48.5781C222.895 48.9062 223.496 49.3984 223.934 50.0547C224.379 50.7109 224.602 51.5312 224.602 52.5156V57.9414C224.602 58.6367 224.645 59.207 224.73 59.6523C224.816 60.0898 224.941 60.4727 225.105 60.8008V61H221.695C221.531 60.6562 221.406 60.2266 221.32 59.7109C221.242 59.1875 221.203 58.6641 221.203 58.1406ZM221.648 53.2773L221.672 55.1875H219.785C219.34 55.1875 218.953 55.2383 218.625 55.3398C218.297 55.4414 218.027 55.5859 217.816 55.7734C217.605 55.9531 217.449 56.1641 217.348 56.4062C217.254 56.6484 217.207 56.9141 217.207 57.2031C217.207 57.4922 217.273 57.7539 217.406 57.9883C217.539 58.2148 217.73 58.3945 217.98 58.5273C218.23 58.6523 218.523 58.7148 218.859 58.7148C219.367 58.7148 219.809 58.6133 220.184 58.4102C220.559 58.207 220.848 57.957 221.051 57.6602C221.262 57.3633 221.371 57.082 221.379 56.8164L222.27 58.2461C222.145 58.5664 221.973 58.8984 221.754 59.2422C221.543 59.5859 221.273 59.9102 220.945 60.2148C220.617 60.5117 220.223 60.7578 219.762 60.9531C219.301 61.1406 218.754 61.2344 218.121 61.2344C217.316 61.2344 216.586 61.0742 215.93 60.7539C215.281 60.4258 214.766 59.9766 214.383 59.4062C214.008 58.8281 213.82 58.1719 213.82 57.4375C213.82 56.7734 213.945 56.1836 214.195 55.668C214.445 55.1523 214.812 54.7188 215.297 54.3672C215.789 54.0078 216.402 53.7383 217.137 53.5586C217.871 53.3711 218.723 53.2773 219.691 53.2773H221.648ZM234.703 57.9648V48.3203H238.078V61H234.902L234.703 57.9648ZM235.078 55.3633L236.074 55.3398C236.074 56.1836 235.977 56.9688 235.781 57.6953C235.586 58.4141 235.293 59.0391 234.902 59.5703C234.512 60.0938 234.02 60.5039 233.426 60.8008C232.832 61.0898 232.133 61.2344 231.328 61.2344C230.711 61.2344 230.141 61.1484 229.617 60.9766C229.102 60.7969 228.656 60.5195 228.281 60.1445C227.914 59.7617 227.625 59.2734 227.414 58.6797C227.211 58.0781 227.109 57.3555 227.109 56.5117V48.3203H230.484V56.5352C230.484 56.9102 230.527 57.2266 230.613 57.4844C230.707 57.7422 230.836 57.9531 231 58.1172C231.164 58.2812 231.355 58.3984 231.574 58.4688C231.801 58.5391 232.051 58.5742 232.324 58.5742C233.02 58.5742 233.566 58.4336 233.965 58.1523C234.371 57.8711 234.656 57.4883 234.82 57.0039C234.992 56.5117 235.078 55.9648 235.078 55.3633ZM244.031 51.0859V61H240.656V48.3203H243.832L244.031 51.0859ZM247.852 48.2383L247.793 51.3672C247.629 51.3438 247.43 51.3242 247.195 51.3086C246.969 51.2852 246.762 51.2734 246.574 51.2734C246.098 51.2734 245.684 51.3359 245.332 51.4609C244.988 51.5781 244.699 51.7539 244.465 51.9883C244.238 52.2227 244.066 52.5078 243.949 52.8438C243.84 53.1797 243.777 53.5625 243.762 53.9922L243.082 53.7812C243.082 52.9609 243.164 52.207 243.328 51.5195C243.492 50.8242 243.73 50.2188 244.043 49.7031C244.363 49.1875 244.754 48.7891 245.215 48.5078C245.676 48.2266 246.203 48.0859 246.797 48.0859C246.984 48.0859 247.176 48.1016 247.371 48.1328C247.566 48.1562 247.727 48.1914 247.852 48.2383ZM255.891 58.1406V52.4922C255.891 52.0859 255.824 51.7383 255.691 51.4492C255.559 51.1523 255.352 50.9219 255.07 50.7578C254.797 50.5938 254.441 50.5117 254.004 50.5117C253.629 50.5117 253.305 50.5781 253.031 50.7109C252.758 50.8359 252.547 51.0195 252.398 51.2617C252.25 51.4961 252.176 51.7734 252.176 52.0938H248.801C248.801 51.5547 248.926 51.043 249.176 50.5586C249.426 50.0742 249.789 49.6484 250.266 49.2812C250.742 48.9062 251.309 48.6133 251.965 48.4023C252.629 48.1914 253.371 48.0859 254.191 48.0859C255.176 48.0859 256.051 48.25 256.816 48.5781C257.582 48.9062 258.184 49.3984 258.621 50.0547C259.066 50.7109 259.289 51.5312 259.289 52.5156V57.9414C259.289 58.6367 259.332 59.207 259.418 59.6523C259.504 60.0898 259.629 60.4727 259.793 60.8008V61H256.383C256.219 60.6562 256.094 60.2266 256.008 59.7109C255.93 59.1875 255.891 58.6641 255.891 58.1406ZM256.336 53.2773L256.359 55.1875H254.473C254.027 55.1875 253.641 55.2383 253.312 55.3398C252.984 55.4414 252.715 55.5859 252.504 55.7734C252.293 55.9531 252.137 56.1641 252.035 56.4062C251.941 56.6484 251.895 56.9141 251.895 57.2031C251.895 57.4922 251.961 57.7539 252.094 57.9883C252.227 58.2148 252.418 58.3945 252.668 58.5273C252.918 58.6523 253.211 58.7148 253.547 58.7148C254.055 58.7148 254.496 58.6133 254.871 58.4102C255.246 58.207 255.535 57.957 255.738 57.6602C255.949 57.3633 256.059 57.082 256.066 56.8164L256.957 58.2461C256.832 58.5664 256.66 58.8984 256.441 59.2422C256.23 59.5859 255.961 59.9102 255.633 60.2148C255.305 60.5117 254.91 60.7578 254.449 60.9531C253.988 61.1406 253.441 61.2344 252.809 61.2344C252.004 61.2344 251.273 61.0742 250.617 60.7539C249.969 60.4258 249.453 59.9766 249.07 59.4062C248.695 58.8281 248.508 58.1719 248.508 57.4375C248.508 56.7734 248.633 56.1836 248.883 55.668C249.133 55.1523 249.5 54.7188 249.984 54.3672C250.477 54.0078 251.09 53.7383 251.824 53.5586C252.559 53.3711 253.41 53.2773 254.379 53.2773H256.336ZM265.195 51.0273V61H261.82V48.3203H264.984L265.195 51.0273ZM264.703 54.2148H263.789C263.789 53.2773 263.91 52.4336 264.152 51.6836C264.395 50.9258 264.734 50.2812 265.172 49.75C265.609 49.2109 266.129 48.8008 266.73 48.5195C267.34 48.2305 268.02 48.0859 268.77 48.0859C269.363 48.0859 269.906 48.1719 270.398 48.3438C270.891 48.5156 271.312 48.7891 271.664 49.1641C272.023 49.5391 272.297 50.0352 272.484 50.6523C272.68 51.2695 272.777 52.0234 272.777 52.9141V61H269.379V52.9023C269.379 52.3398 269.301 51.9023 269.145 51.5898C268.988 51.2773 268.758 51.0586 268.453 50.9336C268.156 50.8008 267.789 50.7344 267.352 50.7344C266.898 50.7344 266.504 50.8242 266.168 51.0039C265.84 51.1836 265.566 51.4336 265.348 51.7539C265.137 52.0664 264.977 52.4336 264.867 52.8555C264.758 53.2773 264.703 53.7305 264.703 54.2148ZM281.555 48.3203V50.7109H274.172V48.3203H281.555ZM276 45.1914H279.375V57.1797C279.375 57.5469 279.422 57.8281 279.516 58.0234C279.617 58.2188 279.766 58.3555 279.961 58.4336C280.156 58.5039 280.402 58.5391 280.699 58.5391C280.91 58.5391 281.098 58.5312 281.262 58.5156C281.434 58.4922 281.578 58.4688 281.695 58.4453L281.707 60.9297C281.418 61.0234 281.105 61.0977 280.77 61.1523C280.434 61.207 280.062 61.2344 279.656 61.2344C278.914 61.2344 278.266 61.1133 277.711 60.8711C277.164 60.6211 276.742 60.2227 276.445 59.6758C276.148 59.1289 276 58.4102 276 57.5195V45.1914ZM296.602 46.8555L291.961 61H288.223L294.562 43.9375H296.941L296.602 46.8555ZM300.457 61L295.805 46.8555L295.43 43.9375H297.832L304.207 61H300.457ZM300.246 54.6484V57.4023H291.234V54.6484H300.246ZM308.508 51.0273V61H305.133V48.3203H308.297L308.508 51.0273ZM308.016 54.2148H307.102C307.102 53.2773 307.223 52.4336 307.465 51.6836C307.707 50.9258 308.047 50.2812 308.484 49.75C308.922 49.2109 309.441 48.8008 310.043 48.5195C310.652 48.2305 311.332 48.0859 312.082 48.0859C312.676 48.0859 313.219 48.1719 313.711 48.3438C314.203 48.5156 314.625 48.7891 314.977 49.1641C315.336 49.5391 315.609 50.0352 315.797 50.6523C315.992 51.2695 316.09 52.0234 316.09 52.9141V61H312.691V52.9023C312.691 52.3398 312.613 51.9023 312.457 51.5898C312.301 51.2773 312.07 51.0586 311.766 50.9336C311.469 50.8008 311.102 50.7344 310.664 50.7344C310.211 50.7344 309.816 50.8242 309.48 51.0039C309.152 51.1836 308.879 51.4336 308.66 51.7539C308.449 52.0664 308.289 52.4336 308.18 52.8555C308.07 53.2773 308.016 53.7305 308.016 54.2148ZM325.5 58.1406V52.4922C325.5 52.0859 325.434 51.7383 325.301 51.4492C325.168 51.1523 324.961 50.9219 324.68 50.7578C324.406 50.5938 324.051 50.5117 323.613 50.5117C323.238 50.5117 322.914 50.5781 322.641 50.7109C322.367 50.8359 322.156 51.0195 322.008 51.2617C321.859 51.4961 321.785 51.7734 321.785 52.0938H318.41C318.41 51.5547 318.535 51.043 318.785 50.5586C319.035 50.0742 319.398 49.6484 319.875 49.2812C320.352 48.9062 320.918 48.6133 321.574 48.4023C322.238 48.1914 322.98 48.0859 323.801 48.0859C324.785 48.0859 325.66 48.25 326.426 48.5781C327.191 48.9062 327.793 49.3984 328.23 50.0547C328.676 50.7109 328.898 51.5312 328.898 52.5156V57.9414C328.898 58.6367 328.941 59.207 329.027 59.6523C329.113 60.0898 329.238 60.4727 329.402 60.8008V61H325.992C325.828 60.6562 325.703 60.2266 325.617 59.7109C325.539 59.1875 325.5 58.6641 325.5 58.1406ZM325.945 53.2773L325.969 55.1875H324.082C323.637 55.1875 323.25 55.2383 322.922 55.3398C322.594 55.4414 322.324 55.5859 322.113 55.7734C321.902 55.9531 321.746 56.1641 321.645 56.4062C321.551 56.6484 321.504 56.9141 321.504 57.2031C321.504 57.4922 321.57 57.7539 321.703 57.9883C321.836 58.2148 322.027 58.3945 322.277 58.5273C322.527 58.6523 322.82 58.7148 323.156 58.7148C323.664 58.7148 324.105 58.6133 324.48 58.4102C324.855 58.207 325.145 57.957 325.348 57.6602C325.559 57.3633 325.668 57.082 325.676 56.8164L326.566 58.2461C326.441 58.5664 326.27 58.8984 326.051 59.2422C325.84 59.5859 325.57 59.9102 325.242 60.2148C324.914 60.5117 324.52 60.7578 324.059 60.9531C323.598 61.1406 323.051 61.2344 322.418 61.2344C321.613 61.2344 320.883 61.0742 320.227 60.7539C319.578 60.4258 319.062 59.9766 318.68 59.4062C318.305 58.8281 318.117 58.1719 318.117 57.4375C318.117 56.7734 318.242 56.1836 318.492 55.668C318.742 55.1523 319.109 54.7188 319.594 54.3672C320.086 54.0078 320.699 53.7383 321.434 53.5586C322.168 53.3711 323.02 53.2773 323.988 53.2773H325.945ZM335.062 43V61H331.676V43H335.062ZM341.613 59.5703L344.977 48.3203H348.598L343.5 62.9102C343.391 63.2305 343.242 63.5742 343.055 63.9414C342.875 64.3086 342.629 64.6562 342.316 64.9844C342.012 65.3203 341.625 65.5938 341.156 65.8047C340.695 66.0156 340.129 66.1211 339.457 66.1211C339.137 66.1211 338.875 66.1016 338.672 66.0625C338.469 66.0234 338.227 65.9688 337.945 65.8984V63.4258C338.031 63.4258 338.121 63.4258 338.215 63.4258C338.309 63.4336 338.398 63.4375 338.484 63.4375C338.93 63.4375 339.293 63.3867 339.574 63.2852C339.855 63.1836 340.082 63.0273 340.254 62.8164C340.426 62.6133 340.562 62.3477 340.664 62.0195L341.613 59.5703ZM340.207 48.3203L342.961 57.5078L343.441 61.082L341.145 61.3281L336.586 48.3203H340.207ZM356.801 57.4961C356.801 57.2539 356.73 57.0352 356.59 56.8398C356.449 56.6445 356.188 56.4648 355.805 56.3008C355.43 56.1289 354.887 55.9727 354.176 55.832C353.535 55.6914 352.938 55.5156 352.383 55.3047C351.836 55.0859 351.359 54.8242 350.953 54.5195C350.555 54.2148 350.242 53.8555 350.016 53.4414C349.789 53.0195 349.676 52.5391 349.676 52C349.676 51.4688 349.789 50.9688 350.016 50.5C350.25 50.0312 350.582 49.6172 351.012 49.2578C351.449 48.8906 351.98 48.6055 352.605 48.4023C353.238 48.1914 353.949 48.0859 354.738 48.0859C355.84 48.0859 356.785 48.2617 357.574 48.6133C358.371 48.9648 358.98 49.4492 359.402 50.0664C359.832 50.6758 360.047 51.3711 360.047 52.1523H356.672C356.672 51.8242 356.602 51.5312 356.461 51.2734C356.328 51.0078 356.117 50.8008 355.828 50.6523C355.547 50.4961 355.18 50.418 354.727 50.418C354.352 50.418 354.027 50.4844 353.754 50.6172C353.48 50.7422 353.27 50.9141 353.121 51.1328C352.98 51.3438 352.91 51.5781 352.91 51.8359C352.91 52.0312 352.949 52.207 353.027 52.3633C353.113 52.5117 353.25 52.6484 353.438 52.7734C353.625 52.8984 353.867 53.0156 354.164 53.125C354.469 53.2266 354.844 53.3203 355.289 53.4062C356.203 53.5938 357.02 53.8398 357.738 54.1445C358.457 54.4414 359.027 54.8477 359.449 55.3633C359.871 55.8711 360.082 56.5391 360.082 57.3672C360.082 57.9297 359.957 58.4453 359.707 58.9141C359.457 59.3828 359.098 59.793 358.629 60.1445C358.16 60.4883 357.598 60.7578 356.941 60.9531C356.293 61.1406 355.562 61.2344 354.75 61.2344C353.57 61.2344 352.57 61.0234 351.75 60.6016C350.938 60.1797 350.32 59.6445 349.898 58.9961C349.484 58.3398 349.277 57.668 349.277 56.9805H352.477C352.492 57.4414 352.609 57.8125 352.828 58.0938C353.055 58.375 353.34 58.5781 353.684 58.7031C354.035 58.8281 354.414 58.8906 354.82 58.8906C355.258 58.8906 355.621 58.832 355.91 58.7148C356.199 58.5898 356.418 58.4258 356.566 58.2227C356.723 58.0117 356.801 57.7695 356.801 57.4961ZM365.836 48.3203V61H362.449V48.3203H365.836ZM362.238 45.0156C362.238 44.5234 362.41 44.1172 362.754 43.7969C363.098 43.4766 363.559 43.3164 364.137 43.3164C364.707 43.3164 365.164 43.4766 365.508 43.7969C365.859 44.1172 366.035 44.5234 366.035 45.0156C366.035 45.5078 365.859 45.9141 365.508 46.2344C365.164 46.5547 364.707 46.7148 364.137 46.7148C363.559 46.7148 363.098 46.5547 362.754 46.2344C362.41 45.9141 362.238 45.5078 362.238 45.0156ZM375.48 57.4961C375.48 57.2539 375.41 57.0352 375.27 56.8398C375.129 56.6445 374.867 56.4648 374.484 56.3008C374.109 56.1289 373.566 55.9727 372.855 55.832C372.215 55.6914 371.617 55.5156 371.062 55.3047C370.516 55.0859 370.039 54.8242 369.633 54.5195C369.234 54.2148 368.922 53.8555 368.695 53.4414C368.469 53.0195 368.355 52.5391 368.355 52C368.355 51.4688 368.469 50.9688 368.695 50.5C368.93 50.0312 369.262 49.6172 369.691 49.2578C370.129 48.8906 370.66 48.6055 371.285 48.4023C371.918 48.1914 372.629 48.0859 373.418 48.0859C374.52 48.0859 375.465 48.2617 376.254 48.6133C377.051 48.9648 377.66 49.4492 378.082 50.0664C378.512 50.6758 378.727 51.3711 378.727 52.1523H375.352C375.352 51.8242 375.281 51.5312 375.141 51.2734C375.008 51.0078 374.797 50.8008 374.508 50.6523C374.227 50.4961 373.859 50.418 373.406 50.418C373.031 50.418 372.707 50.4844 372.434 50.6172C372.16 50.7422 371.949 50.9141 371.801 51.1328C371.66 51.3438 371.59 51.5781 371.59 51.8359C371.59 52.0312 371.629 52.207 371.707 52.3633C371.793 52.5117 371.93 52.6484 372.117 52.7734C372.305 52.8984 372.547 53.0156 372.844 53.125C373.148 53.2266 373.523 53.3203 373.969 53.4062C374.883 53.5938 375.699 53.8398 376.418 54.1445C377.137 54.4414 377.707 54.8477 378.129 55.3633C378.551 55.8711 378.762 56.5391 378.762 57.3672C378.762 57.9297 378.637 58.4453 378.387 58.9141C378.137 59.3828 377.777 59.793 377.309 60.1445C376.84 60.4883 376.277 60.7578 375.621 60.9531C374.973 61.1406 374.242 61.2344 373.43 61.2344C372.25 61.2344 371.25 61.0234 370.43 60.6016C369.617 60.1797 369 59.6445 368.578 58.9961C368.164 58.3398 367.957 57.668 367.957 56.9805H371.156C371.172 57.4414 371.289 57.8125 371.508 58.0938C371.734 58.375 372.02 58.5781 372.363 58.7031C372.715 58.8281 373.094 58.8906 373.5 58.8906C373.938 58.8906 374.301 58.832 374.59 58.7148C374.879 58.5898 375.098 58.4258 375.246 58.2227C375.402 58.0117 375.48 57.7695 375.48 57.4961Z" fill="#888888"/>
<path d="M112.125 84.875V119H103.898V84.875H112.125ZM122.391 84.875V91.2266H93.8672V84.875H122.391ZM135.68 119.469C133.617 119.469 131.773 119.148 130.148 118.508C128.523 117.852 127.148 116.953 126.023 115.812C124.914 114.672 124.062 113.359 123.469 111.875C122.891 110.391 122.602 108.82 122.602 107.164V106.273C122.602 104.414 122.859 102.695 123.375 101.117C123.891 99.5234 124.656 98.1328 125.672 96.9453C126.688 95.7578 127.961 94.8359 129.492 94.1797C131.023 93.5078 132.805 93.1719 134.836 93.1719C136.633 93.1719 138.242 93.4609 139.664 94.0391C141.086 94.6172 142.289 95.4453 143.273 96.5234C144.273 97.6016 145.031 98.9062 145.547 100.438C146.078 101.969 146.344 103.688 146.344 105.594V108.805H125.625V103.859H138.633V103.25C138.648 102.406 138.5 101.688 138.188 101.094C137.891 100.5 137.453 100.047 136.875 99.7344C136.297 99.4219 135.594 99.2656 134.766 99.2656C133.906 99.2656 133.195 99.4531 132.633 99.8281C132.086 100.203 131.656 100.719 131.344 101.375C131.047 102.016 130.836 102.758 130.711 103.602C130.586 104.445 130.523 105.336 130.523 106.273V107.164C130.523 108.102 130.648 108.953 130.898 109.719C131.164 110.484 131.539 111.141 132.023 111.688C132.523 112.219 133.117 112.633 133.805 112.93C134.508 113.227 135.305 113.375 136.195 113.375C137.273 113.375 138.336 113.172 139.383 112.766C140.43 112.359 141.328 111.688 142.078 110.75L145.664 115.016C145.148 115.75 144.414 116.461 143.461 117.148C142.523 117.836 141.398 118.398 140.086 118.836C138.773 119.258 137.305 119.469 135.68 119.469ZM160.266 113.375C161 113.375 161.625 113.242 162.141 112.977C162.672 112.695 163.07 112.305 163.336 111.805C163.617 111.289 163.75 110.672 163.734 109.953H171.164C171.18 111.859 170.711 113.531 169.758 114.969C168.82 116.391 167.539 117.5 165.914 118.297C164.305 119.078 162.484 119.469 160.453 119.469C158.469 119.469 156.734 119.148 155.25 118.508C153.766 117.852 152.523 116.945 151.523 115.789C150.539 114.617 149.797 113.25 149.297 111.688C148.812 110.125 148.57 108.43 148.57 106.602V106.062C148.57 104.234 148.812 102.539 149.297 100.977C149.797 99.3984 150.539 98.0312 151.523 96.875C152.523 95.7031 153.758 94.7969 155.227 94.1562C156.711 93.5 158.438 93.1719 160.406 93.1719C162.516 93.1719 164.375 93.5703 165.984 94.3672C167.609 95.1641 168.883 96.3203 169.805 97.8359C170.727 99.3516 171.18 101.188 171.164 103.344H163.734C163.75 102.578 163.633 101.891 163.383 101.281C163.133 100.672 162.742 100.188 162.211 99.8281C161.695 99.4531 161.031 99.2656 160.219 99.2656C159.406 99.2656 158.75 99.4453 158.25 99.8047C157.75 100.164 157.367 100.664 157.102 101.305C156.852 101.93 156.68 102.648 156.586 103.461C156.508 104.273 156.469 105.141 156.469 106.062V106.602C156.469 107.539 156.508 108.422 156.586 109.25C156.68 110.062 156.859 110.781 157.125 111.406C157.391 112.016 157.773 112.5 158.273 112.859C158.773 113.203 159.438 113.375 160.266 113.375ZM182.273 83V119H174.375V83H182.273ZM181.336 105.453L179.484 105.5C179.484 103.719 179.703 102.078 180.141 100.578C180.578 99.0781 181.203 97.7734 182.016 96.6641C182.828 95.5547 183.805 94.6953 184.945 94.0859C186.086 93.4766 187.352 93.1719 188.742 93.1719C189.992 93.1719 191.133 93.3516 192.164 93.7109C193.211 94.0703 194.109 94.6484 194.859 95.4453C195.625 96.2422 196.211 97.2812 196.617 98.5625C197.039 99.8438 197.25 101.406 197.25 103.25V119H189.305V103.203C189.305 102.172 189.156 101.375 188.859 100.812C188.578 100.234 188.172 99.8359 187.641 99.6172C187.109 99.3828 186.461 99.2656 185.695 99.2656C184.773 99.2656 184.023 99.4219 183.445 99.7344C182.867 100.047 182.422 100.484 182.109 101.047C181.812 101.594 181.609 102.242 181.5 102.992C181.391 103.742 181.336 104.562 181.336 105.453ZM231.539 109.93C231.539 109.398 231.461 108.922 231.305 108.5C231.148 108.062 230.859 107.656 230.438 107.281C230.016 106.906 229.406 106.531 228.609 106.156C227.828 105.766 226.797 105.359 225.516 104.938C224.016 104.438 222.57 103.875 221.18 103.25C219.789 102.609 218.547 101.867 217.453 101.023C216.359 100.164 215.492 99.1641 214.852 98.0234C214.211 96.8672 213.891 95.5234 213.891 93.9922C213.891 92.5234 214.219 91.2031 214.875 90.0312C215.531 88.8438 216.445 87.8359 217.617 87.0078C218.805 86.1641 220.195 85.5234 221.789 85.0859C223.383 84.6328 225.125 84.4062 227.016 84.4062C229.516 84.4062 231.719 84.8438 233.625 85.7188C235.547 86.5781 237.047 87.8047 238.125 89.3984C239.219 90.9766 239.766 92.8438 239.766 95H231.586C231.586 94.1406 231.406 93.3828 231.047 92.7266C230.703 92.0703 230.18 91.5547 229.477 91.1797C228.773 90.8047 227.891 90.6172 226.828 90.6172C225.797 90.6172 224.93 90.7734 224.227 91.0859C223.523 91.3984 222.992 91.8203 222.633 92.3516C222.273 92.8672 222.094 93.4375 222.094 94.0625C222.094 94.5781 222.234 95.0469 222.516 95.4688C222.812 95.875 223.227 96.2578 223.758 96.6172C224.305 96.9766 224.961 97.3203 225.727 97.6484C226.508 97.9766 227.383 98.2969 228.352 98.6094C230.164 99.1875 231.773 99.8359 233.18 100.555C234.602 101.258 235.797 102.062 236.766 102.969C237.75 103.859 238.492 104.875 238.992 106.016C239.508 107.156 239.766 108.445 239.766 109.883C239.766 111.414 239.469 112.773 238.875 113.961C238.281 115.148 237.43 116.156 236.32 116.984C235.211 117.797 233.883 118.414 232.336 118.836C230.789 119.258 229.062 119.469 227.156 119.469C225.406 119.469 223.68 119.25 221.977 118.812C220.289 118.359 218.758 117.672 217.383 116.75C216.008 115.812 214.906 114.617 214.078 113.164C213.266 111.695 212.859 109.953 212.859 107.938H221.109C221.109 108.938 221.242 109.781 221.508 110.469C221.773 111.156 222.164 111.711 222.68 112.133C223.195 112.539 223.828 112.836 224.578 113.023C225.328 113.195 226.188 113.281 227.156 113.281C228.203 113.281 229.047 113.133 229.688 112.836C230.328 112.523 230.797 112.117 231.094 111.617C231.391 111.102 231.539 110.539 231.539 109.93ZM256.992 93.6406V99.125H241.711V93.6406H256.992ZM244.922 87.3359H252.82V110.727C252.82 111.398 252.898 111.922 253.055 112.297C253.211 112.656 253.477 112.914 253.852 113.07C254.242 113.211 254.758 113.281 255.398 113.281C255.852 113.281 256.227 113.273 256.523 113.258C256.82 113.227 257.102 113.188 257.367 113.141V118.789C256.695 119.008 255.992 119.172 255.258 119.281C254.523 119.406 253.742 119.469 252.914 119.469C251.227 119.469 249.781 119.203 248.578 118.672C247.391 118.141 246.484 117.305 245.859 116.164C245.234 115.023 244.922 113.539 244.922 111.711V87.3359ZM273.305 112.625V102.172C273.305 101.453 273.203 100.836 273 100.32C272.797 99.8047 272.477 99.4062 272.039 99.125C271.602 98.8281 271.016 98.6797 270.281 98.6797C269.688 98.6797 269.18 98.7812 268.758 98.9844C268.336 99.1875 268.016 99.4922 267.797 99.8984C267.578 100.305 267.469 100.82 267.469 101.445H259.57C259.57 100.273 259.828 99.1875 260.344 98.1875C260.875 97.1719 261.625 96.2891 262.594 95.5391C263.578 94.7891 264.75 94.2109 266.109 93.8047C267.484 93.3828 269.016 93.1719 270.703 93.1719C272.719 93.1719 274.516 93.5078 276.094 94.1797C277.688 94.8516 278.945 95.8594 279.867 97.2031C280.789 98.5312 281.25 100.203 281.25 102.219V112.602C281.25 114.258 281.344 115.516 281.531 116.375C281.719 117.219 281.984 117.961 282.328 118.602V119H274.406C274.031 118.219 273.75 117.266 273.562 116.141C273.391 115 273.305 113.828 273.305 112.625ZM274.266 103.508L274.312 107.727H270.82C270.086 107.727 269.461 107.828 268.945 108.031C268.445 108.234 268.039 108.516 267.727 108.875C267.43 109.219 267.211 109.609 267.07 110.047C266.945 110.484 266.883 110.945 266.883 111.43C266.883 111.898 266.992 112.32 267.211 112.695C267.445 113.055 267.758 113.336 268.148 113.539C268.539 113.742 268.977 113.844 269.461 113.844C270.336 113.844 271.078 113.68 271.688 113.352C272.312 113.008 272.789 112.594 273.117 112.109C273.445 111.625 273.609 111.172 273.609 110.75L275.344 113.984C275.031 114.609 274.672 115.242 274.266 115.883C273.875 116.523 273.383 117.117 272.789 117.664C272.211 118.195 271.5 118.633 270.656 118.977C269.812 119.305 268.789 119.469 267.586 119.469C266.023 119.469 264.586 119.148 263.273 118.508C261.977 117.867 260.938 116.977 260.156 115.836C259.375 114.68 258.984 113.352 258.984 111.852C258.984 110.539 259.219 109.367 259.688 108.336C260.172 107.305 260.898 106.43 261.867 105.711C262.836 104.992 264.07 104.445 265.57 104.07C267.07 103.695 268.836 103.508 270.867 103.508H274.266ZM296.344 113.375C297.078 113.375 297.703 113.242 298.219 112.977C298.75 112.695 299.148 112.305 299.414 111.805C299.695 111.289 299.828 110.672 299.812 109.953H307.242C307.258 111.859 306.789 113.531 305.836 114.969C304.898 116.391 303.617 117.5 301.992 118.297C300.383 119.078 298.562 119.469 296.531 119.469C294.547 119.469 292.812 119.148 291.328 118.508C289.844 117.852 288.602 116.945 287.602 115.789C286.617 114.617 285.875 113.25 285.375 111.688C284.891 110.125 284.648 108.43 284.648 106.602V106.062C284.648 104.234 284.891 102.539 285.375 100.977C285.875 99.3984 286.617 98.0312 287.602 96.875C288.602 95.7031 289.836 94.7969 291.305 94.1562C292.789 93.5 294.516 93.1719 296.484 93.1719C298.594 93.1719 300.453 93.5703 302.062 94.3672C303.688 95.1641 304.961 96.3203 305.883 97.8359C306.805 99.3516 307.258 101.188 307.242 103.344H299.812C299.828 102.578 299.711 101.891 299.461 101.281C299.211 100.672 298.82 100.188 298.289 99.8281C297.773 99.4531 297.109 99.2656 296.297 99.2656C295.484 99.2656 294.828 99.4453 294.328 99.8047C293.828 100.164 293.445 100.664 293.18 101.305C292.93 101.93 292.758 102.648 292.664 103.461C292.586 104.273 292.547 105.141 292.547 106.062V106.602C292.547 107.539 292.586 108.422 292.664 109.25C292.758 110.062 292.938 110.781 293.203 111.406C293.469 112.016 293.852 112.5 294.352 112.859C294.852 113.203 295.516 113.375 296.344 113.375ZM318.586 82.9766V119H310.688V82.9766H318.586ZM334.805 93.6406L323.789 106.555L318.023 112.32L314.578 107.305L319.383 101.047L325.336 93.6406H334.805ZM326.344 119L319.57 107.445L325.406 103.297L335.391 119H326.344Z" fill="black"/>
<path d="M1134 0H1348C1356.28 0 1363 6.71573 1363 15V148C1363 156.284 1356.28 163 1348 163H1134V0Z" fill="#D62828"/>
<path fill-rule="evenodd" clip-rule="evenodd" d="M1218.75 53C1218.62 53 1218.49 53.0527 1218.4 53.1464C1218.3 53.2402 1218.25 53.3674 1218.25 53.5V109.5C1218.25 109.633 1218.3 109.76 1218.4 109.854C1218.49 109.947 1218.62 110 1218.75 110H1278.25C1278.38 110 1278.51 109.947 1278.6 109.854C1278.7 109.76 1278.75 109.633 1278.75 109.5V64C1278.75 63.8674 1278.7 63.7402 1278.6 63.6464C1278.51 63.5527 1278.38 63.5 1278.25 63.5H1248.5C1247.61 63.5 1246.77 63.1045 1246.2 62.4206L1238.34 53H1218.75ZM1214.15 48.9038C1215.37 47.6848 1217.03 47 1218.75 47H1239.75C1240.64 47 1241.48 47.3955 1242.05 48.0794L1249.91 57.5H1278.25C1279.97 57.5 1281.63 58.1848 1282.85 59.4038C1284.07 60.6228 1284.75 62.2761 1284.75 64V109.5C1284.75 111.224 1284.07 112.877 1282.85 114.096C1281.63 115.315 1279.97 116 1278.25 116H1218.75C1217.03 116 1215.37 115.315 1214.15 114.096C1212.93 112.877 1212.25 111.224 1212.25 109.5V53.5C1212.25 51.7761 1212.93 50.1228 1214.15 48.9038Z" fill="white"/>
<path fill-rule="evenodd" clip-rule="evenodd" d="M1243.97 75.5251C1245.34 76.892 1245.34 79.108 1243.97 80.4749L1237.7 86.75L1243.97 93.0251C1245.34 94.392 1245.34 96.608 1243.97 97.9749C1242.61 99.3417 1240.39 99.3417 1239.03 97.9749L1230.28 89.2249C1228.91 87.858 1228.91 85.642 1230.28 84.2751L1239.03 75.5251C1240.39 74.1583 1242.61 74.1583 1243.97 75.5251Z" fill="white"/>
<path fill-rule="evenodd" clip-rule="evenodd" d="M1252.28 97.9749C1250.91 96.608 1250.91 94.392 1252.28 93.0251L1258.55 86.75L1252.28 80.4749C1250.91 79.108 1250.91 76.892 1252.28 75.5251C1253.64 74.1583 1255.86 74.1583 1257.22 75.5251L1265.97 84.2751C1267.34 85.642 1267.34 87.858 1265.97 89.2249L1257.22 97.9749C1255.86 99.3417 1253.64 99.3417 1252.28 97.9749Z" fill="white"/>
</svg>
