<svg width="1363" height="163" viewBox="0 0 1363 163" fill="none" xmlns="http://www.w3.org/2000/svg">
<path d="M0 15C0 6.71573 6.71573 0 15 0H37V163H15C6.71573 163 0 156.284 0 148V15Z" fill="#D62828"/>
<rect width="1097" height="163" transform="translate(37)" fill="#F0F0F0"/>
<path d="M101.906 53.9219L94.3945 51.2383V48.0859L104.602 52.375V54.6367L101.906 53.9219ZM94.3945 56.1719L101.918 53.4297L104.602 52.7852V55.0352L94.3945 59.3242V56.1719ZM115.242 43.9375L118.805 51.7188L122.367 43.9375H126.199L120.586 54.7891V61H117.023V54.7891L111.398 43.9375H115.242ZM132.609 61.2344C131.625 61.2344 130.742 61.0781 129.961 60.7656C129.18 60.4453 128.516 60.0039 127.969 59.4414C127.43 58.8789 127.016 58.2266 126.727 57.4844C126.438 56.7344 126.293 55.9375 126.293 55.0938V54.625C126.293 53.6641 126.43 52.7852 126.703 51.9883C126.977 51.1914 127.367 50.5 127.875 49.9141C128.391 49.3281 129.016 48.8789 129.75 48.5664C130.484 48.2461 131.312 48.0859 132.234 48.0859C133.133 48.0859 133.93 48.2344 134.625 48.5312C135.32 48.8281 135.902 49.25 136.371 49.7969C136.848 50.3438 137.207 51 137.449 51.7656C137.691 52.5234 137.812 53.3672 137.812 54.2969V55.7031H127.734V53.4531H134.496V53.1953C134.496 52.7266 134.41 52.3086 134.238 51.9414C134.074 51.5664 133.824 51.2695 133.488 51.0508C133.152 50.832 132.723 50.7227 132.199 50.7227C131.754 50.7227 131.371 50.8203 131.051 51.0156C130.73 51.2109 130.469 51.4844 130.266 51.8359C130.07 52.1875 129.922 52.6016 129.82 53.0781C129.727 53.5469 129.68 54.0625 129.68 54.625V55.0938C129.68 55.6016 129.75 56.0703 129.891 56.5C130.039 56.9297 130.246 57.3008 130.512 57.6133C130.785 57.9258 131.113 58.168 131.496 58.3398C131.887 58.5117 132.328 58.5977 132.82 58.5977C133.43 58.5977 133.996 58.4805 134.52 58.2461C135.051 58.0039 135.508 57.6406 135.891 57.1562L137.531 58.9375C137.266 59.3203 136.902 59.6875 136.441 60.0391C135.988 60.3906 135.441 60.6797 134.801 60.9062C134.16 61.125 133.43 61.2344 132.609 61.2344ZM143.297 43V61H139.91V43H143.297ZM149.461 50.7578V65.875H146.086V48.3203H149.215L149.461 50.7578ZM157.488 54.5195V54.7656C157.488 55.6875 157.379 56.543 157.16 57.332C156.949 58.1211 156.637 58.8086 156.223 59.3945C155.809 59.9727 155.293 60.4258 154.676 60.7539C154.066 61.0742 153.363 61.2344 152.566 61.2344C151.793 61.2344 151.121 61.0781 150.551 60.7656C149.98 60.4531 149.5 60.0156 149.109 59.4531C148.727 58.8828 148.418 58.2227 148.184 57.4727C147.949 56.7227 147.77 55.918 147.645 55.0586V54.4141C147.77 53.4922 147.949 52.6484 148.184 51.8828C148.418 51.1094 148.727 50.4414 149.109 49.8789C149.5 49.3086 149.977 48.8672 150.539 48.5547C151.109 48.2422 151.777 48.0859 152.543 48.0859C153.348 48.0859 154.055 48.2383 154.664 48.543C155.281 48.8477 155.797 49.2852 156.211 49.8555C156.633 50.4258 156.949 51.1055 157.16 51.8945C157.379 52.6836 157.488 53.5586 157.488 54.5195ZM154.102 54.7656V54.5195C154.102 53.9805 154.055 53.4844 153.961 53.0312C153.875 52.5703 153.734 52.168 153.539 51.8242C153.352 51.4805 153.102 51.2148 152.789 51.0273C152.484 50.832 152.113 50.7344 151.676 50.7344C151.215 50.7344 150.82 50.8086 150.492 50.957C150.172 51.1055 149.91 51.3203 149.707 51.6016C149.504 51.8828 149.352 52.2188 149.25 52.6094C149.148 53 149.086 53.4414 149.062 53.9336V55.5625C149.102 56.1406 149.211 56.6602 149.391 57.1211C149.57 57.5742 149.848 57.9336 150.223 58.1992C150.598 58.4648 151.09 58.5977 151.699 58.5977C152.145 58.5977 152.52 58.5 152.824 58.3047C153.129 58.1016 153.375 57.8242 153.562 57.4727C153.758 57.1211 153.895 56.7148 153.973 56.2539C154.059 55.793 154.102 55.2969 154.102 54.7656ZM165.773 43.9375H172.137C173.441 43.9375 174.562 44.1328 175.5 44.5234C176.445 44.9141 177.172 45.4922 177.68 46.2578C178.188 47.0234 178.441 47.9648 178.441 49.082C178.441 49.9961 178.285 50.7812 177.973 51.4375C177.668 52.0859 177.234 52.6289 176.672 53.0664C176.117 53.4961 175.465 53.8398 174.715 54.0977L173.602 54.6836H168.07L168.047 51.9414H172.16C172.777 51.9414 173.289 51.832 173.695 51.6133C174.102 51.3945 174.406 51.0898 174.609 50.6992C174.82 50.3086 174.926 49.8555 174.926 49.3398C174.926 48.793 174.824 48.3203 174.621 47.9219C174.418 47.5234 174.109 47.2188 173.695 47.0078C173.281 46.7969 172.762 46.6914 172.137 46.6914H169.289V61H165.773V43.9375ZM175.312 61L171.422 53.3945L175.137 53.3711L179.074 60.8359V61H175.312ZM186.773 61.2344C185.789 61.2344 184.906 61.0781 184.125 60.7656C183.344 60.4453 182.68 60.0039 182.133 59.4414C181.594 58.8789 181.18 58.2266 180.891 57.4844C180.602 56.7344 180.457 55.9375 180.457 55.0938V54.625C180.457 53.6641 180.594 52.7852 180.867 51.9883C181.141 51.1914 181.531 50.5 182.039 49.9141C182.555 49.3281 183.18 48.8789 183.914 48.5664C184.648 48.2461 185.477 48.0859 186.398 48.0859C187.297 48.0859 188.094 48.2344 188.789 48.5312C189.484 48.8281 190.066 49.25 190.535 49.7969C191.012 50.3438 191.371 51 191.613 51.7656C191.855 52.5234 191.977 53.3672 191.977 54.2969V55.7031H181.898V53.4531H188.66V53.1953C188.66 52.7266 188.574 52.3086 188.402 51.9414C188.238 51.5664 187.988 51.2695 187.652 51.0508C187.316 50.832 186.887 50.7227 186.363 50.7227C185.918 50.7227 185.535 50.8203 185.215 51.0156C184.895 51.2109 184.633 51.4844 184.43 51.8359C184.234 52.1875 184.086 52.6016 183.984 53.0781C183.891 53.5469 183.844 54.0625 183.844 54.625V55.0938C183.844 55.6016 183.914 56.0703 184.055 56.5C184.203 56.9297 184.41 57.3008 184.676 57.6133C184.949 57.9258 185.277 58.168 185.66 58.3398C186.051 58.5117 186.492 58.5977 186.984 58.5977C187.594 58.5977 188.16 58.4805 188.684 58.2461C189.215 58.0039 189.672 57.6406 190.055 57.1562L191.695 58.9375C191.43 59.3203 191.066 59.6875 190.605 60.0391C190.152 60.3906 189.605 60.6797 188.965 60.9062C188.324 61.125 187.594 61.2344 186.773 61.2344ZM200.754 57.4961C200.754 57.2539 200.684 57.0352 200.543 56.8398C200.402 56.6445 200.141 56.4648 199.758 56.3008C199.383 56.1289 198.84 55.9727 198.129 55.832C197.488 55.6914 196.891 55.5156 196.336 55.3047C195.789 55.0859 195.312 54.8242 194.906 54.5195C194.508 54.2148 194.195 53.8555 193.969 53.4414C193.742 53.0195 193.629 52.5391 193.629 52C193.629 51.4688 193.742 50.9688 193.969 50.5C194.203 50.0312 194.535 49.6172 194.965 49.2578C195.402 48.8906 195.934 48.6055 196.559 48.4023C197.191 48.1914 197.902 48.0859 198.691 48.0859C199.793 48.0859 200.738 48.2617 201.527 48.6133C202.324 48.9648 202.934 49.4492 203.355 50.0664C203.785 50.6758 204 51.3711 204 52.1523H200.625C200.625 51.8242 200.555 51.5312 200.414 51.2734C200.281 51.0078 200.07 50.8008 199.781 50.6523C199.5 50.4961 199.133 50.418 198.68 50.418C198.305 50.418 197.98 50.4844 197.707 50.6172C197.434 50.7422 197.223 50.9141 197.074 51.1328C196.934 51.3438 196.863 51.5781 196.863 51.8359C196.863 52.0312 196.902 52.207 196.98 52.3633C197.066 52.5117 197.203 52.6484 197.391 52.7734C197.578 52.8984 197.82 53.0156 198.117 53.125C198.422 53.2266 198.797 53.3203 199.242 53.4062C200.156 53.5938 200.973 53.8398 201.691 54.1445C202.41 54.4414 202.98 54.8477 203.402 55.3633C203.824 55.8711 204.035 56.5391 204.035 57.3672C204.035 57.9297 203.91 58.4453 203.66 58.9141C203.41 59.3828 203.051 59.793 202.582 60.1445C202.113 60.4883 201.551 60.7578 200.895 60.9531C200.246 61.1406 199.516 61.2344 198.703 61.2344C197.523 61.2344 196.523 61.0234 195.703 60.6016C194.891 60.1797 194.273 59.6445 193.852 58.9961C193.438 58.3398 193.23 57.668 193.23 56.9805H196.43C196.445 57.4414 196.562 57.8125 196.781 58.0938C197.008 58.375 197.293 58.5781 197.637 58.7031C197.988 58.8281 198.367 58.8906 198.773 58.8906C199.211 58.8906 199.574 58.832 199.863 58.7148C200.152 58.5898 200.371 58.4258 200.52 58.2227C200.676 58.0117 200.754 57.7695 200.754 57.4961ZM212.438 48.3203V50.7109H205.055V48.3203H212.438ZM206.883 45.1914H210.258V57.1797C210.258 57.5469 210.305 57.8281 210.398 58.0234C210.5 58.2188 210.648 58.3555 210.844 58.4336C211.039 58.5039 211.285 58.5391 211.582 58.5391C211.793 58.5391 211.98 58.5312 212.145 58.5156C212.316 58.4922 212.461 58.4688 212.578 58.4453L212.59 60.9297C212.301 61.0234 211.988 61.0977 211.652 61.1523C211.316 61.207 210.945 61.2344 210.539 61.2344C209.797 61.2344 209.148 61.1133 208.594 60.8711C208.047 60.6211 207.625 60.2227 207.328 59.6758C207.031 59.1289 206.883 58.4102 206.883 57.5195V45.1914ZM221.203 58.1406V52.4922C221.203 52.0859 221.137 51.7383 221.004 51.4492C220.871 51.1523 220.664 50.9219 220.383 50.7578C220.109 50.5938 219.754 50.5117 219.316 50.5117C218.941 50.5117 218.617 50.5781 218.344 50.7109C218.07 50.8359 217.859 51.0195 217.711 51.2617C217.562 51.4961 217.488 51.7734 217.488 52.0938H214.113C214.113 51.5547 214.238 51.043 214.488 50.5586C214.738 50.0742 215.102 49.6484 215.578 49.2812C216.055 48.9062 216.621 48.6133 217.277 48.4023C217.941 48.1914 218.684 48.0859 219.504 48.0859C220.488 48.0859 221.363 48.25 222.129 48.5781C222.895 48.9062 223.496 49.3984 223.934 50.0547C224.379 50.7109 224.602 51.5312 224.602 52.5156V57.9414C224.602 58.6367 224.645 59.207 224.73 59.6523C224.816 60.0898 224.941 60.4727 225.105 60.8008V61H221.695C221.531 60.6562 221.406 60.2266 221.32 59.7109C221.242 59.1875 221.203 58.6641 221.203 58.1406ZM221.648 53.2773L221.672 55.1875H219.785C219.34 55.1875 218.953 55.2383 218.625 55.3398C218.297 55.4414 218.027 55.5859 217.816 55.7734C217.605 55.9531 217.449 56.1641 217.348 56.4062C217.254 56.6484 217.207 56.9141 217.207 57.2031C217.207 57.4922 217.273 57.7539 217.406 57.9883C217.539 58.2148 217.73 58.3945 217.98 58.5273C218.23 58.6523 218.523 58.7148 218.859 58.7148C219.367 58.7148 219.809 58.6133 220.184 58.4102C220.559 58.207 220.848 57.957 221.051 57.6602C221.262 57.3633 221.371 57.082 221.379 56.8164L222.27 58.2461C222.145 58.5664 221.973 58.8984 221.754 59.2422C221.543 59.5859 221.273 59.9102 220.945 60.2148C220.617 60.5117 220.223 60.7578 219.762 60.9531C219.301 61.1406 218.754 61.2344 218.121 61.2344C217.316 61.2344 216.586 61.0742 215.93 60.7539C215.281 60.4258 214.766 59.9766 214.383 59.4062C214.008 58.8281 213.82 58.1719 213.82 57.4375C213.82 56.7734 213.945 56.1836 214.195 55.668C214.445 55.1523 214.812 54.7188 215.297 54.3672C215.789 54.0078 216.402 53.7383 217.137 53.5586C217.871 53.3711 218.723 53.2773 219.691 53.2773H221.648ZM234.703 57.9648V48.3203H238.078V61H234.902L234.703 57.9648ZM235.078 55.3633L236.074 55.3398C236.074 56.1836 235.977 56.9688 235.781 57.6953C235.586 58.4141 235.293 59.0391 234.902 59.5703C234.512 60.0938 234.02 60.5039 233.426 60.8008C232.832 61.0898 232.133 61.2344 231.328 61.2344C230.711 61.2344 230.141 61.1484 229.617 60.9766C229.102 60.7969 228.656 60.5195 228.281 60.1445C227.914 59.7617 227.625 59.2734 227.414 58.6797C227.211 58.0781 227.109 57.3555 227.109 56.5117V48.3203H230.484V56.5352C230.484 56.9102 230.527 57.2266 230.613 57.4844C230.707 57.7422 230.836 57.9531 231 58.1172C231.164 58.2812 231.355 58.3984 231.574 58.4688C231.801 58.5391 232.051 58.5742 232.324 58.5742C233.02 58.5742 233.566 58.4336 233.965 58.1523C234.371 57.8711 234.656 57.4883 234.82 57.0039C234.992 56.5117 235.078 55.9648 235.078 55.3633ZM244.031 51.0859V61H240.656V48.3203H243.832L244.031 51.0859ZM247.852 48.2383L247.793 51.3672C247.629 51.3438 247.43 51.3242 247.195 51.3086C246.969 51.2852 246.762 51.2734 246.574 51.2734C246.098 51.2734 245.684 51.3359 245.332 51.4609C244.988 51.5781 244.699 51.7539 244.465 51.9883C244.238 52.2227 244.066 52.5078 243.949 52.8438C243.84 53.1797 243.777 53.5625 243.762 53.9922L243.082 53.7812C243.082 52.9609 243.164 52.207 243.328 51.5195C243.492 50.8242 243.73 50.2188 244.043 49.7031C244.363 49.1875 244.754 48.7891 245.215 48.5078C245.676 48.2266 246.203 48.0859 246.797 48.0859C246.984 48.0859 247.176 48.1016 247.371 48.1328C247.566 48.1562 247.727 48.1914 247.852 48.2383ZM255.891 58.1406V52.4922C255.891 52.0859 255.824 51.7383 255.691 51.4492C255.559 51.1523 255.352 50.9219 255.07 50.7578C254.797 50.5938 254.441 50.5117 254.004 50.5117C253.629 50.5117 253.305 50.5781 253.031 50.7109C252.758 50.8359 252.547 51.0195 252.398 51.2617C252.25 51.4961 252.176 51.7734 252.176 52.0938H248.801C248.801 51.5547 248.926 51.043 249.176 50.5586C249.426 50.0742 249.789 49.6484 250.266 49.2812C250.742 48.9062 251.309 48.6133 251.965 48.4023C252.629 48.1914 253.371 48.0859 254.191 48.0859C255.176 48.0859 256.051 48.25 256.816 48.5781C257.582 48.9062 258.184 49.3984 258.621 50.0547C259.066 50.7109 259.289 51.5312 259.289 52.5156V57.9414C259.289 58.6367 259.332 59.207 259.418 59.6523C259.504 60.0898 259.629 60.4727 259.793 60.8008V61H256.383C256.219 60.6562 256.094 60.2266 256.008 59.7109C255.93 59.1875 255.891 58.6641 255.891 58.1406ZM256.336 53.2773L256.359 55.1875H254.473C254.027 55.1875 253.641 55.2383 253.312 55.3398C252.984 55.4414 252.715 55.5859 252.504 55.7734C252.293 55.9531 252.137 56.1641 252.035 56.4062C251.941 56.6484 251.895 56.9141 251.895 57.2031C251.895 57.4922 251.961 57.7539 252.094 57.9883C252.227 58.2148 252.418 58.3945 252.668 58.5273C252.918 58.6523 253.211 58.7148 253.547 58.7148C254.055 58.7148 254.496 58.6133 254.871 58.4102C255.246 58.207 255.535 57.957 255.738 57.6602C255.949 57.3633 256.059 57.082 256.066 56.8164L256.957 58.2461C256.832 58.5664 256.66 58.8984 256.441 59.2422C256.23 59.5859 255.961 59.9102 255.633 60.2148C255.305 60.5117 254.91 60.7578 254.449 60.9531C253.988 61.1406 253.441 61.2344 252.809 61.2344C252.004 61.2344 251.273 61.0742 250.617 60.7539C249.969 60.4258 249.453 59.9766 249.07 59.4062C248.695 58.8281 248.508 58.1719 248.508 57.4375C248.508 56.7734 248.633 56.1836 248.883 55.668C249.133 55.1523 249.5 54.7188 249.984 54.3672C250.477 54.0078 251.09 53.7383 251.824 53.5586C252.559 53.3711 253.41 53.2773 254.379 53.2773H256.336ZM265.195 51.0273V61H261.82V48.3203H264.984L265.195 51.0273ZM264.703 54.2148H263.789C263.789 53.2773 263.91 52.4336 264.152 51.6836C264.395 50.9258 264.734 50.2812 265.172 49.75C265.609 49.2109 266.129 48.8008 266.73 48.5195C267.34 48.2305 268.02 48.0859 268.77 48.0859C269.363 48.0859 269.906 48.1719 270.398 48.3438C270.891 48.5156 271.312 48.7891 271.664 49.1641C272.023 49.5391 272.297 50.0352 272.484 50.6523C272.68 51.2695 272.777 52.0234 272.777 52.9141V61H269.379V52.9023C269.379 52.3398 269.301 51.9023 269.145 51.5898C268.988 51.2773 268.758 51.0586 268.453 50.9336C268.156 50.8008 267.789 50.7344 267.352 50.7344C266.898 50.7344 266.504 50.8242 266.168 51.0039C265.84 51.1836 265.566 51.4336 265.348 51.7539C265.137 52.0664 264.977 52.4336 264.867 52.8555C264.758 53.2773 264.703 53.7305 264.703 54.2148ZM281.555 48.3203V50.7109H274.172V48.3203H281.555ZM276 45.1914H279.375V57.1797C279.375 57.5469 279.422 57.8281 279.516 58.0234C279.617 58.2188 279.766 58.3555 279.961 58.4336C280.156 58.5039 280.402 58.5391 280.699 58.5391C280.91 58.5391 281.098 58.5312 281.262 58.5156C281.434 58.4922 281.578 58.4688 281.695 58.4453L281.707 60.9297C281.418 61.0234 281.105 61.0977 280.77 61.1523C280.434 61.207 280.062 61.2344 279.656 61.2344C278.914 61.2344 278.266 61.1133 277.711 60.8711C277.164 60.6211 276.742 60.2227 276.445 59.6758C276.148 59.1289 276 58.4102 276 57.5195V45.1914ZM296.602 46.8555L291.961 61H288.223L294.562 43.9375H296.941L296.602 46.8555ZM300.457 61L295.805 46.8555L295.43 43.9375H297.832L304.207 61H300.457ZM300.246 54.6484V57.4023H291.234V54.6484H300.246ZM308.508 51.0273V61H305.133V48.3203H308.297L308.508 51.0273ZM308.016 54.2148H307.102C307.102 53.2773 307.223 52.4336 307.465 51.6836C307.707 50.9258 308.047 50.2812 308.484 49.75C308.922 49.2109 309.441 48.8008 310.043 48.5195C310.652 48.2305 311.332 48.0859 312.082 48.0859C312.676 48.0859 313.219 48.1719 313.711 48.3438C314.203 48.5156 314.625 48.7891 314.977 49.1641C315.336 49.5391 315.609 50.0352 315.797 50.6523C315.992 51.2695 316.09 52.0234 316.09 52.9141V61H312.691V52.9023C312.691 52.3398 312.613 51.9023 312.457 51.5898C312.301 51.2773 312.07 51.0586 311.766 50.9336C311.469 50.8008 311.102 50.7344 310.664 50.7344C310.211 50.7344 309.816 50.8242 309.48 51.0039C309.152 51.1836 308.879 51.4336 308.66 51.7539C308.449 52.0664 308.289 52.4336 308.18 52.8555C308.07 53.2773 308.016 53.7305 308.016 54.2148ZM325.5 58.1406V52.4922C325.5 52.0859 325.434 51.7383 325.301 51.4492C325.168 51.1523 324.961 50.9219 324.68 50.7578C324.406 50.5938 324.051 50.5117 323.613 50.5117C323.238 50.5117 322.914 50.5781 322.641 50.7109C322.367 50.8359 322.156 51.0195 322.008 51.2617C321.859 51.4961 321.785 51.7734 321.785 52.0938H318.41C318.41 51.5547 318.535 51.043 318.785 50.5586C319.035 50.0742 319.398 49.6484 319.875 49.2812C320.352 48.9062 320.918 48.6133 321.574 48.4023C322.238 48.1914 322.98 48.0859 323.801 48.0859C324.785 48.0859 325.66 48.25 326.426 48.5781C327.191 48.9062 327.793 49.3984 328.23 50.0547C328.676 50.7109 328.898 51.5312 328.898 52.5156V57.9414C328.898 58.6367 328.941 59.207 329.027 59.6523C329.113 60.0898 329.238 60.4727 329.402 60.8008V61H325.992C325.828 60.6562 325.703 60.2266 325.617 59.7109C325.539 59.1875 325.5 58.6641 325.5 58.1406ZM325.945 53.2773L325.969 55.1875H324.082C323.637 55.1875 323.25 55.2383 322.922 55.3398C322.594 55.4414 322.324 55.5859 322.113 55.7734C321.902 55.9531 321.746 56.1641 321.645 56.4062C321.551 56.6484 321.504 56.9141 321.504 57.2031C321.504 57.4922 321.57 57.7539 321.703 57.9883C321.836 58.2148 322.027 58.3945 322.277 58.5273C322.527 58.6523 322.82 58.7148 323.156 58.7148C323.664 58.7148 324.105 58.6133 324.48 58.4102C324.855 58.207 325.145 57.957 325.348 57.6602C325.559 57.3633 325.668 57.082 325.676 56.8164L326.566 58.2461C326.441 58.5664 326.27 58.8984 326.051 59.2422C325.84 59.5859 325.57 59.9102 325.242 60.2148C324.914 60.5117 324.52 60.7578 324.059 60.9531C323.598 61.1406 323.051 61.2344 322.418 61.2344C321.613 61.2344 320.883 61.0742 320.227 60.7539C319.578 60.4258 319.062 59.9766 318.68 59.4062C318.305 58.8281 318.117 58.1719 318.117 57.4375C318.117 56.7734 318.242 56.1836 318.492 55.668C318.742 55.1523 319.109 54.7188 319.594 54.3672C320.086 54.0078 320.699 53.7383 321.434 53.5586C322.168 53.3711 323.02 53.2773 323.988 53.2773H325.945ZM335.062 43V61H331.676V43H335.062ZM341.613 59.5703L344.977 48.3203H348.598L343.5 62.9102C343.391 63.2305 343.242 63.5742 343.055 63.9414C342.875 64.3086 342.629 64.6562 342.316 64.9844C342.012 65.3203 341.625 65.5938 341.156 65.8047C340.695 66.0156 340.129 66.1211 339.457 66.1211C339.137 66.1211 338.875 66.1016 338.672 66.0625C338.469 66.0234 338.227 65.9688 337.945 65.8984V63.4258C338.031 63.4258 338.121 63.4258 338.215 63.4258C338.309 63.4336 338.398 63.4375 338.484 63.4375C338.93 63.4375 339.293 63.3867 339.574 63.2852C339.855 63.1836 340.082 63.0273 340.254 62.8164C340.426 62.6133 340.562 62.3477 340.664 62.0195L341.613 59.5703ZM340.207 48.3203L342.961 57.5078L343.441 61.082L341.145 61.3281L336.586 48.3203H340.207ZM356.801 57.4961C356.801 57.2539 356.73 57.0352 356.59 56.8398C356.449 56.6445 356.188 56.4648 355.805 56.3008C355.43 56.1289 354.887 55.9727 354.176 55.832C353.535 55.6914 352.938 55.5156 352.383 55.3047C351.836 55.0859 351.359 54.8242 350.953 54.5195C350.555 54.2148 350.242 53.8555 350.016 53.4414C349.789 53.0195 349.676 52.5391 349.676 52C349.676 51.4688 349.789 50.9688 350.016 50.5C350.25 50.0312 350.582 49.6172 351.012 49.2578C351.449 48.8906 351.98 48.6055 352.605 48.4023C353.238 48.1914 353.949 48.0859 354.738 48.0859C355.84 48.0859 356.785 48.2617 357.574 48.6133C358.371 48.9648 358.98 49.4492 359.402 50.0664C359.832 50.6758 360.047 51.3711 360.047 52.1523H356.672C356.672 51.8242 356.602 51.5312 356.461 51.2734C356.328 51.0078 356.117 50.8008 355.828 50.6523C355.547 50.4961 355.18 50.418 354.727 50.418C354.352 50.418 354.027 50.4844 353.754 50.6172C353.48 50.7422 353.27 50.9141 353.121 51.1328C352.98 51.3438 352.91 51.5781 352.91 51.8359C352.91 52.0312 352.949 52.207 353.027 52.3633C353.113 52.5117 353.25 52.6484 353.438 52.7734C353.625 52.8984 353.867 53.0156 354.164 53.125C354.469 53.2266 354.844 53.3203 355.289 53.4062C356.203 53.5938 357.02 53.8398 357.738 54.1445C358.457 54.4414 359.027 54.8477 359.449 55.3633C359.871 55.8711 360.082 56.5391 360.082 57.3672C360.082 57.9297 359.957 58.4453 359.707 58.9141C359.457 59.3828 359.098 59.793 358.629 60.1445C358.16 60.4883 357.598 60.7578 356.941 60.9531C356.293 61.1406 355.562 61.2344 354.75 61.2344C353.57 61.2344 352.57 61.0234 351.75 60.6016C350.938 60.1797 350.32 59.6445 349.898 58.9961C349.484 58.3398 349.277 57.668 349.277 56.9805H352.477C352.492 57.4414 352.609 57.8125 352.828 58.0938C353.055 58.375 353.34 58.5781 353.684 58.7031C354.035 58.8281 354.414 58.8906 354.82 58.8906C355.258 58.8906 355.621 58.832 355.91 58.7148C356.199 58.5898 356.418 58.4258 356.566 58.2227C356.723 58.0117 356.801 57.7695 356.801 57.4961ZM365.836 48.3203V61H362.449V48.3203H365.836ZM362.238 45.0156C362.238 44.5234 362.41 44.1172 362.754 43.7969C363.098 43.4766 363.559 43.3164 364.137 43.3164C364.707 43.3164 365.164 43.4766 365.508 43.7969C365.859 44.1172 366.035 44.5234 366.035 45.0156C366.035 45.5078 365.859 45.9141 365.508 46.2344C365.164 46.5547 364.707 46.7148 364.137 46.7148C363.559 46.7148 363.098 46.5547 362.754 46.2344C362.41 45.9141 362.238 45.5078 362.238 45.0156ZM375.48 57.4961C375.48 57.2539 375.41 57.0352 375.27 56.8398C375.129 56.6445 374.867 56.4648 374.484 56.3008C374.109 56.1289 373.566 55.9727 372.855 55.832C372.215 55.6914 371.617 55.5156 371.062 55.3047C370.516 55.0859 370.039 54.8242 369.633 54.5195C369.234 54.2148 368.922 53.8555 368.695 53.4414C368.469 53.0195 368.355 52.5391 368.355 52C368.355 51.4688 368.469 50.9688 368.695 50.5C368.93 50.0312 369.262 49.6172 369.691 49.2578C370.129 48.8906 370.66 48.6055 371.285 48.4023C371.918 48.1914 372.629 48.0859 373.418 48.0859C374.52 48.0859 375.465 48.2617 376.254 48.6133C377.051 48.9648 377.66 49.4492 378.082 50.0664C378.512 50.6758 378.727 51.3711 378.727 52.1523H375.352C375.352 51.8242 375.281 51.5312 375.141 51.2734C375.008 51.0078 374.797 50.8008 374.508 50.6523C374.227 50.4961 373.859 50.418 373.406 50.418C373.031 50.418 372.707 50.4844 372.434 50.6172C372.16 50.7422 371.949 50.9141 371.801 51.1328C371.66 51.3438 371.59 51.5781 371.59 51.8359C371.59 52.0312 371.629 52.207 371.707 52.3633C371.793 52.5117 371.93 52.6484 372.117 52.7734C372.305 52.8984 372.547 53.0156 372.844 53.125C373.148 53.2266 373.523 53.3203 373.969 53.4062C374.883 53.5938 375.699 53.8398 376.418 54.1445C377.137 54.4414 377.707 54.8477 378.129 55.3633C378.551 55.8711 378.762 56.5391 378.762 57.3672C378.762 57.9297 378.637 58.4453 378.387 58.9141C378.137 59.3828 377.777 59.793 377.309 60.1445C376.84 60.4883 376.277 60.7578 375.621 60.9531C374.973 61.1406 374.242 61.2344 373.43 61.2344C372.25 61.2344 371.25 61.0234 370.43 60.6016C369.617 60.1797 369 59.6445 368.578 58.9961C368.164 58.3398 367.957 57.668 367.957 56.9805H371.156C371.172 57.4414 371.289 57.8125 371.508 58.0938C371.734 58.375 372.02 58.5781 372.363 58.7031C372.715 58.8281 373.094 58.8906 373.5 58.8906C373.938 58.8906 374.301 58.832 374.59 58.7148C374.879 58.5898 375.098 58.4258 375.246 58.2227C375.402 58.0117 375.48 57.7695 375.48 57.4961Z" fill="#888888"/>
<path d="M109.219 107.422H100.734V101.07H109.219C110.375 101.07 111.312 100.875 112.031 100.484C112.75 100.094 113.273 99.5547 113.602 98.8672C113.945 98.1641 114.117 97.375 114.117 96.5C114.117 95.5625 113.945 94.6953 113.602 93.8984C113.273 93.1016 112.75 92.4609 112.031 91.9766C111.312 91.4766 110.375 91.2266 109.219 91.2266H103.828V119H95.6016V84.875H109.219C111.953 84.875 114.305 85.375 116.273 86.375C118.258 87.375 119.781 88.75 120.844 90.5C121.906 92.2344 122.438 94.2188 122.438 96.4531C122.438 98.6562 121.906 100.578 120.844 102.219C119.781 103.859 118.258 105.141 116.273 106.062C114.305 106.969 111.953 107.422 109.219 107.422ZM134.461 99.9219V119H126.562V93.6406H133.945L134.461 99.9219ZM141.961 93.4531L141.82 100.789C141.508 100.758 141.086 100.719 140.555 100.672C140.023 100.625 139.578 100.602 139.219 100.602C138.297 100.602 137.5 100.711 136.828 100.93C136.172 101.133 135.625 101.445 135.188 101.867C134.766 102.273 134.453 102.789 134.25 103.414C134.062 104.039 133.977 104.766 133.992 105.594L132.562 104.656C132.562 102.953 132.727 101.406 133.055 100.016C133.398 98.6094 133.883 97.3984 134.508 96.3828C135.133 95.3516 135.891 94.5625 136.781 94.0156C137.672 93.4531 138.672 93.1719 139.781 93.1719C140.172 93.1719 140.555 93.1953 140.93 93.2422C141.32 93.2891 141.664 93.3594 141.961 93.4531ZM142.852 106.578V106.086C142.852 104.227 143.117 102.516 143.648 100.953C144.18 99.375 144.961 98.0078 145.992 96.8516C147.023 95.6953 148.297 94.7969 149.812 94.1562C151.328 93.5 153.078 93.1719 155.062 93.1719C157.062 93.1719 158.82 93.5 160.336 94.1562C161.867 94.7969 163.148 95.6953 164.18 96.8516C165.211 98.0078 165.992 99.375 166.523 100.953C167.055 102.516 167.32 104.227 167.32 106.086V106.578C167.32 108.422 167.055 110.133 166.523 111.711C165.992 113.273 165.211 114.641 164.18 115.812C163.148 116.969 161.875 117.867 160.359 118.508C158.844 119.148 157.094 119.469 155.109 119.469C153.125 119.469 151.367 119.148 149.836 118.508C148.305 117.867 147.023 116.969 145.992 115.812C144.961 114.641 144.18 113.273 143.648 111.711C143.117 110.133 142.852 108.422 142.852 106.578ZM150.75 106.086V106.578C150.75 107.531 150.82 108.422 150.961 109.25C151.102 110.078 151.336 110.805 151.664 111.43C151.992 112.039 152.438 112.516 153 112.859C153.562 113.203 154.266 113.375 155.109 113.375C155.938 113.375 156.625 113.203 157.172 112.859C157.734 112.516 158.18 112.039 158.508 111.43C158.836 110.805 159.07 110.078 159.211 109.25C159.352 108.422 159.422 107.531 159.422 106.578V106.086C159.422 105.164 159.352 104.297 159.211 103.484C159.07 102.656 158.836 101.93 158.508 101.305C158.18 100.664 157.734 100.164 157.172 99.8047C156.609 99.4453 155.906 99.2656 155.062 99.2656C154.234 99.2656 153.539 99.4453 152.977 99.8047C152.43 100.164 151.992 100.664 151.664 101.305C151.336 101.93 151.102 102.656 150.961 103.484C150.82 104.297 150.75 105.164 150.75 106.086ZM184.195 93.6406V99.125H168.914V93.6406H184.195ZM172.125 87.3359H180.023V110.727C180.023 111.398 180.102 111.922 180.258 112.297C180.414 112.656 180.68 112.914 181.055 113.07C181.445 113.211 181.961 113.281 182.602 113.281C183.055 113.281 183.43 113.273 183.727 113.258C184.023 113.227 184.305 113.188 184.57 113.141V118.789C183.898 119.008 183.195 119.172 182.461 119.281C181.727 119.406 180.945 119.469 180.117 119.469C178.43 119.469 176.984 119.203 175.781 118.672C174.594 118.141 173.688 117.305 173.062 116.164C172.438 115.023 172.125 113.539 172.125 111.711V87.3359ZM185.648 106.578V106.086C185.648 104.227 185.914 102.516 186.445 100.953C186.977 99.375 187.758 98.0078 188.789 96.8516C189.82 95.6953 191.094 94.7969 192.609 94.1562C194.125 93.5 195.875 93.1719 197.859 93.1719C199.859 93.1719 201.617 93.5 203.133 94.1562C204.664 94.7969 205.945 95.6953 206.977 96.8516C208.008 98.0078 208.789 99.375 209.32 100.953C209.852 102.516 210.117 104.227 210.117 106.086V106.578C210.117 108.422 209.852 110.133 209.32 111.711C208.789 113.273 208.008 114.641 206.977 115.812C205.945 116.969 204.672 117.867 203.156 118.508C201.641 119.148 199.891 119.469 197.906 119.469C195.922 119.469 194.164 119.148 192.633 118.508C191.102 117.867 189.82 116.969 188.789 115.812C187.758 114.641 186.977 113.273 186.445 111.711C185.914 110.133 185.648 108.422 185.648 106.578ZM193.547 106.086V106.578C193.547 107.531 193.617 108.422 193.758 109.25C193.898 110.078 194.133 110.805 194.461 111.43C194.789 112.039 195.234 112.516 195.797 112.859C196.359 113.203 197.062 113.375 197.906 113.375C198.734 113.375 199.422 113.203 199.969 112.859C200.531 112.516 200.977 112.039 201.305 111.43C201.633 110.805 201.867 110.078 202.008 109.25C202.148 108.422 202.219 107.531 202.219 106.578V106.086C202.219 105.164 202.148 104.297 202.008 103.484C201.867 102.656 201.633 101.93 201.305 101.305C200.977 100.664 200.531 100.164 199.969 99.8047C199.406 99.4453 198.703 99.2656 197.859 99.2656C197.031 99.2656 196.336 99.4453 195.773 99.8047C195.227 100.164 194.789 100.664 194.461 101.305C194.133 101.93 193.898 102.656 193.758 103.484C193.617 104.297 193.547 105.164 193.547 106.086ZM226.992 93.6406V99.125H211.711V93.6406H226.992ZM214.922 87.3359H222.82V110.727C222.82 111.398 222.898 111.922 223.055 112.297C223.211 112.656 223.477 112.914 223.852 113.07C224.242 113.211 224.758 113.281 225.398 113.281C225.852 113.281 226.227 113.273 226.523 113.258C226.82 113.227 227.102 113.188 227.367 113.141V118.789C226.695 119.008 225.992 119.172 225.258 119.281C224.523 119.406 223.742 119.469 222.914 119.469C221.227 119.469 219.781 119.203 218.578 118.672C217.391 118.141 216.484 117.305 215.859 116.164C215.234 115.023 214.922 113.539 214.922 111.711V87.3359ZM237.914 116.023L244.477 93.6406H252.961L242.766 122.773C242.547 123.414 242.258 124.102 241.898 124.836C241.539 125.586 241.047 126.297 240.422 126.969C239.797 127.641 238.992 128.188 238.008 128.609C237.039 129.031 235.836 129.242 234.398 129.242C233.633 129.242 233.07 129.203 232.711 129.125C232.367 129.062 231.836 128.945 231.117 128.773V123.125C231.32 123.125 231.492 123.125 231.633 123.125C231.789 123.125 231.961 123.125 232.148 123.125C232.992 123.125 233.664 123.039 234.164 122.867C234.68 122.695 235.07 122.445 235.336 122.117C235.617 121.789 235.836 121.391 235.992 120.922L237.914 116.023ZM236.25 93.6406L241.242 111.383L242.109 119.75H236.812L227.789 93.6406H236.25ZM262.992 98.5156V128.75H255.094V93.6406H262.453L262.992 98.5156ZM278.555 106.016V106.508C278.555 108.352 278.344 110.062 277.922 111.641C277.5 113.219 276.875 114.594 276.047 115.766C275.219 116.938 274.188 117.852 272.953 118.508C271.734 119.148 270.32 119.469 268.711 119.469C267.195 119.469 265.891 119.133 264.797 118.461C263.703 117.789 262.789 116.859 262.055 115.672C261.32 114.484 260.727 113.125 260.273 111.594C259.82 110.062 259.461 108.445 259.195 106.742V106.109C259.461 104.281 259.82 102.586 260.273 101.023C260.727 99.4453 261.32 98.0703 262.055 96.8984C262.789 95.7266 263.695 94.8125 264.773 94.1562C265.867 93.5 267.172 93.1719 268.688 93.1719C270.297 93.1719 271.711 93.4766 272.93 94.0859C274.164 94.6953 275.195 95.5703 276.023 96.7109C276.867 97.8359 277.5 99.1875 277.922 100.766C278.344 102.344 278.555 104.094 278.555 106.016ZM270.656 106.508V106.016C270.656 105.031 270.586 104.133 270.445 103.32C270.305 102.492 270.078 101.773 269.766 101.164C269.469 100.555 269.07 100.086 268.57 99.7578C268.07 99.4297 267.453 99.2656 266.719 99.2656C265.875 99.2656 265.164 99.3984 264.586 99.6641C264.023 99.9141 263.57 100.305 263.227 100.836C262.898 101.352 262.664 102 262.523 102.781C262.398 103.547 262.344 104.445 262.359 105.477V107.398C262.328 108.586 262.445 109.633 262.711 110.539C262.977 111.43 263.438 112.125 264.094 112.625C264.75 113.125 265.641 113.375 266.766 113.375C267.516 113.375 268.141 113.203 268.641 112.859C269.141 112.5 269.539 112.008 269.836 111.383C270.133 110.742 270.344 110.008 270.469 109.18C270.594 108.352 270.656 107.461 270.656 106.508ZM290.414 93.6406V119H282.492V93.6406H290.414ZM282.023 87.1016C282.023 85.9766 282.43 85.0547 283.242 84.3359C284.055 83.6172 285.109 83.2578 286.406 83.2578C287.703 83.2578 288.758 83.6172 289.57 84.3359C290.383 85.0547 290.789 85.9766 290.789 87.1016C290.789 88.2266 290.383 89.1484 289.57 89.8672C288.758 90.5859 287.703 90.9453 286.406 90.9453C285.109 90.9453 284.055 90.5859 283.242 89.8672C282.43 89.1484 282.023 88.2266 282.023 87.1016ZM303.047 99.0547V119H295.148V93.6406H302.555L303.047 99.0547ZM302.109 105.453L300.258 105.5C300.258 103.562 300.492 101.836 300.961 100.32C301.43 98.7891 302.094 97.4922 302.953 96.4297C303.812 95.3672 304.836 94.5625 306.023 94.0156C307.227 93.4531 308.562 93.1719 310.031 93.1719C311.203 93.1719 312.273 93.3438 313.242 93.6875C314.227 94.0312 315.07 94.5859 315.773 95.3516C316.492 96.1172 317.039 97.1328 317.414 98.3984C317.805 99.6484 318 101.195 318 103.039V119H310.055V103.016C310.055 102 309.914 101.227 309.633 100.695C309.352 100.148 308.945 99.7734 308.414 99.5703C307.883 99.3672 307.234 99.2656 306.469 99.2656C305.656 99.2656 304.969 99.4219 304.406 99.7344C303.844 100.047 303.391 100.484 303.047 101.047C302.719 101.594 302.477 102.242 302.32 102.992C302.18 103.742 302.109 104.562 302.109 105.453ZM338.32 93.6406H345.492V118.016C345.492 120.359 344.953 122.344 343.875 123.969C342.797 125.609 341.289 126.852 339.352 127.695C337.43 128.555 335.18 128.984 332.602 128.984C331.461 128.984 330.297 128.836 329.109 128.539C327.922 128.258 326.812 127.836 325.781 127.273C324.75 126.711 323.883 126.016 323.18 125.188L326.484 120.547C327.125 121.266 327.93 121.875 328.898 122.375C329.867 122.891 331.008 123.148 332.32 123.148C333.461 123.148 334.414 122.945 335.18 122.539C335.961 122.133 336.555 121.539 336.961 120.758C337.367 119.992 337.57 119.062 337.57 117.969V99.6406L338.32 93.6406ZM321.469 106.625V106.133C321.469 104.211 321.703 102.461 322.172 100.883C322.656 99.2891 323.344 97.9219 324.234 96.7812C325.141 95.625 326.234 94.7344 327.516 94.1094C328.797 93.4844 330.242 93.1719 331.852 93.1719C333.586 93.1719 335.008 93.5078 336.117 94.1797C337.242 94.8359 338.141 95.7578 338.812 96.9453C339.5 98.1328 340.031 99.5234 340.406 101.117C340.797 102.695 341.125 104.398 341.391 106.227V106.812C341.125 108.531 340.758 110.156 340.289 111.688C339.836 113.203 339.242 114.547 338.508 115.719C337.773 116.891 336.852 117.812 335.742 118.484C334.648 119.141 333.336 119.469 331.805 119.469C330.211 119.469 328.773 119.148 327.492 118.508C326.227 117.867 325.141 116.969 324.234 115.812C323.344 114.656 322.656 113.297 322.172 111.734C321.703 110.172 321.469 108.469 321.469 106.625ZM329.367 106.133V106.625C329.367 107.578 329.453 108.461 329.625 109.273C329.812 110.086 330.094 110.805 330.469 111.43C330.844 112.039 331.305 112.516 331.852 112.859C332.414 113.203 333.07 113.375 333.82 113.375C334.961 113.375 335.883 113.133 336.586 112.648C337.289 112.164 337.797 111.477 338.109 110.586C338.422 109.695 338.555 108.648 338.508 107.445V105.594C338.539 104.562 338.469 103.656 338.297 102.875C338.125 102.078 337.852 101.414 337.477 100.883C337.117 100.352 336.633 99.9531 336.023 99.6875C335.43 99.4062 334.711 99.2656 333.867 99.2656C333.133 99.2656 332.484 99.4375 331.922 99.7812C331.359 100.125 330.891 100.609 330.516 101.234C330.141 101.844 329.852 102.57 329.648 103.414C329.461 104.242 329.367 105.148 329.367 106.133Z" fill="black"/>
<path d="M1134 0H1348C1356.28 0 1363 6.71573 1363 15V148C1363 156.284 1356.28 163 1348 163H1134V0Z" fill="#D62828"/>
<path fill-rule="evenodd" clip-rule="evenodd" d="M1202.75 46.5018C1202.75 45.3973 1203.65 44.5018 1204.75 44.5018H1292.25C1293.35 44.5018 1294.25 45.3973 1294.25 46.5018V116.498C1294.25 117.603 1293.35 118.498 1292.25 118.498H1204.75C1203.65 118.498 1202.75 117.603 1202.75 116.498V46.5018ZM1206.75 48.5018V52.9963H1290.25V48.5018H1206.75ZM1290.25 56.9963H1235.19V114.498H1290.25V56.9963ZM1231.19 114.498V56.9963H1206.75V114.498H1231.19Z" fill="white"/>
<path fill-rule="evenodd" clip-rule="evenodd" d="M1209.72 62.3022C1209.72 61.1976 1210.62 60.3022 1211.72 60.3022H1225.72C1226.83 60.3022 1227.72 61.1976 1227.72 62.3022V81.6974C1227.72 82.802 1226.83 83.6974 1225.72 83.6974H1211.72C1210.62 83.6974 1209.72 82.802 1209.72 81.6974V62.3022ZM1213.72 64.3022V79.6974H1223.72V64.3022H1213.72ZM1239.33 63.1982C1239.33 62.0936 1240.22 61.1982 1241.33 61.1982H1284.25C1285.36 61.1982 1286.25 62.0936 1286.25 63.1982V109.407C1286.25 110.511 1285.36 111.407 1284.25 111.407H1241.33C1240.22 111.407 1239.33 110.511 1239.33 109.407V63.1982ZM1243.33 65.1982V107.407H1282.25V65.1982H1243.33ZM1209.56 93.4381C1209.56 92.3336 1210.46 91.4381 1211.56 91.4381H1220.48C1221.59 91.4381 1222.48 92.3336 1222.48 93.4381C1222.48 94.5427 1221.59 95.4381 1220.48 95.4381H1211.56C1210.46 95.4381 1209.56 94.5427 1209.56 93.4381ZM1209.56 100.438C1209.56 99.3335 1210.46 98.4381 1211.56 98.4381H1226.1C1227.21 98.4381 1228.1 99.3335 1228.1 100.438C1228.1 101.543 1227.21 102.438 1226.1 102.438H1211.56C1210.46 102.438 1209.56 101.543 1209.56 100.438ZM1209.56 107.438C1209.56 106.334 1210.46 105.438 1211.56 105.438H1220.48C1221.59 105.438 1222.48 106.334 1222.48 107.438C1222.48 108.543 1221.59 109.438 1220.48 109.438H1211.56C1210.46 109.438 1209.56 108.543 1209.56 107.438Z" fill="white"/>
</svg>
